<svg xmlns="http://www.w3.org/2000/svg" xmlns:xlink="http://www.w3.org/1999/xlink" width="1200" zoomAndPan="magnify" viewBox="0 0 900 74.999997" height="100" preserveAspectRatio="xMidYMid meet" version="1.0"><defs><g/></defs><g fill="#000000" fill-opacity="1"><g transform="translate(0.000018, 59.250516)"><g><path d="M 4.890625 0 L 4.890625 -39.734375 L 13.6875 -39.734375 L 20.453125 -21.15625 C 20.890625 -19.9375 21.300781 -18.671875 21.6875 -17.359375 C 22.082031 -16.054688 22.476562 -14.765625 22.875 -13.484375 L 23.140625 -13.484375 C 23.578125 -14.765625 23.984375 -16.054688 24.359375 -17.359375 C 24.734375 -18.671875 25.132812 -19.9375 25.5625 -21.15625 L 32.171875 -39.734375 L 40.96875 -39.734375 L 40.96875 0 L 33.71875 0 L 33.71875 -16.59375 C 33.71875 -17.84375 33.769531 -19.242188 33.875 -20.796875 C 33.988281 -22.359375 34.125 -23.910156 34.28125 -25.453125 C 34.445312 -26.992188 34.582031 -28.390625 34.6875 -29.640625 L 34.484375 -29.640625 L 31.25 -20.296875 L 25.140625 -3.59375 L 20.5625 -3.59375 L 14.390625 -20.296875 L 11.21875 -29.640625 L 11.015625 -29.640625 C 11.148438 -28.390625 11.289062 -26.992188 11.4375 -25.453125 C 11.582031 -23.910156 11.71875 -22.359375 11.84375 -20.796875 C 11.96875 -19.242188 12.03125 -17.84375 12.03125 -16.59375 L 12.03125 0 Z M 4.890625 0 "/></g></g></g><g fill="#000000" fill-opacity="1"><g transform="translate(47.307187, 59.250516)"><g><path d="M 8.703125 0.75 C 7.304688 0.75 6.140625 0.25 5.203125 -0.75 C 4.273438 -1.75 3.8125 -2.96875 3.8125 -4.40625 C 3.8125 -5.875 4.273438 -7.097656 5.203125 -8.078125 C 6.140625 -9.066406 7.304688 -9.5625 8.703125 -9.5625 C 10.128906 -9.5625 11.304688 -9.066406 12.234375 -8.078125 C 13.171875 -7.097656 13.640625 -5.875 13.640625 -4.40625 C 13.640625 -2.96875 13.171875 -1.75 12.234375 -0.75 C 11.304688 0.25 10.128906 0.75 8.703125 0.75 Z M 8.703125 0.75 "/></g></g></g><g fill="#000000" fill-opacity="1"><g transform="translate(66.208813, 59.250516)"><g><path d="M 11.59375 0 L 11.59375 -14.546875 L -0.328125 -39.734375 L 8.109375 -39.734375 L 12.078125 -30.078125 C 12.648438 -28.609375 13.210938 -27.15625 13.765625 -25.71875 C 14.328125 -24.289062 14.910156 -22.804688 15.515625 -21.265625 L 15.734375 -21.265625 C 16.335938 -22.804688 16.9375 -24.289062 17.53125 -25.71875 C 18.125 -27.15625 18.707031 -28.609375 19.28125 -30.078125 L 23.25 -39.734375 L 31.53125 -39.734375 L 19.546875 -14.546875 L 19.546875 0 Z M 11.59375 0 "/></g></g></g><g fill="#000000" fill-opacity="1"><g transform="translate(98.856788, 59.250516)"><g><path d="M 12.5625 10.84375 C 10.0625 6.695312 8.101562 2.378906 6.6875 -2.109375 C 5.269531 -6.609375 4.5625 -11.5625 4.5625 -16.96875 C 4.5625 -22.300781 5.269531 -27.234375 6.6875 -31.765625 C 8.101562 -36.296875 10.0625 -40.617188 12.5625 -44.734375 L 17.5 -42.640625 C 15.25 -38.734375 13.59375 -34.566406 12.53125 -30.140625 C 11.476562 -25.722656 10.953125 -21.332031 10.953125 -16.96875 C 10.953125 -12.53125 11.476562 -8.117188 12.53125 -3.734375 C 13.59375 0.648438 15.25 4.8125 17.5 8.75 Z M 12.5625 10.84375 "/></g></g></g><g fill="#000000" fill-opacity="1"><g transform="translate(120.604338, 59.250516)"><g><path d="M 4.890625 0 L 4.890625 -39.734375 L 15.78125 -39.734375 C 19.832031 -39.734375 23.328125 -39.023438 26.265625 -37.609375 C 29.203125 -36.203125 31.460938 -34.039062 33.046875 -31.125 C 34.640625 -28.207031 35.4375 -24.507812 35.4375 -20.03125 C 35.4375 -15.59375 34.648438 -11.882812 33.078125 -8.90625 C 31.503906 -5.9375 29.273438 -3.707031 26.390625 -2.21875 C 23.515625 -0.738281 20.125 0 16.21875 0 Z M 12.828125 -6.390625 L 15.3125 -6.390625 C 19.03125 -6.390625 21.960938 -7.453125 24.109375 -9.578125 C 26.253906 -11.710938 27.328125 -15.195312 27.328125 -20.03125 C 27.328125 -23.289062 26.832031 -25.894531 25.84375 -27.84375 C 24.863281 -29.789062 23.476562 -31.203125 21.6875 -32.078125 C 19.90625 -32.960938 17.78125 -33.40625 15.3125 -33.40625 L 12.828125 -33.40625 Z M 12.828125 -6.390625 "/></g></g></g><g fill="#000000" fill-opacity="1"><g transform="translate(160.393956, 59.250516)"><g><path d="M 12.828125 0.75 C 10.828125 0.75 8.785156 0.347656 6.703125 -0.453125 C 4.628906 -1.265625 2.859375 -2.273438 1.390625 -3.484375 L 5 -8.4375 C 6.351562 -7.394531 7.679688 -6.585938 8.984375 -6.015625 C 10.296875 -5.441406 11.648438 -5.15625 13.046875 -5.15625 C 14.554688 -5.15625 15.660156 -5.445312 16.359375 -6.03125 C 17.054688 -6.625 17.40625 -7.390625 17.40625 -8.328125 C 17.40625 -9.078125 17.097656 -9.710938 16.484375 -10.234375 C 15.878906 -10.753906 15.101562 -11.21875 14.15625 -11.625 C 13.207031 -12.039062 12.191406 -12.441406 11.109375 -12.828125 C 9.859375 -13.335938 8.597656 -13.945312 7.328125 -14.65625 C 6.054688 -15.375 5 -16.296875 4.15625 -17.421875 C 3.320312 -18.554688 2.90625 -19.945312 2.90625 -21.59375 C 2.90625 -23.414062 3.367188 -25.015625 4.296875 -26.390625 C 5.222656 -27.773438 6.519531 -28.859375 8.1875 -29.640625 C 9.851562 -30.429688 11.8125 -30.828125 14.0625 -30.828125 C 16.289062 -30.828125 18.242188 -30.441406 19.921875 -29.671875 C 21.609375 -28.898438 23.078125 -28.050781 24.328125 -27.125 L 20.78125 -22.34375 C 19.707031 -23.09375 18.640625 -23.707031 17.578125 -24.1875 C 16.523438 -24.675781 15.425781 -24.921875 14.28125 -24.921875 C 12.957031 -24.921875 11.960938 -24.648438 11.296875 -24.109375 C 10.640625 -23.578125 10.3125 -22.878906 10.3125 -22.015625 C 10.3125 -21.296875 10.597656 -20.695312 11.171875 -20.21875 C 11.742188 -19.738281 12.503906 -19.316406 13.453125 -18.953125 C 14.398438 -18.597656 15.394531 -18.222656 16.4375 -17.828125 C 17.757812 -17.328125 19.0625 -16.726562 20.34375 -16.03125 C 21.632812 -15.332031 22.703125 -14.410156 23.546875 -13.265625 C 24.390625 -12.117188 24.8125 -10.613281 24.8125 -8.75 C 24.8125 -7 24.351562 -5.40625 23.4375 -3.96875 C 22.53125 -2.539062 21.1875 -1.394531 19.40625 -0.53125 C 17.632812 0.320312 15.441406 0.75 12.828125 0.75 Z M 12.828125 0.75 "/></g></g></g><g fill="#000000" fill-opacity="1"><g transform="translate(188.42402, 59.250516)"><g><path d="M 7.671875 10.84375 L 2.796875 8.75 C 5.046875 4.8125 6.695312 0.648438 7.75 -3.734375 C 8.8125 -8.117188 9.34375 -12.53125 9.34375 -16.96875 C 9.34375 -21.332031 8.8125 -25.722656 7.75 -30.140625 C 6.695312 -34.566406 5.046875 -38.734375 2.796875 -42.640625 L 7.671875 -44.734375 C 10.222656 -40.617188 12.203125 -36.296875 13.609375 -31.765625 C 15.023438 -27.234375 15.734375 -22.300781 15.734375 -16.96875 C 15.734375 -11.5625 15.023438 -6.609375 13.609375 -2.109375 C 12.203125 2.378906 10.222656 6.695312 7.671875 10.84375 Z M 7.671875 10.84375 "/></g></g></g><g fill="#000000" fill-opacity="1"><g transform="translate(210.17157, 59.250516)"><g/></g></g><g fill="#000000" fill-opacity="1"><g transform="translate(223.810931, 59.250516)"><g><path d="M 4.890625 0 L 4.890625 -39.734375 L 12.828125 -39.734375 L 12.828125 -24.109375 L 27.875 -24.109375 L 27.875 -39.734375 L 35.765625 -39.734375 L 35.765625 0 L 27.875 0 L 27.875 -17.1875 L 12.828125 -17.1875 L 12.828125 0 Z M 4.890625 0 "/></g></g></g><g fill="#000000" fill-opacity="1"><g transform="translate(265.909518, 59.250516)"><g><path d="M 8.703125 0.75 C 7.304688 0.75 6.140625 0.25 5.203125 -0.75 C 4.273438 -1.75 3.8125 -2.96875 3.8125 -4.40625 C 3.8125 -5.875 4.273438 -7.097656 5.203125 -8.078125 C 6.140625 -9.066406 7.304688 -9.5625 8.703125 -9.5625 C 10.128906 -9.5625 11.304688 -9.066406 12.234375 -8.078125 C 13.171875 -7.097656 13.640625 -5.875 13.640625 -4.40625 C 13.640625 -2.96875 13.171875 -1.75 12.234375 -0.75 C 11.304688 0.25 10.128906 0.75 8.703125 0.75 Z M 8.703125 0.75 "/></g></g></g><g fill="#000000" fill-opacity="1"><g transform="translate(284.811157, 59.250516)"><g><path d="M 20.671875 0.75 C 17.160156 0.75 14.070312 -0.0859375 11.40625 -1.765625 C 8.738281 -3.453125 6.65625 -5.84375 5.15625 -8.9375 C 3.65625 -12.039062 2.90625 -15.738281 2.90625 -20.03125 C 2.90625 -24.363281 3.65625 -28.050781 5.15625 -31.09375 C 6.65625 -34.132812 8.738281 -36.457031 11.40625 -38.0625 C 14.070312 -39.675781 17.160156 -40.484375 20.671875 -40.484375 C 24.179688 -40.484375 27.269531 -39.675781 29.9375 -38.0625 C 32.601562 -36.457031 34.6875 -34.125 36.1875 -31.0625 C 37.695312 -28 38.453125 -24.320312 38.453125 -20.03125 C 38.453125 -15.738281 37.695312 -12.039062 36.1875 -8.9375 C 34.6875 -5.84375 32.601562 -3.453125 29.9375 -1.765625 C 27.269531 -0.0859375 24.179688 0.75 20.671875 0.75 Z M 20.671875 -6.125 C 23.648438 -6.125 26.003906 -7.382812 27.734375 -9.90625 C 29.472656 -12.425781 30.34375 -15.800781 30.34375 -20.03125 C 30.34375 -24.289062 29.472656 -27.628906 27.734375 -30.046875 C 26.003906 -32.460938 23.648438 -33.671875 20.671875 -33.671875 C 17.734375 -33.671875 15.390625 -32.460938 13.640625 -30.046875 C 11.890625 -27.628906 11.015625 -24.289062 11.015625 -20.03125 C 11.015625 -15.800781 11.890625 -12.425781 13.640625 -9.90625 C 15.390625 -7.382812 17.734375 -6.125 20.671875 -6.125 Z M 20.671875 -6.125 "/></g></g></g><g fill="#000000" fill-opacity="1"><g transform="translate(327.607801, 59.250516)"><g><path d="M 12.5625 10.84375 C 10.0625 6.695312 8.101562 2.378906 6.6875 -2.109375 C 5.269531 -6.609375 4.5625 -11.5625 4.5625 -16.96875 C 4.5625 -22.300781 5.269531 -27.234375 6.6875 -31.765625 C 8.101562 -36.296875 10.0625 -40.617188 12.5625 -44.734375 L 17.5 -42.640625 C 15.25 -38.734375 13.59375 -34.566406 12.53125 -30.140625 C 11.476562 -25.722656 10.953125 -21.332031 10.953125 -16.96875 C 10.953125 -12.53125 11.476562 -8.117188 12.53125 -3.734375 C 13.59375 0.648438 15.25 4.8125 17.5 8.75 Z M 12.5625 10.84375 "/></g></g></g><g fill="#000000" fill-opacity="1"><g transform="translate(349.355367, 59.250516)"><g><path d="M 4.890625 0 L 4.890625 -39.734375 L 15.78125 -39.734375 C 19.832031 -39.734375 23.328125 -39.023438 26.265625 -37.609375 C 29.203125 -36.203125 31.460938 -34.039062 33.046875 -31.125 C 34.640625 -28.207031 35.4375 -24.507812 35.4375 -20.03125 C 35.4375 -15.59375 34.648438 -11.882812 33.078125 -8.90625 C 31.503906 -5.9375 29.273438 -3.707031 26.390625 -2.21875 C 23.515625 -0.738281 20.125 0 16.21875 0 Z M 12.828125 -6.390625 L 15.3125 -6.390625 C 19.03125 -6.390625 21.960938 -7.453125 24.109375 -9.578125 C 26.253906 -11.710938 27.328125 -15.195312 27.328125 -20.03125 C 27.328125 -23.289062 26.832031 -25.894531 25.84375 -27.84375 C 24.863281 -29.789062 23.476562 -31.203125 21.6875 -32.078125 C 19.90625 -32.960938 17.78125 -33.40625 15.3125 -33.40625 L 12.828125 -33.40625 Z M 12.828125 -6.390625 "/></g></g></g><g fill="#000000" fill-opacity="1"><g transform="translate(389.144985, 59.250516)"><g><path d="M 11.015625 0 L 0.75 -30.078125 L 8.703125 -30.078125 L 13.109375 -15.09375 C 13.492188 -13.625 13.890625 -12.117188 14.296875 -10.578125 C 14.710938 -9.035156 15.117188 -7.5 15.515625 -5.96875 L 15.78125 -5.96875 C 16.175781 -7.5 16.578125 -9.035156 16.984375 -10.578125 C 17.398438 -12.117188 17.804688 -13.625 18.203125 -15.09375 L 22.609375 -30.078125 L 30.1875 -30.078125 L 20.140625 0 Z M 11.015625 0 "/></g></g></g><g fill="#000000" fill-opacity="1"><g transform="translate(421.524472, 59.250516)"><g><path d="M 7.671875 10.84375 L 2.796875 8.75 C 5.046875 4.8125 6.695312 0.648438 7.75 -3.734375 C 8.8125 -8.117188 9.34375 -12.53125 9.34375 -16.96875 C 9.34375 -21.332031 8.8125 -25.722656 7.75 -30.140625 C 6.695312 -34.566406 5.046875 -38.734375 2.796875 -42.640625 L 7.671875 -44.734375 C 10.222656 -40.617188 12.203125 -36.296875 13.609375 -31.765625 C 15.023438 -27.234375 15.734375 -22.300781 15.734375 -16.96875 C 15.734375 -11.5625 15.023438 -6.609375 13.609375 -2.109375 C 12.203125 2.378906 10.222656 6.695312 7.671875 10.84375 Z M 7.671875 10.84375 "/></g></g></g><g fill="#000000" fill-opacity="1"><g transform="translate(443.272039, 59.250516)"><g/></g></g><g fill="#000000" fill-opacity="1"><g transform="translate(456.911416, 59.250516)"><g><path d="M 4.890625 0 L 4.890625 -39.734375 L 12.828125 -39.734375 L 12.828125 -24.109375 L 27.875 -24.109375 L 27.875 -39.734375 L 35.765625 -39.734375 L 35.765625 0 L 27.875 0 L 27.875 -17.1875 L 12.828125 -17.1875 L 12.828125 0 Z M 4.890625 0 "/></g></g></g><g fill="#000000" fill-opacity="1"><g transform="translate(499.010003, 59.250516)"><g><path d="M 8.703125 0.75 C 7.304688 0.75 6.140625 0.25 5.203125 -0.75 C 4.273438 -1.75 3.8125 -2.96875 3.8125 -4.40625 C 3.8125 -5.875 4.273438 -7.097656 5.203125 -8.078125 C 6.140625 -9.066406 7.304688 -9.5625 8.703125 -9.5625 C 10.128906 -9.5625 11.304688 -9.066406 12.234375 -8.078125 C 13.171875 -7.097656 13.640625 -5.875 13.640625 -4.40625 C 13.640625 -2.96875 13.171875 -1.75 12.234375 -0.75 C 11.304688 0.25 10.128906 0.75 8.703125 0.75 Z M 8.703125 0.75 "/></g></g></g><g fill="#000000" fill-opacity="1"><g transform="translate(517.911642, 59.250516)"><g><path d="M 4.890625 0 L 4.890625 -39.734375 L 12.828125 -39.734375 L 12.828125 -22.5 L 13 -22.5 L 26.15625 -39.734375 L 34.90625 -39.734375 L 22.765625 -24.109375 L 37.0625 0 L 28.296875 0 L 18.046875 -17.828125 L 12.828125 -11.171875 L 12.828125 0 Z M 4.890625 0 "/></g></g></g><g fill="#000000" fill-opacity="1"><g transform="translate(556.197781, 59.250516)"><g><path d="M 12.5625 10.84375 C 10.0625 6.695312 8.101562 2.378906 6.6875 -2.109375 C 5.269531 -6.609375 4.5625 -11.5625 4.5625 -16.96875 C 4.5625 -22.300781 5.269531 -27.234375 6.6875 -31.765625 C 8.101562 -36.296875 10.0625 -40.617188 12.5625 -44.734375 L 17.5 -42.640625 C 15.25 -38.734375 13.59375 -34.566406 12.53125 -30.140625 C 11.476562 -25.722656 10.953125 -21.332031 10.953125 -16.96875 C 10.953125 -12.53125 11.476562 -8.117188 12.53125 -3.734375 C 13.59375 0.648438 15.25 4.8125 17.5 8.75 Z M 12.5625 10.84375 "/></g></g></g><g fill="#000000" fill-opacity="1"><g transform="translate(577.945347, 59.250516)"><g><path d="M 4.890625 0 L 4.890625 -39.734375 L 15.78125 -39.734375 C 19.832031 -39.734375 23.328125 -39.023438 26.265625 -37.609375 C 29.203125 -36.203125 31.460938 -34.039062 33.046875 -31.125 C 34.640625 -28.207031 35.4375 -24.507812 35.4375 -20.03125 C 35.4375 -15.59375 34.648438 -11.882812 33.078125 -8.90625 C 31.503906 -5.9375 29.273438 -3.707031 26.390625 -2.21875 C 23.515625 -0.738281 20.125 0 16.21875 0 Z M 12.828125 -6.390625 L 15.3125 -6.390625 C 19.03125 -6.390625 21.960938 -7.453125 24.109375 -9.578125 C 26.253906 -11.710938 27.328125 -15.195312 27.328125 -20.03125 C 27.328125 -23.289062 26.832031 -25.894531 25.84375 -27.84375 C 24.863281 -29.789062 23.476562 -31.203125 21.6875 -32.078125 C 19.90625 -32.960938 17.78125 -33.40625 15.3125 -33.40625 L 12.828125 -33.40625 Z M 12.828125 -6.390625 "/></g></g></g><g fill="#000000" fill-opacity="1"><g transform="translate(617.734965, 59.250516)"><g><path d="M 11.015625 0 L 0.75 -30.078125 L 8.703125 -30.078125 L 13.109375 -15.09375 C 13.492188 -13.625 13.890625 -12.117188 14.296875 -10.578125 C 14.710938 -9.035156 15.117188 -7.5 15.515625 -5.96875 L 15.78125 -5.96875 C 16.175781 -7.5 16.578125 -9.035156 16.984375 -10.578125 C 17.398438 -12.117188 17.804688 -13.625 18.203125 -15.09375 L 22.609375 -30.078125 L 30.1875 -30.078125 L 20.140625 0 Z M 11.015625 0 "/></g></g></g><g fill="#000000" fill-opacity="1"><g transform="translate(650.114486, 59.250516)"><g><path d="M 7.671875 10.84375 L 2.796875 8.75 C 5.046875 4.8125 6.695312 0.648438 7.75 -3.734375 C 8.8125 -8.117188 9.34375 -12.53125 9.34375 -16.96875 C 9.34375 -21.332031 8.8125 -25.722656 7.75 -30.140625 C 6.695312 -34.566406 5.046875 -38.734375 2.796875 -42.640625 L 7.671875 -44.734375 C 10.222656 -40.617188 12.203125 -36.296875 13.609375 -31.765625 C 15.023438 -27.234375 15.734375 -22.300781 15.734375 -16.96875 C 15.734375 -11.5625 15.023438 -6.609375 13.609375 -2.109375 C 12.203125 2.378906 10.222656 6.695312 7.671875 10.84375 Z M 7.671875 10.84375 "/></g></g></g><g fill="#000000" fill-opacity="1"><g transform="translate(671.862018, 59.250516)"><g/></g></g><g fill="#000000" fill-opacity="1"><g transform="translate(685.501363, 59.250516)"><g><path d="M 12.359375 -16.375 L 21.796875 -16.375 L 20.625 -20.734375 C 20.007812 -22.804688 19.425781 -24.953125 18.875 -27.171875 C 18.320312 -29.390625 17.738281 -31.570312 17.125 -33.71875 L 16.921875 -33.71875 C 16.421875 -31.539062 15.882812 -29.347656 15.3125 -27.140625 C 14.738281 -24.941406 14.144531 -22.804688 13.53125 -20.734375 Z M 26.3125 0 L 23.515625 -10.203125 L 10.640625 -10.203125 L 7.84375 0 L -0.21875 0 L 12.515625 -39.734375 L 21.859375 -39.734375 L 34.640625 0 Z M 26.3125 0 "/></g></g></g><g fill="#000000" fill-opacity="1"><g transform="translate(721.371135, 59.250516)"><g><path d="M 8.703125 0.75 C 7.304688 0.75 6.140625 0.25 5.203125 -0.75 C 4.273438 -1.75 3.8125 -2.96875 3.8125 -4.40625 C 3.8125 -5.875 4.273438 -7.097656 5.203125 -8.078125 C 6.140625 -9.066406 7.304688 -9.5625 8.703125 -9.5625 C 10.128906 -9.5625 11.304688 -9.066406 12.234375 -8.078125 C 13.171875 -7.097656 13.640625 -5.875 13.640625 -4.40625 C 13.640625 -2.96875 13.171875 -1.75 12.234375 -0.75 C 11.304688 0.25 10.128906 0.75 8.703125 0.75 Z M 8.703125 0.75 "/></g></g></g><g fill="#000000" fill-opacity="1"><g transform="translate(740.27274, 59.250516)"><g><path d="M 4.890625 0 L 4.890625 -39.734375 L 12.828125 -39.734375 L 12.828125 -22.5 L 13 -22.5 L 26.15625 -39.734375 L 34.90625 -39.734375 L 22.765625 -24.109375 L 37.0625 0 L 28.296875 0 L 18.046875 -17.828125 L 12.828125 -11.171875 L 12.828125 0 Z M 4.890625 0 "/></g></g></g><g fill="#000000" fill-opacity="1"><g transform="translate(778.558846, 59.250516)"><g><path d="M 12.5625 10.84375 C 10.0625 6.695312 8.101562 2.378906 6.6875 -2.109375 C 5.269531 -6.609375 4.5625 -11.5625 4.5625 -16.96875 C 4.5625 -22.300781 5.269531 -27.234375 6.6875 -31.765625 C 8.101562 -36.296875 10.0625 -40.617188 12.5625 -44.734375 L 17.5 -42.640625 C 15.25 -38.734375 13.59375 -34.566406 12.53125 -30.140625 C 11.476562 -25.722656 10.953125 -21.332031 10.953125 -16.96875 C 10.953125 -12.53125 11.476562 -8.117188 12.53125 -3.734375 C 13.59375 0.648438 15.25 4.8125 17.5 8.75 Z M 12.5625 10.84375 "/></g></g></g><g fill="#000000" fill-opacity="1"><g transform="translate(800.306379, 59.250516)"><g><path d="M 12.359375 -16.375 L 21.796875 -16.375 L 20.625 -20.734375 C 20.007812 -22.804688 19.425781 -24.953125 18.875 -27.171875 C 18.320312 -29.390625 17.738281 -31.570312 17.125 -33.71875 L 16.921875 -33.71875 C 16.421875 -31.539062 15.882812 -29.347656 15.3125 -27.140625 C 14.738281 -24.941406 14.144531 -22.804688 13.53125 -20.734375 Z M 26.3125 0 L 23.515625 -10.203125 L 10.640625 -10.203125 L 7.84375 0 L -0.21875 0 L 12.515625 -39.734375 L 21.859375 -39.734375 L 34.640625 0 Z M 26.3125 0 "/></g></g></g><g fill="#000000" fill-opacity="1"><g transform="translate(836.176151, 59.250516)"><g><path d="M 14.828125 0.75 C 12.347656 0.75 10.1875 0.125 8.34375 -1.125 C 6.5 -2.375 5.066406 -4.179688 4.046875 -6.546875 C 3.035156 -8.910156 2.53125 -11.722656 2.53125 -14.984375 C 2.53125 -18.273438 3.128906 -21.101562 4.328125 -23.46875 C 5.523438 -25.832031 7.085938 -27.648438 9.015625 -28.921875 C 10.953125 -30.191406 12.992188 -30.828125 15.140625 -30.828125 C 16.828125 -30.828125 18.25 -30.53125 19.40625 -29.9375 C 20.570312 -29.34375 21.691406 -28.546875 22.765625 -27.546875 L 22.453125 -32.28125 L 22.453125 -42.859375 L 30.34375 -42.859375 L 30.34375 0 L 23.953125 0 L 23.3125 -3.109375 L 23.140625 -3.109375 C 22.035156 -2.035156 20.765625 -1.125 19.328125 -0.375 C 17.898438 0.375 16.398438 0.75 14.828125 0.75 Z M 16.859375 -5.75 C 17.898438 -5.75 18.875 -5.988281 19.78125 -6.46875 C 20.695312 -6.957031 21.585938 -7.753906 22.453125 -8.859375 L 22.453125 -22.078125 C 21.554688 -22.898438 20.632812 -23.476562 19.6875 -23.8125 C 18.738281 -24.15625 17.796875 -24.328125 16.859375 -24.328125 C 15.179688 -24.328125 13.722656 -23.539062 12.484375 -21.96875 C 11.253906 -20.394531 10.640625 -18.101562 10.640625 -15.09375 C 10.640625 -11.976562 11.179688 -9.640625 12.265625 -8.078125 C 13.359375 -6.523438 14.890625 -5.75 16.859375 -5.75 Z M 16.859375 -5.75 "/></g></g></g><g fill="#000000" fill-opacity="1"><g transform="translate(872.207021, 59.250516)"><g><path d="M 7.671875 10.84375 L 2.796875 8.75 C 5.046875 4.8125 6.695312 0.648438 7.75 -3.734375 C 8.8125 -8.117188 9.34375 -12.53125 9.34375 -16.96875 C 9.34375 -21.332031 8.8125 -25.722656 7.75 -30.140625 C 6.695312 -34.566406 5.046875 -38.734375 2.796875 -42.640625 L 7.671875 -44.734375 C 10.222656 -40.617188 12.203125 -36.296875 13.609375 -31.765625 C 15.023438 -27.234375 15.734375 -22.300781 15.734375 -16.96875 C 15.734375 -11.5625 15.023438 -6.609375 13.609375 -2.109375 C 12.203125 2.378906 10.222656 6.695312 7.671875 10.84375 Z M 7.671875 10.84375 "/></g></g></g></svg>