<svg xmlns="http://www.w3.org/2000/svg" xmlns:xlink="http://www.w3.org/1999/xlink" width="793" zoomAndPan="magnify" viewBox="0 0 595.5 842.249979" height="1122" preserveAspectRatio="xMidYMid meet" version="1.0"><defs><filter x="0%" y="0%" width="100%" height="100%" id="ed8b583ecb"><feColorMatrix values="0 0 0 0 1 0 0 0 0 1 0 0 0 0 1 0 0 0 1 0" color-interpolation-filters="sRGB"/></filter><clipPath id="c148d75fe6"><path d="M 505.550781 98.148438 L 594.984375 98.148438 L 594.984375 276.574219 L 505.550781 276.574219 Z M 505.550781 98.148438 " clip-rule="nonzero"/></clipPath><clipPath id="b3b1612d2b"><path d="M 594.761719 98.148438 C 545.492188 98.148438 505.550781 138.09375 505.550781 187.363281 C 505.550781 236.632812 545.492188 276.574219 594.761719 276.574219 C 644.03125 276.574219 683.972656 236.632812 683.972656 187.363281 C 683.972656 138.09375 644.03125 98.148438 594.761719 98.148438 Z M 594.761719 98.148438 " clip-rule="nonzero"/></clipPath><clipPath id="000f5dceaa"><path d="M 0.015625 596.222656 L 162.734375 596.222656 L 162.734375 832.492188 L 0.015625 832.492188 Z M 0.015625 596.222656 " clip-rule="nonzero"/></clipPath><clipPath id="7c0126f55c"><path d="M 44.601562 596.222656 C -20.640625 596.222656 -73.53125 649.113281 -73.53125 714.359375 C -73.53125 779.601562 -20.640625 832.492188 44.601562 832.492188 C 109.847656 832.492188 162.734375 779.601562 162.734375 714.359375 C 162.734375 649.113281 109.847656 596.222656 44.601562 596.222656 Z M 44.601562 596.222656 " clip-rule="nonzero"/></clipPath><clipPath id="9d39647076"><path d="M 59.488281 295.722656 L 118.386719 295.722656 L 118.386719 354.617188 L 59.488281 354.617188 Z M 59.488281 295.722656 " clip-rule="nonzero"/></clipPath><clipPath id="2b08126edf"><path d="M 88.9375 295.722656 C 72.675781 295.722656 59.488281 308.90625 59.488281 325.167969 C 59.488281 341.433594 72.675781 354.617188 88.9375 354.617188 C 105.203125 354.617188 118.386719 341.433594 118.386719 325.167969 C 118.386719 308.90625 105.203125 295.722656 88.9375 295.722656 Z M 88.9375 295.722656 " clip-rule="nonzero"/></clipPath><clipPath id="4c92522130"><path d="M 480.824219 214.035156 L 562.507812 214.035156 L 562.507812 295.722656 L 480.824219 295.722656 Z M 480.824219 214.035156 " clip-rule="nonzero"/></clipPath><clipPath id="2db6a6f7ba"><path d="M 521.664062 214.035156 C 499.109375 214.035156 480.824219 232.320312 480.824219 254.878906 C 480.824219 277.4375 499.109375 295.722656 521.664062 295.722656 C 544.222656 295.722656 562.507812 277.4375 562.507812 254.878906 C 562.507812 232.320312 544.222656 214.035156 521.664062 214.035156 Z M 521.664062 214.035156 " clip-rule="nonzero"/></clipPath><clipPath id="9aa8399414"><path d="M 0.015625 0 L 119 0 L 119 129.746094 L 0.015625 129.746094 Z M 0.015625 0 " clip-rule="nonzero"/></clipPath><clipPath id="8ac204deae"><path d="M 44.601562 -10.796875 C 3.578125 -10.796875 -29.679688 20.664062 -29.679688 59.472656 C -29.679688 98.285156 3.578125 129.746094 44.601562 129.746094 C 85.628906 129.746094 118.882812 98.285156 118.882812 59.472656 C 118.882812 20.664062 85.628906 -10.796875 44.601562 -10.796875 Z M 44.601562 -10.796875 " clip-rule="nonzero"/></clipPath><clipPath id="5628d5ef62"><path d="M 457.976562 574.058594 L 594.984375 574.058594 L 594.984375 757.511719 L 457.976562 757.511719 Z M 457.976562 574.058594 " clip-rule="nonzero"/></clipPath><clipPath id="8971c7a2ec"><path d="M 549.703125 574.058594 C 499.042969 574.058594 457.976562 615.125 457.976562 665.785156 C 457.976562 716.445312 499.042969 757.511719 549.703125 757.511719 C 600.363281 757.511719 641.429688 716.445312 641.429688 665.785156 C 641.429688 615.125 600.363281 574.058594 549.703125 574.058594 Z M 549.703125 574.058594 " clip-rule="nonzero"/></clipPath><clipPath id="4e659e9937"><path d="M 59.488281 555.675781 L 187.042969 555.675781 L 187.042969 683.230469 L 59.488281 683.230469 Z M 59.488281 555.675781 " clip-rule="nonzero"/></clipPath><clipPath id="d5847b3aee"><path d="M 123.265625 555.675781 C 88.042969 555.675781 59.488281 584.230469 59.488281 619.453125 C 59.488281 654.675781 88.042969 683.230469 123.265625 683.230469 C 158.488281 683.230469 187.042969 654.675781 187.042969 619.453125 C 187.042969 584.230469 158.488281 555.675781 123.265625 555.675781 Z M 123.265625 555.675781 " clip-rule="nonzero"/></clipPath><clipPath id="4e7102e796"><path d="M 354.601562 462.320312 L 413.496094 462.320312 L 413.496094 521.21875 L 354.601562 521.21875 Z M 354.601562 462.320312 " clip-rule="nonzero"/></clipPath><clipPath id="934bec4177"><path d="M 384.050781 462.320312 C 367.785156 462.320312 354.601562 475.503906 354.601562 491.769531 C 354.601562 508.03125 367.785156 521.21875 384.050781 521.21875 C 400.3125 521.21875 413.496094 508.03125 413.496094 491.769531 C 413.496094 475.503906 400.3125 462.320312 384.050781 462.320312 Z M 384.050781 462.320312 " clip-rule="nonzero"/></clipPath><clipPath id="cf427aee9e"><path d="M 0.015625 0 L 594.984375 0 L 594.984375 841.5 L 0.015625 841.5 Z M 0.015625 0 " clip-rule="nonzero"/></clipPath><mask id="736d7c70e1"><g filter="url(#ed8b583ecb)"><rect x="-59.55" width="714.6" fill="#000000" y="-84.224998" height="1010.699974" fill-opacity="0.64"/></g></mask><clipPath id="52e53f93a9"><path d="M 0.015625 0 L 591 0 L 591 841.5 L 0.015625 841.5 Z M 0.015625 0 " clip-rule="nonzero"/></clipPath><clipPath id="da61cd9b54"><path d="M 0.015625 0 L 594.753906 0 L 594.753906 841.5 L 0.015625 841.5 Z M 0.015625 0 " clip-rule="nonzero"/></clipPath><clipPath id="ffda44656e"><rect x="0" width="595" y="0" height="842"/></clipPath></defs><g clip-path="url(#c148d75fe6)"><g clip-path="url(#b3b1612d2b)"><path fill="#a2d188" d="M 505.550781 98.148438 L 683.972656 98.148438 L 683.972656 276.574219 L 505.550781 276.574219 Z M 505.550781 98.148438 " fill-opacity="1" fill-rule="nonzero"/></g></g><g clip-path="url(#000f5dceaa)"><g clip-path="url(#7c0126f55c)"><path fill="#fae099" d="M -73.53125 596.222656 L 162.734375 596.222656 L 162.734375 832.492188 L -73.53125 832.492188 Z M -73.53125 596.222656 " fill-opacity="1" fill-rule="nonzero"/></g></g><g clip-path="url(#9d39647076)"><g clip-path="url(#2b08126edf)"><path fill="#d9bb97" d="M 59.488281 295.722656 L 118.386719 295.722656 L 118.386719 354.617188 L 59.488281 354.617188 Z M 59.488281 295.722656 " fill-opacity="1" fill-rule="nonzero"/></g></g><g clip-path="url(#4c92522130)"><g clip-path="url(#2db6a6f7ba)"><path fill="#fae099" d="M 480.824219 214.035156 L 562.507812 214.035156 L 562.507812 295.722656 L 480.824219 295.722656 Z M 480.824219 214.035156 " fill-opacity="1" fill-rule="nonzero"/></g></g><g clip-path="url(#9aa8399414)"><g clip-path="url(#8ac204deae)"><path fill="#f4c4c6" d="M -29.679688 -10.796875 L 119.101562 -10.796875 L 119.101562 129.746094 L -29.679688 129.746094 Z M -29.679688 -10.796875 " fill-opacity="1" fill-rule="nonzero"/></g></g><g clip-path="url(#5628d5ef62)"><g clip-path="url(#8971c7a2ec)"><path fill="#a0daea" d="M 457.976562 574.058594 L 641.429688 574.058594 L 641.429688 757.511719 L 457.976562 757.511719 Z M 457.976562 574.058594 " fill-opacity="1" fill-rule="nonzero"/></g></g><g clip-path="url(#4e659e9937)"><g clip-path="url(#d5847b3aee)"><path fill="#a0daea" d="M 59.488281 555.675781 L 187.042969 555.675781 L 187.042969 683.230469 L 59.488281 683.230469 Z M 59.488281 555.675781 " fill-opacity="1" fill-rule="nonzero"/></g></g><g clip-path="url(#4e7102e796)"><g clip-path="url(#934bec4177)"><path fill="#f4c4c6" d="M 354.601562 462.320312 L 413.496094 462.320312 L 413.496094 521.21875 L 354.601562 521.21875 Z M 354.601562 462.320312 " fill-opacity="1" fill-rule="nonzero"/></g></g><g clip-path="url(#cf427aee9e)"><g mask="url(#736d7c70e1)"><g transform="matrix(1, 0, 0, 1, -0.000000000000000002, 0)"><g clip-path="url(#ffda44656e)"><g clip-path="url(#52e53f93a9)"><path fill="#ffffff" d="M 590.769531 -238.847656 L 590.769531 847.261719 L 0.75 847.261719 L 0.75 -238.847656 Z M 590.769531 -238.847656 " fill-opacity="1" fill-rule="nonzero"/></g><g clip-path="url(#da61cd9b54)"><path fill="#ffffff" d="M -3.234375 847.261719 L -3.234375 -238.847656 C -3.234375 -241.082031 -1.480469 -242.835938 0.75 -242.835938 L 590.769531 -242.835938 C 593 -242.835938 594.753906 -241.082031 594.753906 -238.847656 L 594.753906 847.261719 C 594.753906 849.496094 593 851.25 590.769531 851.25 L 0.75 851.25 C -1.480469 851.25 -3.234375 849.496094 -3.234375 847.261719 Z M 4.738281 -234.863281 L 4.738281 843.277344 L 586.78125 843.277344 L 586.78125 -234.863281 Z M 4.738281 -234.863281 " fill-opacity="1" fill-rule="nonzero"/></g></g></g></g></g></svg>