<svg xmlns="http://www.w3.org/2000/svg" xmlns:xlink="http://www.w3.org/1999/xlink" width="500" zoomAndPan="magnify" viewBox="0 0 375 374.999991" height="500" preserveAspectRatio="xMidYMid meet" version="1.0"><defs><clipPath id="f3c0902a1b"><path d="M 11 21 L 345.960938 21 L 345.960938 354 L 11 354 Z M 11 21 " clip-rule="nonzero"/></clipPath><clipPath id="954083b44e"><path d="M 10.710938 20.769531 L 345.960938 20.769531 L 345.960938 354.519531 L 10.710938 354.519531 Z M 10.710938 20.769531 " clip-rule="nonzero"/></clipPath><clipPath id="9c15a1032f"><path d="M 47.0625 163 L 74 163 L 74 181 L 47.0625 181 Z M 47.0625 163 " clip-rule="nonzero"/></clipPath><clipPath id="6a2afef3c6"><path d="M 282 152 L 309.5625 152 L 309.5625 172 L 282 172 Z M 282 152 " clip-rule="nonzero"/></clipPath></defs><rect x="-37.5" width="450" fill="#ffffff" y="-37.499999" height="449.999989" fill-opacity="1"/><rect x="-37.5" width="450" fill="#ffffff" y="-37.499999" height="449.999989" fill-opacity="1"/><g clip-path="url(#f3c0902a1b)"><path fill="#fae099" d="M 345.667969 190.003906 C 345.683594 189.167969 345.6875 188.328125 345.6875 187.351562 L 345.6875 187.058594 C 345.6875 177.851562 338.449219 170.332031 329.351562 169.894531 C 338.09375 167.386719 343.429688 158.441406 341.347656 149.484375 C 341.15625 148.652344 340.957031 147.828125 340.753906 147.011719 C 338.527344 138.082031 329.691406 132.542969 320.769531 134.300781 C 328.660156 129.769531 331.695312 119.789062 327.511719 111.59375 C 327.132812 110.84375 326.742188 110.09375 326.351562 109.351562 C 322.054688 101.234375 312.167969 97.976562 303.921875 101.808594 C 310.480469 95.515625 311.03125 85.121094 305.019531 78.167969 C 304.472656 77.535156 303.917969 76.902344 303.359375 76.277344 C 297.238281 69.40625 286.84375 68.601562 279.761719 74.304688 C 284.648438 66.648438 282.722656 56.417969 275.234375 51.085938 C 274.542969 50.585938 273.84375 50.097656 273.140625 49.613281 C 265.554688 44.398438 255.261719 46.105469 249.742188 53.347656 C 252.671875 44.714844 248.332031 35.21875 239.757812 31.835938 C 238.976562 31.53125 238.191406 31.230469 237.402344 30.933594 C 228.78125 27.683594 219.179688 31.816406 215.566406 40.183594 C 216.335938 31.105469 209.839844 22.921875 200.710938 21.710938 C 199.875 21.601562 199.039062 21.492188 198.203125 21.394531 C 189.09375 20.339844 180.777344 26.601562 179.25 35.558594 C 177.816406 26.589844 169.589844 20.214844 160.449219 21.191406 C 159.605469 21.285156 158.769531 21.378906 157.933594 21.480469 C 148.804688 22.597656 142.230469 30.6875 142.882812 39.757812 C 139.347656 31.375 129.816406 27.160156 121.171875 30.296875 C 120.375 30.589844 119.582031 30.886719 118.785156 31.191406 C 110.210938 34.472656 105.777344 43.878906 108.570312 52.515625 C 103.117188 45.261719 92.878906 43.464844 85.253906 48.582031 C 84.550781 49.050781 83.855469 49.523438 83.164062 50.007812 C 75.609375 55.25 73.5625 65.460938 78.359375 73.183594 C 71.335938 67.414062 60.949219 68.101562 54.757812 74.890625 C 54.1875 75.515625 53.625 76.144531 53.066406 76.78125 C 46.972656 83.675781 47.417969 94.097656 53.933594 100.449219 C 45.722656 96.5 35.789062 99.652344 31.394531 107.734375 C 30.988281 108.476562 30.589844 109.230469 30.195312 109.976562 C 25.925781 118.144531 28.855469 128.15625 36.714844 132.765625 C 27.796875 130.898438 18.890625 136.34375 16.566406 145.265625 C 16.355469 146.078125 16.148438 146.898438 15.945312 147.71875 C 13.769531 156.648438 19.007812 165.660156 27.71875 168.253906 C 18.640625 168.601562 11.324219 176.015625 11.199219 185.207031 C 11.191406 185.964844 11.1875 186.726562 11.1875 187.484375 L 11.1875 187.699219 C 11.1875 197.011719 18.59375 204.492188 27.839844 204.773438 C 18.890625 207.128906 13.378906 216.1875 15.472656 225.261719 C 15.664062 226.085938 15.859375 226.90625 16.0625 227.722656 C 18.273438 236.65625 27.085938 242.214844 36.027344 240.46875 C 28.125 244.988281 25.085938 254.964844 29.257812 263.171875 C 29.636719 263.917969 30.023438 264.667969 30.414062 265.410156 C 34.707031 273.539062 44.585938 276.808594 52.832031 272.988281 C 46.253906 279.273438 45.699219 289.675781 51.707031 296.632812 C 52.253906 297.265625 52.804688 297.902344 53.363281 298.527344 C 59.472656 305.398438 69.859375 306.214844 76.953125 300.523438 C 72.046875 308.191406 73.976562 318.441406 81.476562 323.773438 C 82.160156 324.261719 82.839844 324.742188 83.527344 325.214844 C 91.113281 330.453125 101.410156 328.761719 106.941406 321.527344 C 104 330.148438 108.324219 339.652344 116.890625 343.046875 C 117.671875 343.355469 118.460938 343.660156 119.25 343.953125 C 127.871094 347.21875 137.472656 343.097656 141.101562 334.730469 C 140.316406 343.808594 146.796875 352.003906 155.929688 353.234375 C 156.765625 353.34375 157.601562 353.449219 158.441406 353.550781 C 167.570312 354.640625 175.867188 348.367188 177.410156 339.40625 C 178.734375 347.777344 185.976562 353.898438 194.363281 353.898438 C 194.96875 353.898438 195.578125 353.867188 196.191406 353.800781 C 197.027344 353.710938 197.867188 353.617188 198.703125 353.519531 C 207.832031 352.410156 214.421875 344.332031 213.78125 335.257812 C 217.308594 343.648438 226.835938 347.886719 235.484375 344.746094 C 236.28125 344.457031 237.070312 344.164062 237.855469 343.867188 C 246.445312 340.601562 250.894531 331.199219 248.117188 322.550781 C 253.5625 329.828125 263.8125 331.632812 271.445312 326.507812 C 272.136719 326.046875 272.828125 325.574219 273.507812 325.101562 C 281.074219 319.867188 283.140625 309.660156 278.355469 301.925781 C 285.378906 307.710938 295.773438 307.03125 301.96875 300.230469 C 302.535156 299.617188 303.09375 298.996094 303.644531 298.375 C 309.753906 291.484375 309.328125 281.0625 302.820312 274.691406 C 311.015625 278.648438 320.960938 275.515625 325.371094 267.441406 C 325.777344 266.699219 326.175781 265.953125 326.566406 265.210938 C 330.855469 257.054688 327.941406 247.027344 320.085938 242.402344 C 329.003906 244.285156 337.917969 238.851562 340.25 229.9375 C 340.464844 229.117188 340.671875 228.304688 340.875 227.480469 C 343.066406 218.554688 337.84375 209.535156 329.132812 206.925781 C 338.207031 206.597656 345.535156 199.195312 345.667969 190.003906 Z M 345.667969 190.003906 " fill-opacity="1" fill-rule="nonzero"/></g><g clip-path="url(#954083b44e)"><path stroke-linecap="butt" transform="matrix(0.670302, 0, 0, 0.670302, 10.865213, 20.769333)" fill="none" stroke-linejoin="miter" d="M 499.480642 252.475201 C 499.503953 251.228095 499.50978 249.975161 499.50978 248.518261 L 499.50978 248.081192 C 499.50978 234.34554 488.711239 223.127412 475.13876 222.474721 C 488.180927 218.733402 496.141428 205.3882 493.035317 192.025515 C 492.749765 190.784237 492.452558 189.554613 492.149522 188.336645 C 488.827791 175.014753 475.645762 166.751218 462.335525 169.373637 C 474.107275 162.613622 478.63532 147.724106 472.393961 135.497803 C 471.828684 134.378904 471.245924 133.260005 470.663164 132.152761 C 464.252805 120.04301 449.503152 115.182793 437.20109 120.899667 C 446.985629 111.511405 447.80732 96.004164 438.838645 85.631037 C 438.022781 84.686966 437.195262 83.742895 436.361916 82.810479 C 427.230068 72.559732 411.722826 71.359247 401.157389 79.867542 C 408.447716 68.445447 405.574709 53.182965 394.403202 45.228292 C 393.371717 44.48236 392.328576 43.75391 391.279608 43.031287 C 379.962411 35.251442 364.606687 37.798103 356.372289 48.602472 C 360.742989 35.723478 354.268526 21.556584 341.476946 16.509884 C 340.311426 16.055331 339.140079 15.606606 337.962904 15.163708 C 325.101392 10.315146 310.777154 16.480746 305.386624 28.963463 C 306.534661 15.420123 296.843364 3.211302 283.224265 1.404747 C 281.977159 1.241574 280.730052 1.078401 279.482946 0.932711 C 265.892985 -0.640741 253.486026 8.700901 251.207435 22.063586 C 249.068706 8.683418 236.795782 -0.827224 223.1592 0.629676 C 221.900439 0.769538 220.653333 0.909401 219.406226 1.060918 C 205.787127 2.727612 195.979278 14.796569 196.952487 28.328255 C 191.678509 15.822227 177.459168 9.534247 164.562691 14.213809 C 163.37386 14.650879 162.190858 15.093777 161.002027 15.54833 C 148.210447 20.443513 141.596122 34.476372 145.762856 47.361194 C 137.627527 36.539342 122.35339 33.858646 110.977916 41.492801 C 109.928948 42.192113 108.891636 42.897253 107.860151 43.619875 C 96.589574 51.440513 93.535912 66.673857 100.692204 78.195021 C 90.21418 69.587657 74.718594 70.613314 65.48185 80.741682 C 64.63102 81.674097 63.791846 82.612341 62.958499 83.56224 C 53.867444 93.847952 54.531791 109.395987 64.252226 118.871663 C 52.002613 112.97996 37.183028 117.682833 30.626979 129.740135 C 30.020909 130.847379 29.426494 131.972106 28.837906 133.085177 C 22.46834 145.270687 26.83904 160.206824 38.564169 167.083391 C 25.25976 164.297798 11.972834 172.421472 8.505413 185.731708 C 8.190722 186.943849 7.881859 188.167645 7.578824 189.39144 C 4.332852 202.713332 12.147662 216.157603 25.143208 220.027129 C 11.599868 220.545786 0.684774 231.606569 0.498291 245.31891 C 0.486636 246.449464 0.480808 247.585846 0.480808 248.7164 L 0.480808 249.036918 C 0.480808 262.929914 11.529936 274.089767 25.323864 274.509354 C 11.972834 278.023396 3.750092 291.537599 6.873685 305.075111 C 7.159237 306.304735 7.450617 307.528531 7.753652 308.746499 C 11.052073 322.074218 24.199137 330.366892 37.538512 327.761955 C 25.749278 334.504487 21.215406 349.388175 27.439282 361.631961 C 28.004559 362.745033 28.581492 363.863932 29.164252 364.971176 C 35.568783 377.098409 50.306781 381.97611 62.608843 376.276718 C 52.795166 385.653325 51.967647 401.172222 60.930495 411.551176 C 61.746359 412.495247 62.56805 413.445145 63.401397 414.377561 C 72.515762 424.628308 88.011348 425.846276 98.594268 417.355465 C 91.274803 428.795042 94.153637 444.086662 105.342628 452.041335 C 106.362458 452.769785 107.37646 453.486579 108.402117 454.191719 C 119.719315 462.006529 135.080866 459.483179 143.332747 448.690465 C 138.944565 461.551977 145.395717 475.730525 158.175642 480.794709 C 159.341162 481.255089 160.518337 481.709642 161.695512 482.146712 C 174.557023 487.018585 188.881262 480.870468 194.295102 468.38775 C 193.123754 481.931091 202.791741 494.157394 216.416668 495.993088 C 217.663774 496.15626 218.91088 496.313606 220.163814 496.465123 C 233.782913 498.091023 246.160734 488.731899 248.462636 475.363387 C 250.438192 487.851932 261.242561 496.983779 273.754416 496.983779 C 274.657694 496.983779 275.566799 496.937159 276.481733 496.83809 C 277.728839 496.704055 278.981773 496.564192 280.228879 496.418502 C 293.847978 494.763464 303.679138 482.711989 302.723412 469.174476 C 307.985734 481.692159 322.199248 488.015104 335.101553 483.329715 C 336.290383 482.898472 337.467558 482.461402 338.638905 482.018505 C 351.453796 477.146632 358.091431 463.119601 353.948008 450.217296 C 362.071681 461.074113 377.363302 463.766464 388.75043 456.120654 C 389.781915 455.432997 390.813401 454.727858 391.827403 454.022718 C 403.115462 446.213736 406.198262 430.986219 399.059453 419.447573 C 409.537477 428.078247 425.044718 427.064245 434.28729 416.918395 C 435.132292 416.003461 435.965639 415.076873 436.78733 414.150285 C 445.901695 403.8704 445.266487 388.322365 435.557707 378.817551 C 447.78401 384.720909 462.621077 380.047175 469.200437 368.001527 C 469.806507 366.894283 470.400922 365.781212 470.983682 364.673968 C 477.382386 352.505941 473.034997 337.546494 461.315695 330.646617 C 474.620104 333.455519 487.918685 325.349329 491.397762 312.050748 C 491.71828 310.826952 492.027143 309.614811 492.330178 308.385188 C 495.599461 295.069124 487.807961 281.613197 474.812415 277.720361 C 488.349928 277.230843 499.282504 266.187542 499.480642 252.475201 Z M 499.480642 252.475201 " stroke="#ffffff" stroke-width="0.9673" stroke-opacity="1" stroke-miterlimit="10"/><path fill="#fae099" d="M 194.363281 354.226562 C 186.230469 354.226562 179.328125 348.746094 177.398438 340.984375 C 175.386719 348.613281 168.511719 354 160.496094 354 C 159.800781 354 159.097656 353.957031 158.402344 353.875 C 157.5625 353.773438 156.722656 353.667969 155.886719 353.558594 C 147.132812 352.375 140.726562 344.933594 140.710938 336.269531 C 137.667969 341.863281 131.789062 345.398438 125.335938 345.398438 C 123.21875 345.398438 121.132812 345.015625 119.132812 344.257812 C 118.34375 343.960938 117.554688 343.652344 116.769531 343.347656 C 108.5625 340.09375 104.132812 331.335938 106.195312 322.925781 C 102.890625 326.542969 98.269531 328.585938 93.289062 328.585938 C 89.726562 328.585938 86.289062 327.511719 83.34375 325.476562 C 82.660156 325.007812 81.972656 324.523438 81.289062 324.039062 C 74.097656 318.921875 71.890625 309.363281 75.902344 301.691406 C 73.046875 303.585938 69.660156 304.617188 66.214844 304.617188 C 61.214844 304.617188 56.441406 302.472656 53.121094 298.738281 C 52.597656 298.152344 52.078125 297.550781 51.566406 296.957031 L 51.464844 296.835938 C 45.707031 290.171875 45.835938 280.367188 51.539062 273.867188 C 49.644531 274.550781 47.664062 274.898438 45.632812 274.898438 C 39.113281 274.898438 33.171875 271.316406 30.128906 265.554688 C 29.738281 264.8125 29.347656 264.0625 28.96875 263.3125 C 24.96875 255.445312 27.445312 245.953125 34.554688 241.011719 C 33.949219 241.078125 33.339844 241.109375 32.730469 241.109375 C 24.671875 241.109375 17.691406 235.636719 15.75 227.796875 C 15.546875 226.976562 15.351562 226.15625 15.160156 225.328125 C 13.144531 216.601562 17.914062 207.976562 26.144531 204.964844 C 17.449219 203.886719 10.863281 196.597656 10.863281 187.703125 L 10.863281 187.488281 C 10.863281 186.722656 10.871094 185.964844 10.878906 185.203125 C 10.996094 176.394531 17.589844 169.144531 26.164062 168.0625 C 18.125 164.875 13.546875 156.203125 15.632812 147.644531 C 15.835938 146.824219 16.042969 146 16.253906 145.1875 C 18.265625 137.46875 25.234375 132.078125 33.195312 132.078125 C 33.878906 132.078125 34.5625 132.117188 35.242188 132.199219 C 28.1875 127.179688 25.816406 117.65625 29.910156 109.832031 C 30.304688 109.078125 30.703125 108.328125 31.113281 107.582031 C 34.175781 101.9375 40.078125 98.433594 46.507812 98.433594 C 48.621094 98.433594 50.679688 98.804688 52.636719 99.546875 C 47.003906 92.984375 46.984375 83.179688 52.824219 76.566406 C 53.386719 75.933594 53.949219 75.300781 54.523438 74.675781 C 57.832031 71.042969 62.550781 68.960938 67.46875 68.960938 C 70.988281 68.960938 74.4375 70.035156 77.328125 72.003906 C 73.425781 64.292969 75.746094 54.765625 82.980469 49.742188 C 83.675781 49.261719 84.375 48.785156 85.078125 48.3125 C 87.976562 46.367188 91.34375 45.339844 94.824219 45.339844 C 99.792969 45.339844 104.5625 47.480469 107.855469 51.136719 C 105.921875 42.71875 110.457031 34.03125 118.675781 30.886719 C 119.472656 30.585938 120.269531 30.285156 121.066406 29.992188 C 123 29.289062 125.011719 28.9375 127.050781 28.9375 C 133.589844 28.9375 139.503906 32.539062 142.519531 38.230469 C 142.65625 29.578125 149.152344 22.226562 157.902344 21.15625 C 158.734375 21.058594 159.574219 20.964844 160.414062 20.871094 C 161.039062 20.804688 161.675781 20.769531 162.296875 20.769531 C 170.417969 20.769531 177.324219 26.242188 179.261719 33.980469 C 181.261719 26.34375 188.160156 20.953125 196.207031 20.953125 C 196.882812 20.953125 197.5625 20.992188 198.242188 21.070312 C 199.078125 21.171875 199.917969 21.277344 200.753906 21.390625 C 209.511719 22.550781 215.925781 29.980469 215.957031 38.644531 C 218.996094 33.042969 224.878906 29.5 231.34375 29.5 C 233.453125 29.5 235.527344 29.878906 237.519531 30.628906 C 238.308594 30.925781 239.09375 31.230469 239.878906 31.535156 C 248.101562 34.777344 252.542969 43.53125 250.488281 51.949219 C 253.796875 48.316406 258.429688 46.261719 263.421875 46.261719 C 266.96875 46.261719 270.394531 47.328125 273.324219 49.34375 C 274.03125 49.835938 274.730469 50.320312 275.425781 50.824219 C 282.597656 55.929688 284.804688 65.472656 280.8125 73.132812 C 283.671875 71.230469 287.0625 70.195312 290.515625 70.195312 C 295.511719 70.195312 300.28125 72.332031 303.601562 76.058594 C 304.160156 76.6875 304.714844 77.320312 305.265625 77.957031 C 311.023438 84.617188 310.90625 94.421875 305.21875 100.921875 C 307.121094 100.234375 309.109375 99.882812 311.148438 99.882812 C 317.660156 99.882812 323.597656 103.453125 326.640625 109.199219 C 327.03125 109.941406 327.421875 110.695312 327.804688 111.445312 C 331.8125 119.304688 329.347656 128.800781 322.246094 133.75 C 322.859375 133.683594 323.480469 133.652344 324.09375 133.652344 C 332.140625 133.652344 339.121094 139.109375 341.074219 146.929688 C 341.277344 147.753906 341.476562 148.578125 341.667969 149.410156 C 343.660156 157.992188 338.988281 166.609375 330.917969 169.710938 C 339.5 170.882812 346.015625 178.226562 346.015625 187.058594 L 346.015625 187.351562 C 346.015625 188.328125 346.007812 189.171875 345.996094 190.011719 C 345.871094 198.816406 339.265625 206.054688 330.691406 207.125 C 338.726562 210.324219 343.292969 219.003906 341.191406 227.558594 C 340.988281 228.382812 340.78125 229.199219 340.566406 230.023438 C 338.550781 237.71875 331.589844 243.101562 323.640625 243.101562 C 323.640625 243.101562 323.636719 243.101562 323.636719 243.101562 C 322.945312 243.101562 322.25 243.058594 321.558594 242.976562 C 328.613281 248.011719 330.964844 257.542969 326.851562 265.359375 C 326.460938 266.105469 326.058594 266.855469 325.65625 267.597656 C 322.582031 273.226562 316.6875 276.726562 310.265625 276.726562 C 308.144531 276.726562 306.082031 276.347656 304.113281 275.601562 C 309.742188 282.179688 309.742188 291.988281 303.886719 298.589844 C 303.332031 299.214844 302.773438 299.835938 302.210938 300.449219 C 298.898438 304.082031 294.183594 306.164062 289.265625 306.164062 C 285.738281 306.164062 282.28125 305.089844 279.386719 303.109375 C 283.28125 310.832031 280.941406 320.355469 273.695312 325.363281 C 273.007812 325.839844 272.320312 326.308594 271.625 326.777344 C 268.726562 328.722656 265.355469 329.75 261.882812 329.75 C 256.898438 329.75 252.128906 327.601562 248.832031 323.929688 C 250.753906 332.351562 246.199219 341.035156 237.976562 344.164062 C 237.183594 344.460938 236.394531 344.753906 235.601562 345.042969 C 233.667969 345.742188 231.660156 346.097656 229.625 346.097656 C 223.078125 346.097656 217.160156 342.488281 214.148438 336.78125 C 214 345.429688 207.496094 352.769531 198.746094 353.835938 L 198.449219 353.871094 C 197.710938 353.953125 196.96875 354.039062 196.230469 354.117188 C 195.625 354.191406 195 354.226562 194.363281 354.226562 Z M 177.421875 337.421875 L 177.730469 339.359375 C 179.015625 347.464844 186.164062 353.578125 194.363281 353.578125 C 194.976562 353.578125 195.578125 353.546875 196.152344 353.480469 C 196.894531 353.402344 197.636719 353.320312 198.375 353.234375 L 198.667969 353.199219 C 207.59375 352.113281 214.09375 344.246094 213.457031 335.28125 L 213.320312 333.324219 L 214.082031 335.132812 C 216.714844 341.40625 222.816406 345.460938 229.625 345.460938 C 231.582031 345.460938 233.519531 345.117188 235.375 344.441406 C 236.167969 344.15625 236.957031 343.863281 237.742188 343.566406 C 246.128906 340.375 250.550781 331.1875 247.808594 322.652344 L 247.214844 320.808594 L 248.375 322.359375 C 251.535156 326.585938 256.582031 329.109375 261.875 329.109375 C 265.226562 329.109375 268.46875 328.117188 271.261719 326.242188 C 271.953125 325.78125 272.640625 325.308594 273.324219 324.839844 C 280.714844 319.726562 282.804688 309.738281 278.078125 302.101562 L 277.042969 300.433594 L 278.558594 301.679688 C 281.566406 304.15625 285.367188 305.519531 289.269531 305.519531 C 294 305.519531 298.546875 303.515625 301.734375 300.015625 C 302.292969 299.40625 302.851562 298.785156 303.40625 298.164062 C 309.375 291.425781 309.019531 281.21875 302.589844 274.925781 L 301.175781 273.542969 L 302.960938 274.402344 C 305.257812 275.515625 307.71875 276.078125 310.261719 276.078125 C 316.449219 276.078125 322.125 272.710938 325.085938 267.289062 C 325.488281 266.550781 325.886719 265.804688 326.277344 265.0625 C 330.472656 257.085938 327.679688 247.253906 319.917969 242.683594 L 318.207031 241.675781 L 320.148438 242.085938 C 321.296875 242.328125 322.46875 242.449219 323.632812 242.449219 C 331.292969 242.449219 337.996094 237.273438 339.933594 229.855469 C 340.148438 229.039062 340.355469 228.222656 340.558594 227.40625 C 342.699219 218.675781 337.636719 209.816406 329.035156 207.238281 L 327.15625 206.671875 L 329.113281 206.605469 C 338.082031 206.277344 345.214844 198.984375 345.34375 190 C 345.359375 189.164062 345.363281 188.324219 345.363281 187.351562 L 345.363281 187.058594 C 345.363281 178.046875 338.324219 170.652344 329.335938 170.21875 L 327.375 170.121094 L 329.261719 169.582031 C 337.894531 167.105469 343.0625 158.3125 341.03125 149.554688 C 340.839844 148.726562 340.640625 147.902344 340.4375 147.085938 C 338.558594 139.554688 331.835938 134.296875 324.085938 134.296875 C 323 134.296875 321.90625 134.402344 320.832031 134.617188 L 318.902344 134.996094 L 320.609375 134.015625 C 328.40625 129.539062 331.3125 119.753906 327.222656 111.734375 C 326.84375 110.988281 326.457031 110.242188 326.0625 109.5 C 323.132812 103.964844 317.417969 100.527344 311.144531 100.527344 C 308.683594 100.527344 306.300781 101.054688 304.058594 102.097656 L 302.289062 102.917969 L 303.699219 101.570312 C 310.175781 95.359375 310.648438 85.171875 304.773438 78.375 C 304.226562 77.746094 303.671875 77.113281 303.113281 76.484375 C 299.914062 72.898438 295.320312 70.835938 290.511719 70.835938 C 286.683594 70.835938 282.9375 72.15625 279.960938 74.554688 L 278.421875 75.792969 L 279.484375 74.128906 C 284.3125 66.566406 282.363281 56.558594 275.046875 51.347656 C 274.355469 50.84375 273.65625 50.359375 272.953125 49.875 C 270.128906 47.933594 266.832031 46.910156 263.414062 46.910156 C 258.101562 46.910156 253.207031 49.328125 249.996094 53.542969 L 248.792969 55.117188 L 249.429688 53.242188 C 252.324219 44.714844 248.023438 35.445312 239.632812 32.136719 C 238.855469 31.832031 238.070312 31.53125 237.285156 31.234375 C 235.371094 30.511719 233.367188 30.144531 231.339844 30.144531 C 224.605469 30.144531 218.53125 34.136719 215.863281 40.3125 L 215.070312 42.136719 L 215.238281 40.15625 C 216.003906 31.179688 209.601562 23.214844 200.664062 22.03125 C 199.832031 21.917969 198.996094 21.8125 198.160156 21.710938 C 197.511719 21.636719 196.851562 21.601562 196.203125 21.601562 C 187.949219 21.601562 180.949219 27.492188 179.566406 35.613281 L 179.238281 37.546875 L 178.925781 35.609375 C 177.617188 27.382812 170.621094 21.414062 162.296875 21.414062 C 161.695312 21.414062 161.082031 21.449219 160.480469 21.511719 C 159.644531 21.605469 158.808594 21.699219 157.972656 21.800781 C 149.046875 22.890625 142.5625 30.769531 143.207031 39.734375 L 143.34375 41.695312 L 142.582031 39.882812 C 139.945312 33.625 133.84375 29.582031 127.042969 29.582031 C 125.082031 29.582031 123.144531 29.921875 121.28125 30.597656 C 120.488281 30.890625 119.695312 31.1875 118.902344 31.488281 C 110.523438 34.695312 106.121094 43.886719 108.875 52.414062 L 109.472656 54.257812 L 108.308594 52.710938 C 105.148438 48.5 100.101562 45.984375 94.816406 45.984375 C 91.46875 45.984375 88.226562 46.976562 85.433594 48.847656 C 84.734375 49.316406 84.039062 49.789062 83.347656 50.269531 C 75.964844 55.394531 73.894531 65.382812 78.636719 73.007812 L 79.671875 74.675781 L 78.152344 73.429688 C 75.152344 70.964844 71.355469 69.605469 67.460938 69.605469 C 62.726562 69.605469 58.183594 71.613281 54.996094 75.105469 C 54.425781 75.730469 53.863281 76.359375 53.304688 76.992188 C 47.347656 83.738281 47.722656 93.941406 54.15625 100.21875 L 55.574219 101.597656 L 53.789062 100.742188 C 51.492188 99.636719 49.042969 99.074219 46.503906 99.074219 C 40.3125 99.074219 34.628906 102.453125 31.675781 107.886719 C 31.273438 108.628906 30.875 109.378906 30.480469 110.128906 C 26.304688 118.113281 29.113281 127.933594 36.878906 132.484375 L 38.589844 133.488281 L 36.648438 133.082031 C 35.511719 132.84375 34.351562 132.722656 33.195312 132.722656 C 25.527344 132.722656 18.816406 137.914062 16.878906 145.347656 C 16.671875 146.15625 16.460938 146.976562 16.261719 147.792969 C 14.132812 156.527344 19.207031 165.378906 27.8125 167.945312 L 29.691406 168.503906 L 27.734375 168.578125 C 18.761719 168.921875 11.644531 176.222656 11.523438 185.207031 C 11.515625 185.96875 11.511719 186.722656 11.511719 187.484375 L 11.511719 187.699219 C 11.511719 196.8125 18.6875 204.167969 27.847656 204.449219 L 30.089844 204.519531 L 27.921875 205.089844 C 19.054688 207.421875 13.726562 216.246094 15.789062 225.1875 C 15.980469 226.007812 16.175781 226.824219 16.378906 227.644531 C 18.246094 235.191406 24.96875 240.460938 32.730469 240.460938 C 33.808594 240.460938 34.898438 240.359375 35.96875 240.148438 L 37.898438 239.769531 L 36.191406 240.746094 C 28.386719 245.210938 25.464844 255 29.546875 263.023438 C 29.921875 263.769531 30.3125 264.515625 30.703125 265.253906 C 33.632812 270.804688 39.351562 274.25 45.632812 274.25 C 48.082031 274.25 50.460938 273.726562 52.695312 272.691406 L 54.46875 271.867188 L 53.058594 273.21875 C 46.566406 279.425781 46.082031 289.613281 51.953125 296.414062 L 52.054688 296.535156 C 52.566406 297.125 53.082031 297.722656 53.605469 298.308594 C 56.804688 301.902344 61.398438 303.964844 66.214844 303.964844 C 70.035156 303.964844 73.777344 302.652344 76.75 300.265625 L 78.289062 299.03125 L 77.226562 300.691406 C 72.378906 308.269531 74.328125 318.289062 81.664062 323.507812 C 82.34375 323.992188 83.027344 324.46875 83.714844 324.941406 C 86.546875 326.898438 89.859375 327.933594 93.289062 327.933594 C 98.589844 327.933594 103.472656 325.523438 106.683594 321.328125 L 107.886719 319.753906 L 107.25 321.628906 C 104.34375 330.152344 108.628906 339.421875 117.007812 342.738281 C 117.792969 343.046875 118.578125 343.351562 119.363281 343.648438 C 121.289062 344.375 123.296875 344.746094 125.335938 344.746094 C 132.058594 344.746094 138.132812 340.761719 140.800781 334.597656 L 141.597656 332.769531 L 141.421875 334.753906 C 140.644531 343.730469 147.035156 351.703125 155.972656 352.910156 C 156.804688 353.019531 157.640625 353.125 158.476562 353.230469 C 159.144531 353.308594 159.828125 353.347656 160.496094 353.347656 C 168.714844 353.347656 175.695312 347.464844 177.089844 339.351562 Z M 177.421875 337.421875 " fill-opacity="1" fill-rule="nonzero"/></g><path fill="#a0daea" d="M 242.292969 146.3125 C 245.808594 140.761719 251.753906 136.949219 258.78125 136.324219 C 266.863281 135.636719 273.988281 139.25 275.46875 147.722656 C 275.597656 148.511719 275.433594 149.300781 275.039062 149.957031 C 275.5 150.546875 275.761719 151.335938 275.699219 152.15625 L 275.074219 159.089844 C 275.074219 159.382812 275.007812 159.679688 274.875 159.976562 C 272.019531 167.695312 264.695312 173.277344 256.484375 174 C 249.09375 174.625 243.3125 171.472656 240.585938 165.984375 L 240.027344 172.390625 C 239.863281 174.03125 238.550781 175.347656 236.941406 175.476562 L 229.550781 176.136719 C 228.335938 176.234375 227.183594 175.675781 226.558594 174.625 L 221.042969 165.460938 L 220.285156 174.132812 C 220.121094 175.742188 218.808594 177.054688 217.199219 177.21875 L 209.808594 177.84375 C 208.691406 177.941406 207.707031 177.480469 207.050781 176.691406 C 206.523438 177.582031 205.539062 178.238281 204.457031 178.335938 L 197.066406 178.960938 C 195.980469 179.058594 194.960938 178.597656 194.339844 177.84375 C 193.78125 178.730469 192.828125 179.355469 191.742188 179.417969 L 184.355469 180.078125 C 182.644531 180.242188 181.199219 179.023438 180.9375 177.382812 L 180.378906 178.664062 C 179.886719 179.78125 178.800781 180.570312 177.585938 180.667969 L 171.609375 181.191406 C 170.097656 181.324219 168.71875 180.40625 168.292969 178.925781 L 167.964844 177.777344 L 167.863281 178.695312 C 167.734375 180.339844 166.417969 181.652344 164.777344 181.785156 L 157.421875 182.441406 C 155.417969 182.605469 153.773438 180.964844 153.972656 178.992188 L 154.367188 174.195312 C 150.785156 179.847656 144.707031 183.855469 137.777344 184.445312 C 130.289062 185.101562 124.277344 181.585938 121.585938 175.804688 C 118.300781 182.375 111.996094 186.644531 104.503906 187.269531 C 93.4375 188.253906 86.210938 180.570312 87.164062 169.632812 C 88.082031 158.988281 96.128906 150.546875 106.835938 149.628906 C 113.964844 149.003906 120.074219 151.992188 122.667969 158.167969 C 126.152344 151.828125 132.652344 147.296875 140.109375 146.640625 C 147.433594 145.984375 153.28125 149.300781 156.039062 154.851562 L 156.597656 148.445312 C 156.761719 146.804688 158.078125 145.488281 159.6875 145.359375 L 168.421875 144.570312 C 169.902344 144.472656 171.25 145.324219 171.707031 146.738281 L 175.847656 159.417969 L 182.578125 145.0625 C 183.105469 143.945312 184.15625 143.222656 185.339844 143.09375 L 194.042969 142.335938 C 195.128906 142.238281 196.113281 142.699219 196.769531 143.484375 C 197.328125 142.597656 198.246094 141.976562 199.332031 141.875 L 206.722656 141.21875 C 207.839844 141.121094 208.855469 141.613281 209.480469 142.402344 C 210.039062 141.484375 210.992188 140.859375 212.109375 140.761719 L 219.464844 140.101562 C 220.679688 140.003906 221.863281 140.597656 222.488281 141.648438 L 228.003906 150.84375 L 228.761719 142.105469 C 228.890625 140.496094 230.207031 139.183594 231.847656 139.050781 L 239.238281 138.394531 C 241.210938 138.230469 242.851562 139.875 242.65625 141.84375 Z M 120.207031 165.65625 L 112.550781 166.3125 C 111.140625 166.445312 109.859375 165.65625 109.332031 164.375 C 108.808594 163.09375 107.824219 162.832031 106.542969 162.964844 C 103.160156 163.257812 101.484375 166.214844 101.1875 169.335938 C 100.957031 171.964844 101.582031 174.261719 104.636719 174 C 106.441406 173.867188 107.789062 172.914062 108.644531 171.304688 C 109.203125 170.320312 110.1875 169.632812 111.335938 169.53125 L 119.449219 168.84375 C 119.648438 168.808594 119.8125 168.808594 120.007812 168.84375 C 120.007812 168.121094 120.007812 167.429688 120.074219 166.707031 C 120.105469 166.347656 120.140625 165.984375 120.207031 165.65625 Z M 257.074219 150.054688 L 259.996094 149.792969 C 259.539062 149.695312 259.011719 149.695312 258.550781 149.726562 C 258.027344 149.792969 257.535156 149.890625 257.074219 150.054688 Z M 134.164062 166.414062 C 133.902344 169.335938 134.757812 171.40625 137.976562 171.140625 C 141.523438 170.8125 143.394531 167.957031 143.65625 164.640625 C 143.921875 161.75 143.097656 159.613281 139.914062 159.910156 C 136.300781 160.238281 134.460938 162.996094 134.164062 166.414062 Z M 225.378906 202.773438 L 226.988281 184.347656 C 227.117188 182.738281 228.433594 181.457031 230.007812 181.324219 L 240.980469 180.339844 C 242.195312 180.242188 243.3125 180.800781 243.9375 181.851562 L 254.710938 199.785156 L 256.253906 181.785156 C 256.417969 180.175781 257.699219 178.894531 259.308594 178.761719 L 270.246094 177.777344 C 272.214844 177.613281 273.824219 179.253906 273.660156 181.191406 L 269.71875 226.519531 C 269.589844 228.128906 268.308594 229.410156 266.699219 229.542969 L 255.726562 230.527344 C 254.546875 230.625 253.394531 230.035156 252.769531 229.015625 L 241.996094 211.179688 L 240.453125 229.082031 C 240.324219 230.691406 239.007812 231.972656 237.433594 232.105469 L 226.460938 233.089844 C 224.523438 233.253906 222.882812 231.613281 223.046875 229.671875 L 224.523438 212.824219 C 221.273438 225.238281 210.398438 234.929688 197.328125 236.078125 C 190.660156 236.667969 183.960938 234.894531 179.097656 230.132812 C 176.140625 227.210938 174.269531 223.664062 173.382812 219.785156 C 169.410156 230.953125 159.160156 239.394531 146.976562 240.480469 C 140.308594 241.070312 133.605469 239.296875 128.746094 234.535156 C 126.050781 231.875 124.277344 228.6875 123.292969 225.207031 C 123.261719 225.46875 123.261719 225.699219 123.226562 225.929688 C 122.308594 236.769531 112.816406 243.46875 102.601562 244.355469 C 92.089844 245.273438 82.203125 240.546875 82.828125 228.589844 C 82.894531 227.769531 83.222656 227.046875 83.78125 226.453125 C 84.339844 225.863281 85.0625 225.503906 85.882812 225.4375 L 96.621094 224.484375 C 96.226562 224.417969 95.964844 224.351562 95.800781 224.285156 C 88.34375 222.085938 83.84375 217.785156 84.632812 209.40625 C 85.617188 198.503906 95.078125 192.460938 105.226562 191.574219 C 115.640625 190.6875 124.707031 195.316406 124.3125 206.910156 C 124.277344 207.734375 123.949219 208.488281 123.390625 209.078125 C 122.832031 209.671875 122.078125 210.03125 121.257812 210.128906 L 110.550781 211.050781 C 111.304688 211.246094 111.863281 211.410156 112.160156 211.476562 C 117.019531 213.019531 120.730469 215.417969 122.375 219.394531 C 122.339844 218.210938 122.375 217.027344 122.472656 215.84375 C 123.753906 201.066406 135.875 188.910156 150.652344 187.597656 C 157.289062 187.039062 163.957031 188.746094 168.816406 193.476562 C 171.773438 196.402344 173.613281 199.980469 174.5 203.824219 C 178.507812 192.65625 188.851562 184.28125 201.007812 183.195312 C 207.640625 182.636719 214.308594 184.347656 219.171875 189.074219 C 222.980469 192.820312 224.917969 197.683594 225.378906 202.773438 Z M 102.699219 208.457031 C 103.027344 208.882812 104.800781 209.507812 106.738281 210.03125 C 106.246094 209.472656 105.984375 208.75 105.984375 207.960938 C 106.015625 206.945312 105.554688 206.847656 104.570312 206.910156 C 103.519531 206.976562 102.796875 207.273438 102.699219 208.390625 C 102.699219 208.421875 102.699219 208.421875 102.699219 208.457031 Z M 100.070312 225.335938 C 100.597656 225.894531 100.957031 226.683594 100.957031 227.539062 C 100.957031 228.917969 101.285156 229.214844 102.667969 229.082031 C 103.683594 229.015625 105.164062 228.65625 105.261719 227.40625 C 105.261719 227.375 105.261719 227.277344 105.261719 227.210938 C 105 226.683594 102.46875 225.960938 100.070312 225.335938 Z M 140.109375 215.253906 C 139.652344 220.542969 141.6875 224.449219 147.5 223.957031 C 153.542969 223.433594 156.960938 218.539062 157.453125 212.789062 C 157.914062 207.503906 155.976562 203.5625 150.160156 204.054688 C 143.984375 204.613281 140.636719 209.375 140.109375 215.253906 Z M 190.460938 210.851562 C 190.003906 216.140625 192.039062 220.050781 197.851562 219.558594 C 203.898438 219.03125 207.3125 214.136719 207.804688 208.390625 C 208.265625 203.101562 206.328125 199.160156 200.511719 199.652344 C 194.339844 200.210938 190.988281 204.941406 190.460938 210.851562 Z M 190.460938 210.851562 " fill-opacity="1" fill-rule="evenodd"/><path fill="#a0daea" d="M 235.460938 140.429688 C 238.976562 134.847656 244.886719 131.039062 251.949219 130.445312 C 260.03125 129.722656 267.15625 133.335938 268.601562 141.84375 C 268.734375 142.597656 268.601562 143.386719 268.207031 144.042969 C 268.667969 144.667969 268.929688 145.425781 268.867188 146.277344 L 268.242188 153.207031 C 268.207031 153.503906 268.144531 153.800781 268.042969 154.0625 C 265.1875 161.78125 257.863281 167.363281 249.652344 168.085938 C 242.261719 168.746094 236.480469 165.558594 233.722656 160.105469 L 233.195312 166.511719 C 233.03125 168.121094 231.71875 169.433594 230.109375 169.597656 L 222.71875 170.222656 C 221.503906 170.320312 220.351562 169.761719 219.726562 168.710938 L 214.175781 159.546875 L 213.421875 168.21875 C 213.289062 169.863281 211.976562 171.175781 210.367188 171.304688 L 202.976562 171.964844 C 201.859375 172.0625 200.84375 171.570312 200.21875 170.78125 C 199.660156 171.699219 198.707031 172.324219 197.625 172.421875 L 190.234375 173.082031 C 189.117188 173.179688 188.128906 172.71875 187.507812 171.929688 C 186.949219 172.816406 185.996094 173.441406 184.910156 173.539062 L 177.523438 174.195312 C 175.8125 174.328125 174.335938 173.113281 174.105469 171.503906 L 173.546875 172.75 C 173.054688 173.902344 171.96875 174.65625 170.753906 174.789062 L 164.777344 175.3125 C 163.265625 175.445312 161.886719 174.492188 161.460938 173.046875 L 161.097656 171.898438 L 161.03125 172.816406 C 160.902344 174.425781 159.585938 175.742188 157.945312 175.90625 L 150.554688 176.527344 C 148.585938 176.726562 146.941406 175.082031 147.105469 173.082031 L 147.535156 168.285156 C 143.953125 173.96875 137.875 177.941406 130.914062 178.566406 C 123.457031 179.222656 117.445312 175.707031 114.753906 169.925781 C 111.46875 176.464844 105.128906 180.734375 97.671875 181.390625 C 86.605469 182.34375 79.378906 174.65625 80.332031 163.71875 C 81.25 153.109375 89.296875 144.667969 100.003906 143.714844 C 107.132812 143.09375 113.242188 146.082031 115.835938 152.257812 C 119.320312 145.917969 125.824219 141.382812 133.277344 140.726562 C 140.601562 140.101562 146.449219 143.421875 149.207031 148.9375 L 149.765625 142.535156 C 149.929688 140.925781 151.246094 139.578125 152.855469 139.445312 L 161.589844 138.691406 C 163.070312 138.558594 164.417969 139.445312 164.875 140.859375 L 169.015625 153.503906 L 175.746094 139.152344 C 176.242188 138.066406 177.324219 137.3125 178.507812 137.210938 L 187.210938 136.457031 C 188.296875 136.359375 189.28125 136.820312 189.9375 137.574219 C 190.460938 136.6875 191.414062 136.0625 192.5 135.964844 L 199.890625 135.339844 C 201.007812 135.242188 202.023438 135.703125 202.648438 136.488281 C 203.207031 135.601562 204.160156 134.945312 205.242188 134.878906 L 212.632812 134.222656 C 213.847656 134.125 215.03125 134.683594 215.65625 135.734375 L 221.171875 144.929688 L 221.929688 136.226562 C 222.058594 134.585938 223.375 133.269531 224.984375 133.140625 L 232.375 132.484375 C 234.378906 132.320312 236.019531 133.960938 235.824219 135.929688 Z M 113.375 159.746094 L 105.722656 160.433594 C 104.308594 160.53125 103.027344 159.777344 102.5 158.464844 C 101.976562 157.214844 100.992188 156.953125 99.710938 157.050781 C 96.328125 157.347656 94.617188 160.304688 94.355469 163.421875 C 94.125 166.050781 94.75 168.382812 97.804688 168.121094 C 99.613281 167.957031 100.957031 167.003906 101.8125 165.425781 C 102.335938 164.410156 103.355469 163.753906 104.503906 163.652344 L 112.617188 162.929688 C 112.816406 162.898438 112.980469 162.898438 113.175781 162.929688 C 113.144531 162.242188 113.175781 161.519531 113.242188 160.796875 C 113.273438 160.46875 113.308594 160.105469 113.375 159.746094 Z M 250.242188 144.144531 L 253.164062 143.878906 C 252.707031 143.78125 252.179688 143.816406 251.71875 143.847656 C 251.195312 143.878906 250.703125 143.980469 250.242188 144.144531 Z M 127.332031 160.5 C 127.070312 163.421875 127.925781 165.527344 131.144531 165.230469 C 134.65625 164.933594 136.5625 162.078125 136.824219 158.726562 C 137.089844 155.835938 136.265625 153.734375 133.046875 153.996094 C 129.433594 154.324219 127.628906 157.085938 127.332031 160.5 Z M 218.546875 196.894531 L 220.15625 178.433594 C 220.285156 176.859375 221.601562 175.542969 223.175781 175.414062 L 234.148438 174.460938 C 235.332031 174.359375 236.480469 174.917969 237.105469 175.96875 L 247.878906 193.871094 L 249.421875 175.871094 C 249.585938 174.296875 250.867188 172.980469 252.476562 172.851562 L 263.414062 171.898438 C 265.382812 171.734375 266.992188 173.34375 266.828125 175.3125 L 262.886719 220.609375 C 262.757812 222.21875 261.476562 223.53125 259.867188 223.664062 L 248.894531 224.617188 C 247.714844 224.714844 246.5625 224.15625 245.9375 223.105469 L 235.167969 205.269531 L 233.621094 223.171875 C 233.492188 224.78125 232.175781 226.09375 230.601562 226.226562 L 219.628906 227.175781 C 217.660156 227.339844 216.050781 225.730469 216.214844 223.761719 L 217.691406 206.945312 C 214.441406 219.359375 203.570312 229.015625 190.496094 230.167969 C 183.828125 230.757812 177.128906 228.984375 172.265625 224.222656 C 169.308594 221.332031 167.4375 217.75 166.550781 213.90625 C 162.578125 225.074219 152.328125 233.515625 140.144531 234.566406 C 133.476562 235.160156 126.773438 233.417969 121.914062 228.621094 C 119.21875 225.996094 117.414062 222.777344 116.460938 219.328125 C 116.429688 219.558594 116.429688 219.785156 116.394531 220.050781 C 115.476562 230.855469 105.984375 237.554688 95.769531 238.476562 C 85.226562 239.394531 75.371094 234.632812 75.996094 222.675781 C 76.0625 221.890625 76.390625 221.132812 76.949219 220.542969 C 77.507812 219.984375 78.230469 219.621094 79.050781 219.523438 L 89.789062 218.605469 C 89.394531 218.507812 89.132812 218.441406 88.96875 218.375 C 81.480469 216.175781 77.011719 211.871094 77.800781 203.496094 C 78.789062 192.589844 88.246094 186.578125 98.394531 185.691406 C 108.808594 184.773438 117.875 189.40625 117.480469 201 C 117.445312 201.820312 117.117188 202.609375 116.558594 203.199219 C 116 203.792969 115.246094 204.152344 114.425781 204.21875 L 103.71875 205.171875 C 104.441406 205.335938 105.03125 205.5 105.328125 205.597656 C 110.1875 207.109375 113.898438 209.507812 115.542969 213.480469 C 115.507812 212.296875 115.542969 211.117188 115.640625 209.933594 C 116.921875 195.152344 129.007812 183 143.789062 181.71875 C 150.457031 181.128906 157.125 182.835938 161.984375 187.597656 C 164.941406 190.488281 166.78125 194.070312 167.667969 197.910156 C 171.675781 186.777344 182.023438 178.367188 194.140625 177.316406 C 200.808594 176.726562 207.476562 178.433594 212.339844 183.195312 C 216.117188 186.910156 218.085938 191.769531 218.546875 196.894531 Z M 95.867188 202.542969 C 96.195312 203.003906 97.96875 203.59375 99.90625 204.152344 C 99.414062 203.59375 99.152344 202.871094 99.152344 202.050781 C 99.183594 201.03125 98.722656 200.933594 97.738281 201 C 96.6875 201.066406 95.964844 201.394531 95.867188 202.511719 C 95.867188 202.511719 95.867188 202.542969 95.867188 202.542969 Z M 93.207031 219.457031 C 93.765625 220.015625 94.125 220.773438 94.125 221.625 C 94.125 223.039062 94.421875 223.335938 95.835938 223.203125 C 96.851562 223.105469 98.296875 222.742188 98.429688 221.527344 C 98.429688 221.460938 98.429688 221.363281 98.429688 221.332031 C 98.167969 220.804688 95.636719 220.050781 93.207031 219.457031 Z M 133.277344 209.34375 C 132.820312 214.664062 134.855469 218.570312 140.636719 218.046875 C 146.710938 217.519531 150.128906 212.625 150.621094 206.878906 C 151.082031 201.589844 149.144531 197.648438 143.328125 198.175781 C 137.121094 198.699219 133.804688 203.460938 133.277344 209.34375 Z M 183.632812 204.941406 C 183.171875 210.230469 185.207031 214.171875 190.988281 213.644531 C 197.066406 213.121094 200.480469 208.226562 200.972656 202.476562 C 201.433594 197.1875 199.496094 193.246094 193.683594 193.773438 C 187.472656 194.296875 184.15625 199.0625 183.632812 204.941406 Z M 183.632812 204.941406 " fill-opacity="1" fill-rule="evenodd"/><path fill="#ffffff" d="M 83.023438 163.949219 C 83.8125 154.589844 90.875 147.230469 100.234375 146.410156 C 107.429688 145.785156 112.980469 149.300781 114.195312 156.261719 C 114.226562 156.425781 114.195312 156.589844 114.0625 156.757812 C 113.933594 156.921875 113.769531 156.984375 113.605469 157.019531 L 105.457031 157.742188 C 105.261719 157.742188 105.0625 157.644531 105 157.445312 C 104.046875 155.144531 102.074219 154.128906 99.445312 154.359375 C 94.71875 154.785156 92.058594 158.757812 91.664062 163.195312 C 91.269531 167.660156 93.304688 171.207031 98.035156 170.8125 C 100.664062 170.582031 102.832031 169.203125 104.175781 166.707031 C 104.308594 166.476562 104.503906 166.347656 104.734375 166.347656 L 112.847656 165.625 C 113.046875 165.589844 113.175781 165.65625 113.273438 165.820312 C 113.375 165.953125 113.40625 166.117188 113.339844 166.28125 C 110.84375 173.574219 104.636719 178.074219 97.445312 178.695312 C 88.082031 179.519531 82.203125 173.34375 83.023438 163.949219 Z M 148.191406 158.234375 C 147.371094 167.464844 139.847656 175.050781 130.683594 175.871094 C 121.550781 176.660156 115.148438 170.289062 115.9375 161.027344 C 116.757812 151.761719 124.378906 144.207031 133.507812 143.421875 C 142.707031 142.632812 148.980469 148.9375 148.191406 158.234375 Z M 168.554688 160.828125 L 178.179688 140.300781 C 178.308594 140.070312 178.507812 139.90625 178.738281 139.90625 L 187.441406 139.152344 C 187.738281 139.117188 187.964844 139.347656 187.964844 139.675781 L 185.304688 170.222656 C 185.273438 170.550781 184.976562 170.8125 184.683594 170.847656 L 177.292969 171.503906 C 176.996094 171.503906 176.734375 171.273438 176.765625 170.976562 L 178.078125 155.804688 L 171.082031 171.667969 C 170.984375 171.898438 170.753906 172.0625 170.527344 172.09375 L 164.546875 172.621094 C 164.316406 172.621094 164.121094 172.488281 164.054688 172.292969 L 159.652344 157.378906 L 158.339844 172.585938 C 158.308594 172.882812 158.042969 173.179688 157.714844 173.210938 L 150.324219 173.835938 C 150.03125 173.867188 149.800781 173.636719 149.800781 173.308594 L 152.460938 142.761719 C 152.492188 142.433594 152.789062 142.171875 153.085938 142.140625 L 161.820312 141.382812 C 162.050781 141.351562 162.25 141.484375 162.3125 141.679688 Z M 189.476562 169.863281 L 192.136719 139.28125 C 192.171875 138.984375 192.433594 138.691406 192.761719 138.65625 L 200.121094 138.035156 C 200.449219 138 200.679688 138.230469 200.644531 138.558594 L 197.984375 169.105469 C 197.984375 169.433594 197.6875 169.695312 197.394531 169.730469 L 190.003906 170.386719 C 189.675781 170.417969 189.445312 170.15625 189.476562 169.863281 Z M 212.207031 151.039062 L 210.730469 167.988281 C 210.730469 168.316406 210.433594 168.582031 210.136719 168.613281 L 202.746094 169.269531 C 202.417969 169.304688 202.1875 169.039062 202.222656 168.746094 L 204.882812 138.164062 C 204.914062 137.871094 205.179688 137.574219 205.507812 137.574219 L 212.863281 136.917969 C 213.0625 136.882812 213.226562 136.984375 213.324219 137.113281 L 223.144531 153.472656 L 224.621094 136.457031 C 224.65625 136.128906 224.917969 135.867188 225.246094 135.832031 L 232.636719 135.175781 C 232.933594 135.144531 233.164062 135.40625 233.128906 135.703125 L 230.5 166.28125 C 230.46875 166.578125 230.171875 166.871094 229.878906 166.90625 L 222.488281 167.527344 C 222.289062 167.5625 222.125 167.464844 222.027344 167.332031 Z M 257.535156 152.8125 L 248.992188 153.535156 C 248.664062 153.570312 248.4375 153.339844 248.46875 153.042969 L 248.960938 147.558594 C 248.960938 147.230469 249.257812 146.933594 249.550781 146.933594 L 265.648438 145.523438 C 265.941406 145.488281 266.171875 145.71875 266.171875 146.046875 L 265.546875 152.945312 C 265.546875 153.011719 265.546875 153.078125 265.515625 153.109375 C 262.921875 160.074219 256.351562 164.804688 249.421875 165.394531 C 240.027344 166.214844 233.949219 160.140625 234.773438 150.679688 C 235.59375 141.21875 242.785156 133.960938 252.179688 133.140625 C 259.109375 132.515625 264.761719 135.4375 265.941406 142.269531 C 265.976562 142.46875 265.941406 142.632812 265.8125 142.796875 C 265.679688 142.929688 265.515625 143.027344 265.351562 143.058594 L 257.171875 143.75 C 256.976562 143.78125 256.777344 143.683594 256.710938 143.519531 C 255.761719 141.546875 253.757812 140.957031 251.492188 141.152344 C 246.695312 141.582031 243.835938 145.324219 243.441406 149.925781 C 242.984375 155.046875 245.445312 158.070312 250.667969 157.644531 C 253.789062 157.347656 256.15625 155.671875 257.535156 152.8125 Z M 124.640625 160.269531 C 124.214844 164.96875 126.480469 168.351562 131.375 167.921875 C 136.234375 167.496094 139.125 163.621094 139.519531 158.988281 C 139.945312 154.292969 137.710938 150.875 132.820312 151.304688 C 127.890625 151.761719 125.035156 155.539062 124.640625 160.269531 Z M 124.640625 160.269531 " fill-opacity="1" fill-rule="evenodd"/><path fill="#ffffff" d="M 113.703125 219.820312 C 112.882812 229.378906 104.339844 234.996094 95.539062 235.78125 C 86.40625 236.570312 78.164062 232.890625 78.6875 222.839844 C 78.722656 222.675781 78.789062 222.546875 78.886719 222.414062 C 78.984375 222.316406 79.117188 222.25 79.28125 222.21875 L 90.941406 221.199219 C 91.203125 221.199219 91.433594 221.363281 91.433594 221.660156 C 91.433594 224.648438 93.074219 226.160156 96.0625 225.894531 C 98.460938 225.667969 100.890625 224.449219 101.121094 221.757812 C 101.777344 214.039062 78.984375 220.148438 80.496094 203.757812 C 81.382812 194.070312 89.953125 189.140625 98.625 188.386719 C 107.59375 187.597656 115.113281 191.179688 114.785156 200.933594 C 114.753906 201.066406 114.71875 201.195312 114.589844 201.328125 C 114.492188 201.460938 114.359375 201.523438 114.195312 201.523438 L 102.335938 202.574219 C 102.074219 202.574219 101.84375 202.378906 101.878906 202.117188 C 101.910156 199.421875 100.136719 198.140625 97.542969 198.304688 C 95.210938 198.46875 93.402344 199.75 93.171875 202.246094 C 92.550781 209.441406 115.050781 204.316406 113.703125 219.820312 Z M 165.5 206.058594 C 164.316406 219.589844 153.347656 230.722656 139.914062 231.875 C 126.511719 233.058594 117.152344 223.726562 118.332031 210.195312 C 119.515625 196.628906 130.652344 185.59375 144.050781 184.410156 C 157.484375 183.230469 166.683594 192.492188 165.5 206.058594 Z M 215.851562 201.65625 C 214.671875 215.1875 203.699219 226.289062 190.265625 227.472656 C 176.863281 228.65625 167.503906 219.328125 168.6875 205.761719 C 169.867188 192.195312 181.003906 181.160156 194.40625 180.011719 C 207.839844 178.828125 217.035156 188.058594 215.851562 201.65625 Z M 233.195312 196.761719 L 230.929688 222.941406 C 230.894531 223.234375 230.632812 223.5 230.335938 223.53125 L 219.398438 224.484375 C 219.105469 224.515625 218.875 224.285156 218.90625 223.992188 L 222.847656 178.695312 C 222.882812 178.402344 223.144531 178.136719 223.40625 178.105469 L 234.378906 177.152344 C 234.574219 177.121094 234.707031 177.1875 234.804688 177.351562 L 249.847656 202.410156 L 252.113281 176.136719 C 252.148438 175.839844 252.410156 175.578125 252.707031 175.542969 L 263.644531 174.589844 C 263.9375 174.558594 264.167969 174.789062 264.136719 175.082031 L 260.195312 220.378906 C 260.160156 220.671875 259.933594 220.9375 259.636719 220.96875 L 248.664062 221.921875 C 248.5 221.921875 248.335938 221.855469 248.238281 221.726562 Z M 130.585938 209.113281 C 129.960938 216.273438 133.441406 221.394531 140.898438 220.738281 C 148.257812 220.117188 152.691406 214.203125 153.3125 207.109375 C 153.9375 199.980469 150.523438 194.824219 143.066406 195.480469 C 135.578125 196.136719 131.210938 201.886719 130.585938 209.113281 Z M 180.9375 204.710938 C 180.3125 211.871094 183.796875 216.996094 191.25 216.339844 C 198.609375 215.714844 203.042969 209.800781 203.667969 202.707031 C 204.289062 195.578125 200.875 190.421875 193.417969 191.078125 C 185.929688 191.738281 181.5625 197.484375 180.9375 204.710938 Z M 180.9375 204.710938 " fill-opacity="1" fill-rule="evenodd"/><path fill="#a0daea" d="M 53.757812 190.816406 L 70.28125 186.019531 L 51.132812 184.707031 Z M 53.757812 190.816406 " fill-opacity="1" fill-rule="evenodd"/><g clip-path="url(#9c15a1032f)"><path fill="#a0daea" d="M 73.859375 180.832031 L 47.222656 172.0625 L 49.0625 163.753906 Z M 73.859375 180.832031 " fill-opacity="1" fill-rule="evenodd"/></g><path fill="#a0daea" d="M 75.207031 174.855469 L 63.578125 164.113281 L 66.765625 160.335938 Z M 75.207031 174.855469 " fill-opacity="1" fill-rule="evenodd"/><path fill="#a0daea" d="M 284.140625 149.003906 L 280.066406 165.492188 L 290.640625 149.792969 Z M 284.140625 149.003906 " fill-opacity="1" fill-rule="evenodd"/><g clip-path="url(#6a2afef3c6)"><path fill="#a0daea" d="M 282.757812 171.109375 L 303.355469 152.683594 L 309.527344 158.367188 Z M 282.757812 171.109375 " fill-opacity="1" fill-rule="evenodd"/></g><path fill="#a0daea" d="M 287.195312 175.214844 L 302.074219 170.550781 L 303.714844 175.148438 Z M 287.195312 175.214844 " fill-opacity="1" fill-rule="evenodd"/></svg>