<svg xmlns="http://www.w3.org/2000/svg" xmlns:xlink="http://www.w3.org/1999/xlink" width="500" zoomAndPan="magnify" viewBox="0 0 375 374.999991" height="500" preserveAspectRatio="xMidYMid meet" version="1.0"><defs><filter x="0%" y="0%" width="100%" height="100%" id="0df14e7c4e"><feColorMatrix values="0 0 0 0 1 0 0 0 0 1 0 0 0 0 1 0 0 0 1 0" color-interpolation-filters="sRGB"/></filter><g/><mask id="9593199eec"><g filter="url(#0df14e7c4e)"><rect x="-37.5" width="450" fill="#000000" y="-37.499999" height="449.999989" fill-opacity="0.34"/></g></mask><clipPath id="57a6a3f199"><path d="M 3.765625 3.769531 L 339.015625 3.769531 L 339.015625 337.519531 L 3.765625 337.519531 Z M 3.765625 3.769531 " clip-rule="nonzero"/></clipPath><clipPath id="bc1225236a"><rect x="0" width="343" y="0" height="341"/></clipPath><clipPath id="dc7b6f5552"><path d="M 140 98.21875 L 234 98.21875 L 234 113.96875 L 140 113.96875 Z M 140 98.21875 " clip-rule="nonzero"/></clipPath><clipPath id="ead325d52e"><path d="M 166 98.21875 L 262 98.21875 L 262 113.96875 L 166 113.96875 Z M 166 98.21875 " clip-rule="nonzero"/></clipPath><clipPath id="32599b6cc3"><path d="M 114 98.21875 L 208 98.21875 L 208 113.96875 L 114 113.96875 Z M 114 98.21875 " clip-rule="nonzero"/></clipPath></defs><g mask="url(#9593199eec)"><g transform="matrix(1, 0, 0, 1, 16, 17)"><g clip-path="url(#bc1225236a)"><path fill="#a0daea" d="M 338.722656 173.003906 C 338.738281 172.167969 338.742188 171.328125 338.742188 170.351562 L 338.742188 170.058594 C 338.742188 160.851562 331.5 153.332031 322.40625 152.894531 C 331.144531 150.386719 336.480469 141.441406 334.402344 132.484375 C 334.210938 131.652344 334.011719 130.828125 333.808594 130.011719 C 331.582031 121.082031 322.742188 115.542969 313.824219 117.300781 C 321.714844 112.769531 324.75 102.792969 320.566406 94.59375 C 320.1875 93.84375 319.796875 93.09375 319.402344 92.351562 C 315.109375 84.234375 305.21875 80.976562 296.976562 84.808594 C 303.535156 78.515625 304.085938 68.121094 298.074219 61.167969 C 297.523438 60.535156 296.96875 59.902344 296.414062 59.277344 C 290.292969 52.40625 279.898438 51.601562 272.8125 57.304688 C 277.703125 49.648438 275.773438 39.417969 268.289062 34.085938 C 267.597656 33.585938 266.898438 33.097656 266.191406 32.613281 C 258.609375 27.398438 248.316406 29.105469 242.792969 36.347656 C 245.726562 27.714844 241.382812 18.21875 232.808594 14.835938 C 232.027344 14.53125 231.242188 14.230469 230.453125 13.933594 C 221.835938 10.683594 212.234375 14.816406 208.621094 23.183594 C 209.390625 14.105469 202.894531 5.921875 193.761719 4.710938 C 192.929688 4.601562 192.089844 4.492188 191.253906 4.394531 C 182.144531 3.339844 173.832031 9.601562 172.304688 18.558594 C 170.871094 9.589844 162.644531 3.214844 153.5 4.191406 C 152.660156 4.285156 151.824219 4.378906 150.988281 4.480469 C 141.859375 5.597656 135.28125 13.6875 135.933594 22.757812 C 132.402344 14.375 122.871094 10.160156 114.226562 13.296875 C 113.429688 13.589844 112.632812 13.886719 111.839844 14.191406 C 103.261719 17.472656 98.828125 26.878906 101.621094 35.515625 C 96.171875 28.261719 85.929688 26.464844 78.308594 31.582031 C 77.605469 32.050781 76.910156 32.523438 76.214844 33.007812 C 68.664062 38.25 66.613281 48.460938 71.414062 56.183594 C 64.390625 50.414062 54.003906 51.101562 47.8125 57.890625 C 47.242188 58.515625 46.679688 59.144531 46.117188 59.78125 C 40.027344 66.675781 40.472656 77.097656 46.984375 83.449219 C 38.777344 79.5 28.839844 82.652344 24.449219 90.734375 C 24.042969 91.476562 23.640625 92.230469 23.25 92.976562 C 18.980469 101.144531 21.910156 111.15625 29.769531 115.765625 C 20.851562 113.898438 11.945312 119.34375 9.621094 128.265625 C 9.410156 129.078125 9.199219 129.898438 9 130.71875 C 6.824219 139.648438 12.058594 148.660156 20.773438 151.253906 C 11.691406 151.601562 4.375 159.015625 4.253906 168.207031 C 4.242188 168.964844 4.238281 169.726562 4.238281 170.484375 L 4.238281 170.699219 C 4.238281 180.011719 11.648438 187.492188 20.894531 187.773438 C 11.945312 190.128906 6.429688 199.1875 8.527344 208.261719 C 8.71875 209.085938 8.914062 209.90625 9.117188 210.722656 C 11.328125 219.65625 20.140625 225.214844 29.082031 223.46875 C 21.179688 227.988281 18.136719 237.964844 22.308594 246.171875 C 22.6875 246.917969 23.078125 247.667969 23.46875 248.410156 C 27.761719 256.539062 37.640625 259.808594 45.886719 255.988281 C 39.308594 262.273438 38.75 272.675781 44.757812 279.632812 C 45.308594 280.265625 45.859375 280.902344 46.417969 281.527344 C 52.523438 288.398438 62.910156 289.214844 70.003906 283.523438 C 65.101562 291.191406 67.03125 301.441406 74.527344 306.773438 C 75.210938 307.261719 75.894531 307.742188 76.582031 308.214844 C 84.164062 313.453125 94.460938 311.761719 99.996094 304.527344 C 97.054688 313.148438 101.378906 322.652344 109.941406 326.046875 C 110.726562 326.355469 111.515625 326.660156 112.300781 326.953125 C 120.921875 330.21875 130.527344 326.097656 134.152344 317.730469 C 133.367188 326.808594 139.851562 335.003906 148.984375 336.234375 C 149.816406 336.34375 150.65625 336.449219 151.492188 336.550781 C 160.621094 337.640625 168.921875 331.367188 170.464844 322.40625 C 171.789062 330.777344 179.03125 336.898438 187.414062 336.898438 C 188.019531 336.898438 188.628906 336.867188 189.242188 336.800781 C 190.082031 336.710938 190.921875 336.617188 191.757812 336.519531 C 200.886719 335.410156 207.476562 327.332031 206.835938 318.257812 C 210.359375 326.648438 219.886719 330.886719 228.539062 327.746094 C 229.332031 327.457031 230.125 327.164062 230.910156 326.867188 C 239.496094 323.601562 243.949219 314.199219 241.167969 305.550781 C 246.617188 312.828125 256.867188 314.632812 264.5 309.507812 C 265.191406 309.046875 265.878906 308.574219 266.5625 308.101562 C 274.128906 302.867188 276.195312 292.660156 271.410156 284.925781 C 278.433594 290.710938 288.828125 290.03125 295.023438 283.230469 C 295.585938 282.617188 296.148438 281.996094 296.699219 281.375 C 302.804688 274.484375 302.382812 264.0625 295.875 257.691406 C 304.066406 261.648438 314.015625 258.519531 318.425781 250.441406 C 318.832031 249.699219 319.230469 248.953125 319.621094 248.210938 C 323.910156 240.054688 320.996094 230.027344 313.136719 225.402344 C 322.058594 227.285156 330.972656 221.851562 333.304688 212.9375 C 333.519531 212.117188 333.726562 211.304688 333.929688 210.480469 C 336.121094 201.554688 330.898438 192.535156 322.183594 189.925781 C 331.261719 189.597656 338.585938 182.195312 338.722656 173.003906 Z M 338.722656 173.003906 " fill-opacity="1" fill-rule="nonzero"/><g clip-path="url(#57a6a3f199)"><path stroke-linecap="butt" transform="matrix(0.670302, 0, 0, 0.670302, 3.918619, 3.769374)" fill="none" stroke-linejoin="miter" d="M 499.482554 252.475141 C 499.505865 251.228035 499.511692 249.975101 499.511692 248.518202 L 499.511692 248.081132 C 499.511692 234.34548 488.707324 223.127352 475.140673 222.474661 C 488.177012 218.733342 496.137513 205.38814 493.03723 192.025455 C 492.751677 190.784177 492.45447 189.554553 492.151435 188.336585 C 488.829703 175.014693 475.641846 166.751158 462.337437 169.373577 C 474.109188 162.613562 478.637232 147.729874 472.395874 135.497743 C 471.830596 134.378844 471.247837 133.259945 470.659249 132.152701 C 464.254718 120.04295 449.499236 115.182733 437.203002 120.899607 C 446.987541 111.511345 447.809233 96.004104 438.840558 85.630977 C 438.018866 84.686906 437.191347 83.742835 436.363828 82.810419 C 427.23198 72.559672 411.724739 71.359187 401.153474 79.867482 C 408.449628 68.445387 405.570794 53.182905 394.405114 45.228232 C 393.373629 44.4823 392.330489 43.75385 391.275693 43.031227 C 379.964323 35.251382 364.608599 37.798043 356.368374 48.602412 C 360.744901 35.723418 354.264611 21.556524 341.473031 16.509824 C 340.307511 16.055271 339.136163 15.606546 337.958988 15.163648 C 325.103305 10.315086 310.779066 16.480686 305.388537 28.963403 C 306.536574 15.420063 296.845276 3.211242 283.220349 1.404687 C 281.979071 1.241514 280.726137 1.078341 279.479031 0.932651 C 265.88907 -0.640801 253.487939 8.700841 251.209347 22.063526 C 249.070618 8.683358 236.797694 -0.827284 223.155285 0.629616 C 221.902351 0.769478 220.655245 0.909341 219.408139 1.060858 C 205.789039 2.727552 195.975362 14.796509 196.948571 28.328195 C 191.680422 15.822167 177.46108 9.534187 164.564603 14.21375 C 163.375773 14.650819 162.186942 15.093717 161.00394 15.54827 C 148.206532 20.443453 141.592207 34.476312 145.75894 47.361134 C 137.62944 36.539282 122.349475 33.858586 110.979829 41.492741 C 109.930861 42.192053 108.893548 42.897193 107.856235 43.619815 C 96.591486 51.440453 93.531997 66.673797 100.694116 78.194961 C 90.216093 69.587597 74.720507 70.613254 65.483762 80.741622 C 64.632932 81.674037 63.793758 82.612281 62.954584 83.56218 C 53.869357 93.847892 54.533703 109.395927 64.248311 118.871603 C 52.004525 112.9799 37.179113 117.682773 30.628891 129.740075 C 30.022821 130.847319 29.422578 131.972046 28.839818 133.085117 C 22.470252 145.270627 26.840952 160.206764 38.566081 167.083331 C 25.261672 164.297738 11.974746 172.421412 8.507325 185.731648 C 8.192634 186.943789 7.877944 188.167585 7.580737 189.39138 C 4.334764 202.713272 12.143747 216.157543 25.14512 220.027069 C 11.595952 220.545726 0.680859 231.606509 0.500204 245.31885 C 0.482721 246.449404 0.476893 247.585786 0.476893 248.71634 L 0.476893 249.036858 C 0.476893 262.929854 11.531849 274.089707 25.325776 274.509294 C 11.974746 278.023336 3.746176 291.537539 6.875597 305.075051 C 7.161149 306.304675 7.452529 307.528471 7.755565 308.746439 C 11.053986 322.074158 24.201049 330.366832 37.540424 327.761895 C 25.751191 334.504427 21.211491 349.388115 27.435367 361.631901 C 28.000644 362.744973 28.583404 363.863872 29.166164 364.971116 C 35.570695 377.098349 50.308694 381.97605 62.610755 376.276658 C 52.797078 385.653265 51.963732 401.172162 60.926579 411.551116 C 61.748271 412.495187 62.569962 413.445085 63.403309 414.377501 C 72.511846 424.628248 88.007433 425.846217 98.590353 417.355405 C 91.276716 428.794982 94.15555 444.086602 105.338713 452.041275 C 106.358542 452.769725 107.378372 453.486519 108.40403 454.191659 C 119.7154 462.006469 135.076951 459.483119 143.334659 448.690405 C 138.946477 461.551917 145.397629 475.730465 158.171727 480.794649 C 159.343074 481.255029 160.520249 481.709582 161.691596 482.146652 C 174.553108 487.018525 188.883174 480.870408 194.291186 468.38769 C 193.119839 481.931031 202.793653 494.157334 216.41858 495.993028 C 217.659859 496.1562 218.912793 496.313546 220.159899 496.465063 C 233.778998 498.090963 246.162646 488.731839 248.464548 475.363327 C 250.440104 487.851872 261.244473 496.98372 273.750501 496.98372 C 274.653779 496.98372 275.562884 496.937099 276.477817 496.83803 C 277.730751 496.703995 278.983685 496.564132 280.230791 496.418442 C 293.84989 494.763404 303.68105 482.711929 302.725324 469.174416 C 307.981818 481.692099 322.195333 488.015044 335.103465 483.329655 C 336.286467 482.898412 337.46947 482.461342 338.640818 482.018445 C 351.44988 477.146572 358.093344 463.119541 353.944093 450.217236 C 362.073594 461.074053 377.365214 463.766404 388.752343 456.120594 C 389.783828 455.432937 390.809485 454.727798 391.829315 454.022658 C 403.117375 446.213676 406.200175 430.986159 399.061366 419.447513 C 409.539389 428.078187 425.04663 427.064185 434.289203 416.918335 C 435.128377 416.003402 435.967551 415.076813 436.789243 414.150225 C 445.89778 403.87034 445.268399 388.322305 435.559619 378.817491 C 447.780095 384.720849 462.62299 380.052942 469.202349 368.001467 C 469.80842 366.894223 470.402835 365.781152 470.985595 364.673908 C 477.384298 352.505881 473.036909 337.546434 461.31178 330.646557 C 474.622016 333.455459 487.920598 325.349269 491.399674 312.050688 C 491.720192 310.826892 492.029055 309.614751 492.33209 308.385128 C 495.601373 295.069064 487.809873 281.613137 474.8085 277.720301 C 488.35184 277.230783 499.278588 266.187482 499.482554 252.475141 Z M 499.482554 252.475141 " stroke="#ffffff" stroke-width="0.9673" stroke-opacity="1" stroke-miterlimit="10"/><path fill="#0cc0df" d="M 187.414062 337.226562 C 179.285156 337.226562 172.378906 331.746094 170.453125 323.984375 C 168.441406 331.613281 161.5625 337 153.550781 337 C 152.855469 337 152.148438 336.957031 151.453125 336.875 C 150.613281 336.773438 149.777344 336.667969 148.941406 336.558594 C 140.183594 335.375 133.78125 327.933594 133.765625 319.269531 C 130.722656 324.863281 124.84375 328.398438 118.386719 328.398438 C 116.269531 328.398438 114.183594 328.015625 112.1875 327.257812 C 111.398438 326.960938 110.609375 326.652344 109.824219 326.347656 C 101.613281 323.09375 97.1875 314.335938 99.25 305.925781 C 95.945312 309.542969 91.320312 311.585938 86.34375 311.585938 C 82.78125 311.585938 79.34375 310.511719 76.398438 308.476562 C 75.710938 308.007812 75.027344 307.523438 74.34375 307.039062 C 67.152344 301.921875 64.945312 292.363281 68.957031 284.691406 C 66.101562 286.585938 62.714844 287.617188 59.269531 287.617188 C 54.269531 287.617188 49.496094 285.472656 46.175781 281.738281 C 45.652344 281.152344 45.132812 280.550781 44.617188 279.957031 L 44.515625 279.835938 C 38.761719 273.171875 38.886719 263.367188 44.589844 256.867188 C 42.695312 257.550781 40.714844 257.898438 38.6875 257.898438 C 32.164062 257.898438 26.226562 254.316406 23.183594 248.554688 C 22.789062 247.8125 22.402344 247.0625 22.019531 246.3125 C 18.023438 238.445312 20.5 228.953125 27.609375 224.011719 C 27.003906 224.078125 26.394531 224.109375 25.785156 224.109375 C 17.726562 224.109375 10.742188 218.636719 8.804688 210.796875 C 8.601562 209.976562 8.40625 209.15625 8.214844 208.328125 C 6.199219 199.601562 10.96875 190.976562 19.199219 187.964844 C 10.503906 186.886719 3.917969 179.597656 3.917969 170.703125 L 3.917969 170.488281 C 3.917969 169.722656 3.921875 168.964844 3.933594 168.203125 C 4.050781 159.394531 10.644531 152.144531 19.214844 151.0625 C 11.179688 147.875 6.597656 139.203125 8.6875 130.644531 C 8.886719 129.824219 9.097656 129 9.308594 128.1875 C 11.320312 120.46875 18.289062 115.078125 26.25 115.078125 C 26.933594 115.078125 27.613281 115.117188 28.296875 115.199219 C 21.238281 110.179688 18.871094 100.65625 22.964844 92.832031 C 23.355469 92.078125 23.757812 91.328125 24.164062 90.582031 C 27.230469 84.9375 33.132812 81.433594 39.5625 81.433594 C 41.675781 81.433594 43.730469 81.804688 45.691406 82.546875 C 40.054688 75.984375 40.039062 66.179688 45.878906 59.566406 C 46.441406 58.933594 47.003906 58.300781 47.574219 57.675781 C 50.886719 54.042969 55.605469 51.960938 60.519531 51.960938 C 64.042969 51.960938 67.488281 53.035156 70.382812 55.003906 C 66.480469 47.292969 68.800781 37.765625 76.035156 32.742188 C 76.730469 32.261719 77.429688 31.785156 78.128906 31.3125 C 81.027344 29.367188 84.398438 28.339844 87.875 28.339844 C 92.847656 28.339844 97.613281 30.480469 100.910156 34.136719 C 98.976562 25.71875 103.511719 17.03125 111.730469 13.886719 C 112.527344 13.585938 113.320312 13.285156 114.117188 12.992188 C 116.050781 12.289062 118.066406 11.9375 120.101562 11.9375 C 126.644531 11.9375 132.558594 15.539062 135.574219 21.230469 C 135.707031 12.578125 142.207031 5.226562 150.953125 4.15625 C 151.789062 4.058594 152.628906 3.964844 153.46875 3.871094 C 154.09375 3.804688 154.726562 3.769531 155.351562 3.769531 C 163.472656 3.769531 170.378906 9.242188 172.3125 16.980469 C 174.316406 9.34375 181.210938 3.953125 189.257812 3.953125 C 189.933594 3.953125 190.617188 3.992188 191.292969 4.070312 C 192.132812 4.171875 192.972656 4.277344 193.808594 4.390625 C 202.566406 5.550781 208.980469 12.980469 209.011719 21.644531 C 212.050781 16.042969 217.933594 12.5 224.398438 12.5 C 226.503906 12.5 228.582031 12.878906 230.574219 13.628906 C 231.363281 13.925781 232.148438 14.230469 232.929688 14.535156 C 241.152344 17.777344 245.597656 26.53125 243.542969 34.949219 C 246.851562 31.316406 251.484375 29.261719 256.476562 29.261719 C 260.019531 29.261719 263.445312 30.328125 266.378906 32.34375 C 267.082031 32.835938 267.785156 33.320312 268.480469 33.824219 C 275.648438 38.929688 277.859375 48.472656 273.867188 56.132812 C 276.726562 54.230469 280.117188 53.195312 283.570312 53.195312 C 288.566406 53.195312 293.335938 55.332031 296.65625 59.0625 C 297.214844 59.6875 297.769531 60.320312 298.316406 60.957031 C 304.078125 67.617188 303.960938 77.421875 298.273438 83.921875 C 300.175781 83.234375 302.160156 82.882812 304.203125 82.882812 C 310.714844 82.882812 316.652344 86.453125 319.691406 92.199219 C 320.085938 92.941406 320.476562 93.695312 320.855469 94.445312 C 324.863281 102.304688 322.402344 111.800781 315.300781 116.75 C 315.914062 116.683594 316.53125 116.652344 317.148438 116.652344 C 325.195312 116.652344 332.175781 122.109375 334.125 129.929688 C 334.332031 130.753906 334.53125 131.578125 334.722656 132.410156 C 336.714844 140.992188 332.039062 149.609375 323.972656 152.710938 C 332.554688 153.886719 339.066406 161.226562 339.066406 170.058594 L 339.070312 170.351562 C 339.070312 171.328125 339.0625 172.171875 339.050781 173.011719 C 338.921875 181.816406 332.320312 189.054688 323.746094 190.125 C 331.78125 193.324219 336.347656 202.003906 334.246094 210.558594 C 334.039062 211.382812 333.835938 212.199219 333.617188 213.023438 C 331.605469 220.71875 324.644531 226.101562 316.691406 226.101562 C 316 226.101562 315.304688 226.058594 314.613281 225.976562 C 321.664062 231.011719 324.019531 240.542969 319.90625 248.359375 C 319.515625 249.105469 319.113281 249.855469 318.710938 250.597656 C 315.636719 256.226562 309.738281 259.726562 303.316406 259.726562 C 301.199219 259.726562 299.136719 259.347656 297.167969 258.601562 C 302.796875 265.179688 302.796875 274.988281 296.941406 281.589844 C 296.386719 282.214844 295.828125 282.835938 295.261719 283.449219 C 291.953125 287.082031 287.238281 289.164062 282.320312 289.164062 C 278.789062 289.164062 275.335938 288.089844 272.441406 286.109375 C 276.335938 293.832031 273.992188 303.355469 266.746094 308.363281 C 266.0625 308.839844 265.375 309.308594 264.679688 309.777344 C 261.78125 311.722656 258.410156 312.75 254.933594 312.75 C 249.953125 312.75 245.183594 310.601562 241.886719 306.929688 C 243.808594 315.351562 239.253906 324.035156 231.027344 327.164062 C 230.238281 327.460938 229.449219 327.753906 228.652344 328.042969 C 226.722656 328.742188 224.714844 329.097656 222.679688 329.097656 C 216.128906 329.097656 210.214844 325.488281 207.203125 319.78125 C 207.054688 328.429688 200.550781 335.769531 191.800781 336.835938 L 191.503906 336.871094 C 190.765625 336.953125 190.023438 337.039062 189.28125 337.117188 C 188.679688 337.191406 188.050781 337.226562 187.414062 337.226562 Z M 170.476562 320.421875 L 170.785156 322.359375 C 172.066406 330.464844 179.21875 336.578125 187.414062 336.578125 C 188.027344 336.578125 188.632812 336.546875 189.207031 336.480469 C 189.949219 336.402344 190.6875 336.320312 191.425781 336.234375 L 191.71875 336.199219 C 200.644531 335.113281 207.148438 327.246094 206.511719 318.28125 L 206.375 316.324219 L 207.132812 318.132812 C 209.769531 324.40625 215.871094 328.460938 222.675781 328.460938 C 224.636719 328.460938 226.574219 328.117188 228.429688 327.445312 C 229.222656 327.15625 230.011719 326.863281 230.796875 326.566406 C 239.183594 323.375 243.601562 314.191406 240.863281 305.652344 L 240.269531 303.808594 L 241.429688 305.359375 C 244.589844 309.585938 249.636719 312.109375 254.929688 312.109375 C 258.277344 312.109375 261.523438 311.117188 264.316406 309.242188 C 265.007812 308.78125 265.695312 308.308594 266.375 307.839844 C 273.769531 302.726562 275.859375 292.738281 271.128906 285.101562 L 270.097656 283.433594 L 271.613281 284.679688 C 274.617188 287.15625 278.421875 288.519531 282.320312 288.519531 C 287.054688 288.519531 291.597656 286.515625 294.785156 283.015625 C 295.347656 282.40625 295.90625 281.785156 296.457031 281.164062 C 302.429688 274.425781 302.074219 264.21875 295.644531 257.925781 L 294.230469 256.542969 L 296.011719 257.402344 C 298.3125 258.515625 300.773438 259.078125 303.316406 259.078125 C 309.503906 259.078125 315.179688 255.710938 318.140625 250.289062 C 318.542969 249.550781 318.941406 248.804688 319.332031 248.0625 C 323.523438 240.085938 320.730469 230.253906 312.96875 225.683594 L 311.261719 224.675781 L 313.199219 225.085938 C 314.347656 225.328125 315.523438 225.449219 316.6875 225.449219 C 324.34375 225.449219 331.046875 220.273438 332.988281 212.855469 C 333.199219 212.039062 333.40625 211.222656 333.609375 210.40625 C 335.753906 201.675781 330.691406 192.816406 322.085938 190.238281 L 320.210938 189.671875 L 322.167969 189.605469 C 331.136719 189.277344 338.265625 181.984375 338.398438 173 C 338.410156 172.164062 338.417969 171.324219 338.417969 170.351562 L 338.417969 170.058594 C 338.417969 161.046875 331.375 153.652344 322.386719 153.21875 L 320.429688 153.121094 L 322.3125 152.582031 C 330.945312 150.105469 336.117188 141.3125 334.082031 132.554688 C 333.894531 131.726562 333.695312 130.902344 333.492188 130.085938 C 331.613281 122.554688 324.890625 117.296875 317.140625 117.296875 C 316.054688 117.296875 314.957031 117.40625 313.886719 117.617188 L 311.957031 117.996094 L 313.664062 117.015625 C 321.460938 112.539062 324.363281 102.753906 320.277344 94.734375 C 319.898438 93.988281 319.507812 93.242188 319.117188 92.5 C 316.1875 86.964844 310.472656 83.527344 304.199219 83.527344 C 301.738281 83.527344 299.351562 84.054688 297.113281 85.097656 L 295.34375 85.917969 L 296.75 84.570312 C 303.226562 78.359375 303.703125 68.171875 297.828125 61.375 C 297.277344 60.746094 296.722656 60.113281 296.167969 59.484375 C 292.96875 55.898438 288.375 53.835938 283.566406 53.835938 C 279.738281 53.835938 275.988281 55.15625 273.015625 57.554688 L 271.472656 58.792969 L 272.539062 57.128906 C 277.367188 49.566406 275.414062 39.558594 268.097656 34.347656 C 267.40625 33.84375 266.707031 33.359375 266.007812 32.875 C 263.183594 30.933594 259.886719 29.910156 256.46875 29.910156 C 251.152344 29.910156 246.261719 32.328125 243.050781 36.542969 L 241.847656 38.117188 L 242.484375 36.242188 C 245.378906 27.714844 241.074219 18.445312 232.6875 15.136719 C 231.910156 14.832031 231.125 14.53125 230.335938 14.234375 C 228.421875 13.511719 226.421875 13.144531 224.394531 13.144531 C 217.660156 13.144531 211.582031 17.136719 208.914062 23.3125 L 208.125 25.136719 L 208.292969 23.15625 C 209.058594 14.179688 202.65625 6.214844 193.71875 5.03125 C 192.882812 4.917969 192.050781 4.8125 191.214844 4.710938 C 190.566406 4.636719 189.90625 4.601562 189.253906 4.601562 C 181.003906 4.601562 174.003906 10.492188 172.621094 18.613281 L 172.292969 20.546875 L 171.980469 18.609375 C 170.667969 10.382812 163.671875 4.414062 155.347656 4.414062 C 154.75 4.414062 154.136719 4.449219 153.535156 4.511719 C 152.699219 4.605469 151.859375 4.699219 151.027344 4.800781 C 142.101562 5.890625 135.613281 13.769531 136.257812 22.734375 L 136.398438 24.695312 L 135.636719 22.882812 C 133 16.625 126.898438 12.582031 120.097656 12.582031 C 118.136719 12.582031 116.199219 12.921875 114.335938 13.597656 C 113.539062 13.890625 112.746094 14.1875 111.957031 14.488281 C 103.578125 17.695312 99.171875 26.886719 101.929688 35.414062 L 102.527344 37.257812 L 101.363281 35.710938 C 98.199219 31.5 93.15625 28.984375 87.871094 28.984375 C 84.523438 28.984375 81.277344 29.976562 78.484375 31.847656 C 77.785156 32.316406 77.089844 32.789062 76.402344 33.269531 C 69.019531 38.394531 66.949219 48.382812 71.6875 56.007812 L 72.726562 57.675781 L 71.207031 56.429688 C 68.203125 53.964844 64.40625 52.605469 60.515625 52.605469 C 55.78125 52.605469 51.238281 54.613281 48.046875 58.105469 C 47.480469 58.730469 46.917969 59.359375 46.359375 59.992188 C 40.402344 66.738281 40.773438 76.941406 47.210938 83.21875 L 48.628906 84.597656 L 46.84375 83.742188 C 44.546875 82.636719 42.09375 82.074219 39.554688 82.074219 C 33.367188 82.074219 27.683594 85.453125 24.730469 90.886719 C 24.324219 91.628906 23.925781 92.378906 23.535156 93.128906 C 19.359375 101.113281 22.167969 110.933594 29.933594 115.484375 L 31.644531 116.488281 L 29.703125 116.082031 C 28.566406 115.84375 27.402344 115.722656 26.25 115.722656 C 18.582031 115.722656 11.871094 120.914062 9.933594 128.347656 C 9.726562 129.15625 9.515625 129.976562 9.316406 130.792969 C 7.1875 139.527344 12.261719 148.378906 20.867188 150.945312 L 22.746094 151.503906 L 20.785156 151.578125 C 11.816406 151.921875 4.699219 159.222656 4.578125 168.207031 C 4.570312 168.96875 4.566406 169.722656 4.566406 170.484375 L 4.566406 170.699219 C 4.566406 179.8125 11.742188 187.167969 20.902344 187.449219 L 23.140625 187.519531 L 20.976562 188.089844 C 12.109375 190.421875 6.777344 199.246094 8.84375 208.1875 C 9.03125 209.007812 9.226562 209.824219 9.429688 210.644531 C 11.296875 218.191406 18.019531 223.460938 25.785156 223.460938 C 26.863281 223.460938 27.953125 223.359375 29.019531 223.148438 L 30.953125 222.769531 L 29.246094 223.746094 C 21.4375 228.210938 18.519531 238 22.597656 246.023438 C 22.976562 246.769531 23.367188 247.515625 23.757812 248.253906 C 26.6875 253.804688 32.40625 257.25 38.683594 257.25 C 41.136719 257.25 43.515625 256.726562 45.75 255.691406 L 47.519531 254.867188 L 46.109375 256.21875 C 39.617188 262.425781 39.136719 272.613281 45.007812 279.414062 L 45.109375 279.535156 C 45.621094 280.125 46.136719 280.722656 46.660156 281.308594 C 49.855469 284.902344 54.453125 286.964844 59.269531 286.964844 C 63.089844 286.964844 66.828125 285.652344 69.804688 283.265625 L 71.34375 282.03125 L 70.28125 283.691406 C 65.433594 291.269531 67.382812 301.289062 74.71875 306.507812 C 75.398438 306.992188 76.082031 307.46875 76.765625 307.941406 C 79.601562 309.898438 82.914062 310.933594 86.34375 310.933594 C 91.644531 310.933594 96.527344 308.523438 99.738281 304.328125 L 100.941406 302.753906 L 100.300781 304.628906 C 97.398438 313.152344 101.683594 322.421875 110.0625 325.738281 C 110.84375 326.046875 111.628906 326.351562 112.417969 326.648438 C 114.34375 327.375 116.347656 327.746094 118.386719 327.746094 C 125.113281 327.746094 131.183594 323.761719 133.855469 317.597656 L 134.648438 315.769531 L 134.476562 317.753906 C 133.699219 326.730469 140.089844 334.703125 149.027344 335.910156 C 149.859375 336.019531 150.691406 336.125 151.53125 336.230469 C 152.199219 336.308594 152.878906 336.351562 153.550781 336.351562 C 161.769531 336.351562 168.746094 330.464844 170.140625 322.351562 Z M 170.476562 320.421875 " fill-opacity="1" fill-rule="nonzero"/></g></g></g></g><g fill="#0097b2" fill-opacity="1"><g transform="translate(31.526311, 189.1753)"><g><path d="M 12.078125 1.09375 L 12.40625 -4.078125 C 14.425781 -3.867188 15.835938 -3.765625 16.640625 -3.765625 C 17.140625 -3.765625 17.445312 -3.816406 17.5625 -3.921875 C 17.675781 -4.023438 17.734375 -4.335938 17.734375 -4.859375 L 17.734375 -10.484375 C 13.523438 -6.941406 9.394531 -4.019531 5.34375 -1.71875 L 2.671875 -6.4375 C 7.003906 -8.820312 11.367188 -11.910156 15.765625 -15.703125 L 2.828125 -15.703125 L 2.828125 -20.875 L 17.734375 -20.875 L 17.734375 -25.265625 L 23.546875 -25.265625 L 23.546875 -20.875 L 29.1875 -20.875 L 29.1875 -15.703125 L 23.546875 -15.703125 L 23.546875 -4.859375 C 23.546875 -3.796875 23.53125 -2.957031 23.5 -2.34375 C 23.46875 -1.738281 23.363281 -1.175781 23.1875 -0.65625 C 23.007812 -0.132812 22.804688 0.238281 22.578125 0.46875 C 22.359375 0.695312 21.976562 0.894531 21.4375 1.0625 C 20.894531 1.226562 20.328125 1.328125 19.734375 1.359375 C 19.148438 1.390625 18.328125 1.40625 17.265625 1.40625 C 16.109375 1.40625 14.378906 1.300781 12.078125 1.09375 Z M 12.078125 1.09375 "/></g></g></g><g fill="#0097b2" fill-opacity="1"><g transform="translate(66.59456, 189.1753)"><g><path d="M 8.953125 2.203125 L 7.84375 -3.140625 C 10.269531 -3.367188 12.25 -3.726562 13.78125 -4.21875 C 15.3125 -4.707031 16.554688 -5.421875 17.515625 -6.359375 C 18.472656 -7.304688 19.140625 -8.445312 19.515625 -9.78125 C 19.898438 -11.125 20.09375 -12.832031 20.09375 -14.90625 L 20.09375 -24.171875 L 26.53125 -24.171875 L 26.53125 -15.0625 C 26.53125 -9.5625 25.078125 -5.40625 22.171875 -2.59375 C 19.273438 0.21875 14.867188 1.816406 8.953125 2.203125 Z M 4.859375 -9.734375 L 4.859375 -24.171875 L 11.140625 -24.171875 L 11.140625 -9.734375 Z M 4.859375 -9.734375 "/></g></g></g><g fill="#0097b2" fill-opacity="1"><g transform="translate(101.662808, 189.1753)"><g><path d="M 28.96875 -18.078125 C 27.675781 -11.460938 25.179688 -6.648438 21.484375 -3.640625 C 17.796875 -0.628906 12.203125 1.210938 4.703125 1.890625 L 3.765625 -3.765625 C 7.003906 -4.035156 9.707031 -4.484375 11.875 -5.109375 C 14.039062 -5.742188 15.90625 -6.660156 17.46875 -7.859375 C 19.03125 -9.066406 20.257812 -10.550781 21.15625 -12.3125 C 22.050781 -14.082031 22.773438 -16.316406 23.328125 -19.015625 Z M 26.25 -21.28125 L 23.296875 -19.875 C 22.617188 -21.25 21.820312 -22.765625 20.90625 -24.421875 L 23.859375 -25.890625 C 24.710938 -24.285156 25.507812 -22.75 26.25 -21.28125 Z M 31.078125 -21.65625 L 28.0625 -20.21875 C 26.9375 -22.394531 26.117188 -23.941406 25.609375 -24.859375 L 28.625 -26.375 C 29.59375 -24.613281 30.410156 -23.039062 31.078125 -21.65625 Z M 2.515625 -11.921875 L 3.609375 -16.953125 C 6.597656 -16.472656 10.101562 -15.789062 14.125 -14.90625 L 13.03125 -9.890625 C 9.007812 -10.765625 5.503906 -11.441406 2.515625 -11.921875 Z M 14.75 -17.265625 C 10.96875 -18.054688 7.410156 -18.738281 4.078125 -19.3125 L 5.171875 -24.484375 C 8.503906 -23.921875 12.066406 -23.238281 15.859375 -22.4375 Z M 14.75 -17.265625 "/></g></g></g><g fill="#0097b2" fill-opacity="1"><g transform="translate(136.731062, 189.1753)"><g><path d="M 29.1875 -19.46875 L 29.1875 -13.8125 L 19.78125 -13.8125 L 19.78125 -13.1875 C 19.78125 -8.832031 18.679688 -5.421875 16.484375 -2.953125 C 14.285156 -0.484375 10.9375 1.128906 6.4375 1.890625 L 4.703125 -3.609375 C 7.910156 -4.128906 10.175781 -5.117188 11.5 -6.578125 C 12.832031 -8.035156 13.5 -10.238281 13.5 -13.1875 L 13.5 -13.8125 L 2.203125 -13.8125 L 2.203125 -19.46875 L 13.5 -19.46875 L 13.5 -24.796875 L 19.78125 -24.796875 L 19.78125 -19.46875 Z M 29.1875 -19.46875 "/></g></g></g><g fill="#0097b2" fill-opacity="1"><g transform="translate(171.799305, 189.1753)"><g><path d="M 25.109375 -13.96875 L 30.765625 -13.1875 C 30.304688 -7.957031 28.894531 -4.21875 26.53125 -1.96875 C 24.164062 0.28125 20.554688 1.40625 15.703125 1.40625 L 14.75 1.40625 L 14.75 -24.171875 L 20.875 -24.171875 L 20.875 -4.921875 C 22.175781 -5.453125 23.132812 -6.394531 23.75 -7.75 C 24.363281 -9.113281 24.816406 -11.1875 25.109375 -13.96875 Z M 0.9375 -3.140625 C 1.988281 -3.679688 2.789062 -4.171875 3.34375 -4.609375 C 3.894531 -5.054688 4.394531 -5.582031 4.84375 -6.1875 C 5.300781 -6.789062 5.613281 -7.609375 5.78125 -8.640625 C 5.945312 -9.679688 6.070312 -10.851562 6.15625 -12.15625 C 6.238281 -13.46875 6.28125 -15.273438 6.28125 -17.578125 L 6.28125 -24.171875 L 12.25 -24.171875 L 12.25 -17.578125 C 12.25 -13.203125 12.003906 -9.800781 11.515625 -7.375 C 11.035156 -4.945312 10.242188 -3.0625 9.140625 -1.71875 C 8.046875 -0.382812 6.410156 0.816406 4.234375 1.890625 Z M 0.9375 -3.140625 "/></g></g></g><g fill="#0097b2" fill-opacity="1"><g transform="translate(206.867548, 189.1753)"><g><path d="M 28.40625 -4.078125 L 27.78125 1.71875 C 19.070312 0.320312 10.859375 -0.507812 3.140625 -0.78125 L 3.453125 -6.59375 C 11.378906 -6.34375 19.695312 -5.503906 28.40625 -4.078125 Z M 25.109375 -13.5 L 24.328125 -7.6875 C 17.960938 -8.78125 11.84375 -9.460938 5.96875 -9.734375 L 6.4375 -15.53125 C 12.5 -15.257812 18.722656 -14.582031 25.109375 -13.5 Z M 4.390625 -18.453125 L 4.703125 -24.109375 C 12.304688 -23.816406 19.84375 -23.1875 27.3125 -22.21875 L 26.6875 -16.578125 C 18.726562 -17.578125 11.296875 -18.203125 4.390625 -18.453125 Z M 4.390625 -18.453125 "/></g></g></g><g fill="#0097b2" fill-opacity="1"><g transform="translate(241.93579, 189.1753)"><g><path d="M 5.015625 -17.109375 L 5.015625 -22.921875 L 26.375 -22.921875 L 26.375 -17.109375 Z M 2.828125 0.3125 L 2.828125 -5.5 L 28.5625 -5.5 L 28.5625 0.3125 Z M 2.828125 0.3125 "/></g></g></g><g fill="#0097b2" fill-opacity="1"><g transform="translate(277.004033, 189.1753)"><g><path d="M 6.59375 1.890625 L 2.828125 -2.203125 C 4.941406 -3.847656 6.535156 -5.640625 7.609375 -7.578125 C 8.691406 -9.515625 9.441406 -12.113281 9.859375 -15.375 L 3.140625 -15.375 L 3.140625 -20.71875 L 10.296875 -20.71875 C 10.335938 -21.613281 10.359375 -23.078125 10.359375 -25.109375 L 16.171875 -25.109375 C 16.171875 -23.566406 16.140625 -22.101562 16.078125 -20.71875 L 27.625 -20.71875 L 27.625 -16.015625 C 27.625 -12.867188 27.554688 -10.273438 27.421875 -8.234375 C 27.285156 -6.191406 27.085938 -4.519531 26.828125 -3.21875 C 26.566406 -1.925781 26.164062 -0.960938 25.625 -0.328125 C 25.09375 0.304688 24.523438 0.726562 23.921875 0.9375 C 23.316406 1.144531 22.507812 1.25 21.5 1.25 C 19.78125 1.25 17.476562 1.09375 14.59375 0.78125 L 15.0625 -4.546875 C 17.445312 -4.335938 18.96875 -4.234375 19.625 -4.234375 C 20.0625 -4.234375 20.390625 -4.40625 20.609375 -4.75 C 20.828125 -5.101562 21.003906 -5.921875 21.140625 -7.203125 C 21.273438 -8.492188 21.34375 -10.4375 21.34375 -13.03125 L 21.34375 -15.375 L 15.65625 -15.375 C 15.15625 -11.195312 14.195312 -7.804688 12.78125 -5.203125 C 11.375 -2.609375 9.3125 -0.242188 6.59375 1.890625 Z M 6.59375 1.890625 "/></g></g></g><g fill="#0097b2" fill-opacity="1"><g transform="translate(312.072276, 189.1753)"><g><path d="M 2.515625 -8.3125 L 2.515625 -14.28125 L 28.875 -14.28125 L 28.875 -8.3125 Z M 2.515625 -8.3125 "/></g></g></g><g fill="#545454" fill-opacity="1"><g transform="translate(87.705995, 222.175298)"><g><path d="M 10.140625 -13.78125 L 10.171875 -13.75 C 10.796875 -13.945312 11.390625 -14.046875 11.953125 -14.046875 C 14.523438 -14.046875 16.304688 -13.066406 17.296875 -11.109375 C 18.765625 -11.398438 20.453125 -11.640625 22.359375 -11.828125 L 22.75 -7.796875 C 21.28125 -7.660156 19.796875 -7.445312 18.296875 -7.15625 C 18.398438 -6.269531 18.453125 -5.269531 18.453125 -4.15625 L 13.515625 -4.15625 C 13.515625 -4.914062 13.507812 -5.460938 13.5 -5.796875 C 11.78125 -5.109375 10.921875 -4.476562 10.921875 -3.90625 C 10.921875 -3.394531 11.222656 -3.023438 11.828125 -2.796875 C 12.429688 -2.578125 13.601562 -2.46875 15.34375 -2.46875 C 16.851562 -2.46875 19.0625 -2.6875 21.96875 -3.125 L 22.359375 1.046875 C 19.984375 1.390625 17.644531 1.5625 15.34375 1.5625 C 12.007812 1.5625 9.613281 1.148438 8.15625 0.328125 C 6.707031 -0.484375 5.984375 -1.71875 5.984375 -3.375 C 5.984375 -4.625 6.519531 -5.800781 7.59375 -6.90625 C 8.664062 -8.019531 10.285156 -8.976562 12.453125 -9.78125 C 12.054688 -10.195312 11.457031 -10.40625 10.65625 -10.40625 C 9.820312 -10.40625 9.054688 -10.113281 8.359375 -9.53125 C 7.671875 -8.945312 6.617188 -7.675781 5.203125 -5.71875 L 1.296875 -7.796875 C 3.140625 -10.410156 4.550781 -12.75 5.53125 -14.8125 L 1.8125 -14.8125 L 1.8125 -18.71875 L 7.171875 -18.71875 C 7.609375 -19.9375 7.90625 -20.800781 8.0625 -21.3125 L 13 -20.546875 C 12.863281 -20.128906 12.640625 -19.519531 12.328125 -18.71875 L 22.625 -18.71875 L 22.625 -14.8125 L 10.65625 -14.8125 C 10.59375 -14.707031 10.503906 -14.539062 10.390625 -14.3125 C 10.273438 -14.082031 10.191406 -13.90625 10.140625 -13.78125 Z M 10.140625 -13.78125 "/></g></g></g><g fill="#545454" fill-opacity="1"><g transform="translate(116.740206, 222.175298)"><g><path d="M 18.453125 -5.984375 L 22.359375 -7.9375 C 23.609375 -5.695312 24.734375 -3.179688 25.734375 -0.390625 L 21.703125 1.4375 C 21.484375 0.71875 21.113281 -0.296875 20.59375 -1.609375 C 20.539062 -0.710938 20.460938 -0.03125 20.359375 0.4375 C 20.253906 0.90625 20.046875 1.28125 19.734375 1.5625 C 19.421875 1.851562 19.070312 2.039062 18.6875 2.125 C 18.3125 2.21875 17.71875 2.296875 16.90625 2.359375 C 16.15625 2.429688 15.023438 2.46875 13.515625 2.46875 C 12.367188 2.46875 11.242188 2.453125 10.140625 2.421875 C 8.441406 2.347656 7.363281 2.085938 6.90625 1.640625 C 6.457031 1.203125 6.234375 0.148438 6.234375 -1.515625 L 6.234375 -3.328125 C 5.609375 -1.492188 4.832031 0.21875 3.90625 1.8125 L 0.265625 -0.78125 C 1.472656 -2.945312 2.425781 -5.203125 3.125 -7.546875 L 6.234375 -6.296875 L 6.234375 -7.9375 L 11.046875 -7.9375 L 11.046875 -2.234375 C 11.046875 -1.898438 11.070312 -1.695312 11.125 -1.625 C 11.175781 -1.5625 11.320312 -1.515625 11.5625 -1.484375 C 11.945312 -1.453125 12.515625 -1.4375 13.265625 -1.4375 C 13.835938 -1.4375 14.398438 -1.453125 14.953125 -1.484375 C 15.535156 -1.535156 15.890625 -1.664062 16.015625 -1.875 C 16.148438 -2.082031 16.226562 -2.695312 16.25 -3.71875 L 14.8125 -2.734375 C 13.8125 -4.253906 12.644531 -5.726562 11.3125 -7.15625 L 13.703125 -8.703125 L 13.125 -8.703125 C 11.707031 -8.703125 10.234375 -8.75 8.703125 -8.84375 C 7.804688 -8.894531 7.125 -8.941406 6.65625 -8.984375 C 6.1875 -9.023438 5.726562 -9.128906 5.28125 -9.296875 C 4.832031 -9.460938 4.523438 -9.625 4.359375 -9.78125 C 4.191406 -9.945312 4.035156 -10.25 3.890625 -10.6875 C 3.753906 -11.132812 3.675781 -11.585938 3.65625 -12.046875 C 3.644531 -12.503906 3.640625 -13.171875 3.640625 -14.046875 L 3.640625 -15.46875 L 1.171875 -15.46875 L 1.171875 -19.375 L 10.53125 -19.375 L 10.53125 -21.453125 L 15.46875 -21.453125 L 15.46875 -19.375 L 24.828125 -19.375 L 24.828125 -15.46875 L 8.578125 -15.46875 L 8.578125 -14.046875 C 8.578125 -13.453125 8.628906 -13.09375 8.734375 -12.96875 C 8.835938 -12.851562 9.175781 -12.773438 9.75 -12.734375 C 10.90625 -12.648438 12.03125 -12.609375 13.125 -12.609375 C 15.46875 -12.609375 18.976562 -12.695312 23.65625 -12.875 L 23.796875 -8.96875 C 20.535156 -8.832031 17.707031 -8.753906 15.3125 -8.734375 C 16.375 -7.585938 17.335938 -6.363281 18.203125 -5.0625 L 16.59375 -3.953125 L 19.78125 -3.4375 C 19.332031 -4.351562 18.890625 -5.203125 18.453125 -5.984375 Z M 18.453125 -5.984375 "/></g></g></g><g fill="#545454" fill-opacity="1"><g transform="translate(145.774417, 222.175298)"><g><path d="M 21.1875 -11.953125 C 21.1875 -11.109375 21.054688 -10.113281 20.796875 -8.96875 C 20.535156 -7.894531 20.40625 -6.898438 20.40625 -5.984375 C 20.40625 -4.765625 20.625 -4.15625 21.0625 -4.15625 C 21.425781 -4.15625 22.207031 -4.675781 23.40625 -5.71875 L 25.734375 -2.34375 C 24.804688 -1.375 23.789062 -0.609375 22.6875 -0.046875 C 21.582031 0.503906 20.5625 0.78125 19.625 0.78125 C 18.1875 0.78125 17.132812 0.316406 16.46875 -0.609375 C 15.800781 -1.535156 15.46875 -3.148438 15.46875 -5.453125 C 15.46875 -6.378906 15.597656 -7.378906 15.859375 -8.453125 C 16.117188 -9.597656 16.25 -10.59375 16.25 -11.4375 C 16.25 -12.65625 16.03125 -13.265625 15.59375 -13.265625 C 15.476562 -13.265625 15.332031 -13.203125 15.15625 -13.078125 C 14.976562 -12.953125 14.578125 -12.609375 13.953125 -12.046875 C 13.335938 -11.484375 12.414062 -10.613281 11.1875 -9.4375 L 11.1875 1.8125 L 6.5 1.8125 L 6.5 -4.890625 C 5.976562 -4.367188 5.023438 -3.429688 3.640625 -2.078125 L 0.515625 -5.203125 C 4.085938 -8.734375 6.082031 -10.703125 6.5 -11.109375 L 6.5 -13.265625 L 1.296875 -13.265625 L 1.296875 -17.421875 L 6.5 -17.421875 L 6.5 -20.796875 L 11.1875 -20.796875 L 11.1875 -15.46875 C 12.582031 -16.695312 13.628906 -17.457031 14.328125 -17.75 C 15.035156 -18.050781 15.894531 -18.203125 16.90625 -18.203125 C 18.445312 -18.203125 19.546875 -17.757812 20.203125 -16.875 C 20.859375 -15.988281 21.1875 -14.347656 21.1875 -11.953125 Z M 21.1875 -11.953125 "/></g></g></g><g fill="#545454" fill-opacity="1"><g transform="translate(174.808631, 222.175298)"><g><path d="M 24.1875 -13.265625 C 22.945312 -13.472656 21.734375 -13.601562 20.546875 -13.65625 L 20.546875 -6.5 C 21.929688 -5.488281 23.398438 -4.1875 24.953125 -2.59375 L 22.09375 0.515625 C 21.46875 -0.0664062 20.769531 -0.695312 20 -1.375 C 19.125 0.75 17.140625 1.8125 14.046875 1.8125 C 11.910156 1.8125 10.25 1.320312 9.0625 0.34375 C 7.875 -0.632812 7.28125 -1.960938 7.28125 -3.640625 C 7.28125 -5.285156 7.863281 -6.601562 9.03125 -7.59375 C 10.207031 -8.59375 11.878906 -9.09375 14.046875 -9.09375 C 14.597656 -9.09375 15.203125 -9.015625 15.859375 -8.859375 L 15.859375 -17.9375 C 19.191406 -17.9375 22.140625 -17.765625 24.703125 -17.421875 Z M 1.5625 -13.78125 L 1.5625 -17.9375 L 5.609375 -17.9375 C 5.960938 -19.425781 6.21875 -20.550781 6.375 -21.3125 L 10.796875 -20.796875 C 10.546875 -19.515625 10.351562 -18.5625 10.21875 -17.9375 L 14.046875 -17.9375 L 14.046875 -13.78125 L 9.25 -13.78125 C 8.164062 -9.425781 6.816406 -5.132812 5.203125 -0.90625 L 0.90625 -2.34375 C 2.332031 -6.175781 3.554688 -9.988281 4.578125 -13.78125 Z M 15.859375 -4.6875 C 15.234375 -5.03125 14.628906 -5.203125 14.046875 -5.203125 C 13.367188 -5.203125 12.847656 -5.054688 12.484375 -4.765625 C 12.128906 -4.484375 11.953125 -4.109375 11.953125 -3.640625 C 11.953125 -3.148438 12.132812 -2.765625 12.5 -2.484375 C 12.863281 -2.210938 13.378906 -2.078125 14.046875 -2.078125 C 14.734375 -2.078125 15.207031 -2.242188 15.46875 -2.578125 C 15.726562 -2.921875 15.859375 -3.578125 15.859375 -4.546875 Z M 15.859375 -4.6875 "/></g></g></g><g fill="#545454" fill-opacity="1"><g transform="translate(203.842839, 222.175298)"><g><path d="M 16.125 -17.421875 L 20.671875 -18.71875 C 23.015625 -13.65625 24.1875 -7.847656 24.1875 -1.296875 L 19.234375 -1.296875 C 19.234375 -7.015625 18.195312 -12.390625 16.125 -17.421875 Z M 9.234375 -3.375 C 9.578125 -3.375 10.046875 -3.796875 10.640625 -4.640625 C 11.242188 -5.492188 11.859375 -6.71875 12.484375 -8.3125 L 16.640625 -6.765625 C 15.753906 -4.160156 14.582031 -2.117188 13.125 -0.640625 C 11.675781 0.828125 10.25 1.5625 8.84375 1.5625 C 7.25 1.5625 5.765625 0.53125 4.390625 -1.53125 C 3.023438 -3.59375 2.34375 -6.113281 2.34375 -9.09375 C 2.34375 -12.445312 2.816406 -15.566406 3.765625 -18.453125 L 8.578125 -17.9375 C 8.203125 -16.65625 7.890625 -15.171875 7.640625 -13.484375 C 7.398438 -11.804688 7.28125 -10.34375 7.28125 -9.09375 C 7.28125 -8.28125 7.34375 -7.503906 7.46875 -6.765625 C 7.601562 -6.035156 7.773438 -5.429688 7.984375 -4.953125 C 8.191406 -4.472656 8.398438 -4.085938 8.609375 -3.796875 C 8.828125 -3.515625 9.035156 -3.375 9.234375 -3.375 Z M 9.234375 -3.375 "/></g></g></g><g fill="#545454" fill-opacity="1"><g transform="translate(232.877047, 222.175298)"><g><path d="M 21.53125 -8.140625 L 18.84375 -6.859375 C 18.175781 -8.234375 17.441406 -9.613281 16.640625 -11 L 19.3125 -12.34375 C 20.113281 -10.875 20.851562 -9.472656 21.53125 -8.140625 Z M 25.734375 -8.96875 L 23.015625 -7.671875 C 22.234375 -9.179688 21.476562 -10.582031 20.75 -11.875 L 23.484375 -13.265625 C 24.097656 -12.128906 24.847656 -10.695312 25.734375 -8.96875 Z M 10.53125 -14.53125 L 10.53125 -14.59375 C 7.507812 -14.488281 4.546875 -14.4375 1.640625 -14.4375 L 1.640625 -18.84375 C 8.722656 -18.84375 15.957031 -19.019531 23.34375 -19.375 L 23.484375 -14.953125 C 19.671875 -14.742188 16.796875 -14 14.859375 -12.71875 C 12.921875 -11.445312 11.953125 -9.804688 11.953125 -7.796875 C 11.953125 -6.222656 12.453125 -4.984375 13.453125 -4.078125 C 14.460938 -3.179688 15.785156 -2.734375 17.421875 -2.734375 C 18.210938 -2.734375 19.242188 -2.84375 20.515625 -3.0625 L 21.0625 1.4375 C 19.757812 1.6875 18.457031 1.8125 17.15625 1.8125 C 13.96875 1.8125 11.414062 0.992188 9.5 -0.640625 C 7.582031 -2.273438 6.625 -4.488281 6.625 -7.28125 C 6.625 -8.582031 6.972656 -9.882812 7.671875 -11.1875 C 8.378906 -12.5 9.332031 -13.613281 10.53125 -14.53125 Z M 10.53125 -14.53125 "/></g></g></g><g fill="#545454" fill-opacity="1"><g transform="translate(261.911255, 222.175298)"><g><path d="M 16.90625 -18.453125 C 19.445312 -18.453125 21.296875 -17.707031 22.453125 -16.21875 C 23.609375 -14.726562 24.1875 -12.179688 24.1875 -8.578125 C 24.1875 -7.222656 24.054688 -6.019531 23.796875 -4.96875 C 24.191406 -4.476562 24.835938 -3.601562 25.734375 -2.34375 L 22.75 0.390625 C 22.625 0.210938 22.453125 -0.03125 22.234375 -0.34375 C 22.023438 -0.65625 21.875 -0.867188 21.78125 -0.984375 C 20.539062 0.367188 18.914062 1.046875 16.90625 1.046875 C 15.1875 1.046875 13.800781 0.570312 12.75 -0.375 C 11.707031 -1.332031 11.1875 -2.59375 11.1875 -4.15625 C 11.1875 -5.71875 11.703125 -6.972656 12.734375 -7.921875 C 13.773438 -8.878906 15.164062 -9.359375 16.90625 -9.359375 C 17.71875 -9.359375 18.539062 -9.175781 19.375 -8.8125 C 19.351562 -10.269531 19.253906 -11.359375 19.078125 -12.078125 C 18.910156 -12.796875 18.644531 -13.28125 18.28125 -13.53125 C 17.914062 -13.78125 17.367188 -13.90625 16.640625 -13.90625 C 15.941406 -13.90625 15.113281 -13.613281 14.15625 -13.03125 C 13.207031 -12.457031 11.957031 -11.425781 10.40625 -9.9375 L 10.40625 1.8125 L 5.984375 1.8125 L 5.984375 -5.375 C 4.972656 -4.289062 4.28125 -3.539062 3.90625 -3.125 L 0.65625 -6.109375 C 2.75 -8.503906 4.523438 -10.425781 5.984375 -11.875 L 5.984375 -13.515625 L 1.5625 -13.515625 L 1.5625 -17.421875 L 5.984375 -17.421875 L 5.984375 -20.796875 L 10.40625 -20.796875 L 10.40625 -15.828125 C 12.6875 -17.578125 14.851562 -18.453125 16.90625 -18.453125 Z M 19.0625 -4.578125 C 18.394531 -5.253906 17.757812 -5.59375 17.15625 -5.59375 C 16.570312 -5.59375 16.125 -5.46875 15.8125 -5.21875 C 15.5 -4.976562 15.34375 -4.671875 15.34375 -4.296875 C 15.34375 -3.835938 15.476562 -3.484375 15.75 -3.234375 C 16.03125 -2.984375 16.414062 -2.859375 16.90625 -2.859375 C 17.488281 -2.859375 17.945312 -2.976562 18.28125 -3.21875 C 18.625 -3.46875 18.882812 -3.921875 19.0625 -4.578125 Z M 19.0625 -4.578125 "/></g></g></g><g fill="#81cce0" fill-opacity="1"><g transform="translate(129.950118, 83.977572)"><g><path d="M 12.734375 -16.421875 C 15.054688 -15.679688 17.09375 -14.972656 18.84375 -14.296875 L 18.15625 -12.5 C 18.695312 -12.769531 19.289062 -13.097656 19.9375 -13.484375 C 20.800781 -13.984375 21.28125 -14.320312 21.375 -14.5 C 21.46875 -14.675781 21.359375 -15.035156 21.046875 -15.578125 L 18.578125 -19.828125 Z M 6.546875 0.421875 C 6.191406 0.617188 5.164062 1.140625 3.46875 1.984375 L 0.515625 -2.390625 C 1.785156 -2.992188 2.59375 -3.398438 2.9375 -3.609375 C 3.113281 -3.710938 3.1875 -3.816406 3.15625 -3.921875 C 3.125 -4.023438 2.953125 -4.347656 2.640625 -4.890625 L 0.75 -8.125 C -0.4375 -7.132812 -1.203125 -6.507812 -1.546875 -6.25 L -4.78125 -11.125 C -3.550781 -12.082031 -2.6875 -12.773438 -2.1875 -13.203125 L -5.40625 -18.734375 L -8.25 -17.09375 L -10.984375 -21.8125 L -8.140625 -23.453125 L -10.890625 -28.1875 L -5.390625 -31.375 L -2.640625 -26.640625 L -0.578125 -27.84375 L 2.15625 -23.125 L 0.09375 -21.921875 L 2.65625 -17.515625 C 3.414062 -18.242188 3.953125 -18.773438 4.265625 -19.109375 L 7.734375 -14.578125 C 7.484375 -14.335938 6.765625 -13.640625 5.578125 -12.484375 L 7.765625 -8.71875 C 8.390625 -7.644531 8.863281 -6.796875 9.1875 -6.171875 C 9.507812 -5.546875 9.753906 -4.929688 9.921875 -4.328125 C 10.085938 -3.734375 10.144531 -3.265625 10.09375 -2.921875 C 10.050781 -2.585938 9.875 -2.21875 9.5625 -1.8125 C 9.257812 -1.414062 8.882812 -1.0625 8.4375 -0.75 C 8 -0.445312 7.367188 -0.0546875 6.546875 0.421875 Z M 23.703125 -9.546875 C 23.109375 -9.203125 21.816406 -8.523438 19.828125 -7.515625 L 17.515625 -10.921875 L 16.734375 -8.859375 C 14.847656 -9.597656 12.488281 -10.40625 9.65625 -11.28125 L 11.34375 -15.625 L 8.515625 -13.984375 L 5.859375 -18.546875 L 15.921875 -24.390625 L 15.015625 -25.96875 L 4.953125 -20.125 L 2.296875 -24.6875 L 8.421875 -28.25 L 7.421875 -29.984375 L 1.921875 -26.78125 L -0.640625 -31.1875 L 4.859375 -34.390625 L 3.21875 -37.21875 L 9.046875 -40.59375 L 10.6875 -37.765625 L 15.875 -40.78125 L 18.4375 -36.375 L 13.25 -33.359375 L 14.25 -31.625 L 20.390625 -35.1875 L 23.046875 -30.625 L 20.671875 -29.25 L 21.578125 -27.671875 L 23.953125 -29.046875 L 26.609375 -24.484375 L 24.234375 -23.109375 L 26.328125 -19.5 C 26.953125 -18.425781 27.425781 -17.578125 27.75 -16.953125 C 28.070312 -16.328125 28.296875 -15.703125 28.421875 -15.078125 C 28.554688 -14.453125 28.578125 -13.957031 28.484375 -13.59375 C 28.398438 -13.226562 28.132812 -12.804688 27.6875 -12.328125 C 27.238281 -11.847656 26.726562 -11.414062 26.15625 -11.03125 C 25.582031 -10.65625 24.765625 -10.160156 23.703125 -9.546875 Z M 23.703125 -9.546875 "/></g></g></g><g fill="#81cce0" fill-opacity="1"><g transform="translate(159.556664, 66.21357)"><g><path d="M 3.28125 -19.65625 L 3.28125 -25.46875 L 10.765625 -25.46875 C 10.941406 -26.414062 11.113281 -27.75 11.28125 -29.46875 L 17.828125 -29.109375 C 17.753906 -28.210938 17.597656 -27 17.359375 -25.46875 L 33.109375 -25.46875 L 33.109375 -19.65625 L 16.15625 -19.65625 C 15.8125 -18.4375 15.445312 -17.234375 15.0625 -16.046875 L 15.140625 -15.96875 C 17.128906 -16.476562 19 -16.734375 20.75 -16.734375 C 24.144531 -16.734375 26.75 -15.929688 28.5625 -14.328125 C 30.382812 -12.734375 31.296875 -10.503906 31.296875 -7.640625 C 31.296875 -4.703125 30.046875 -2.328125 27.546875 -0.515625 C 25.046875 1.285156 21.6875 2.1875 17.46875 2.1875 C 14.257812 2.1875 11.101562 1.820312 8 1.09375 L 9.09375 -4.734375 C 12.25 -4.003906 15.039062 -3.640625 17.46875 -3.640625 C 19.625 -3.640625 21.3125 -4.039062 22.53125 -4.84375 C 23.757812 -5.644531 24.375 -6.695312 24.375 -8 C 24.375 -9.945312 23.039062 -10.921875 20.375 -10.921875 C 18.726562 -10.921875 17.300781 -10.726562 16.09375 -10.34375 C 14.894531 -9.96875 13.472656 -9.25 11.828125 -8.1875 L 5.828125 -10.546875 C 7.453125 -14.015625 8.648438 -17.050781 9.421875 -19.65625 Z M 3.28125 -19.65625 "/></g></g></g><g fill="#81cce0" fill-opacity="1"><g transform="translate(194.07993, 65.711968)"><g><path d="M 28.953125 6.96875 C 26.679688 8.300781 24.347656 9.410156 21.953125 10.296875 C 22.960938 10.972656 23.796875 11.5 24.453125 11.875 C 24.679688 12.007812 24.914062 12.015625 25.15625 11.890625 C 25.394531 11.765625 25.820312 11.316406 26.4375 10.546875 C 27.050781 9.785156 27.890625 8.59375 28.953125 6.96875 Z M 7.53125 -12.25 C 10 -15.351562 12.65625 -19.207031 15.5 -23.8125 L 19.109375 -21.3125 C 18.234375 -19.90625 17.59375 -18.867188 17.1875 -18.203125 L 17.75 -17.875 L 20.5 -22.609375 L 25.84375 -19.5 L 23.09375 -14.765625 L 25.140625 -13.59375 L 23.390625 -10.578125 C 26.253906 -12.273438 28.921875 -14.457031 31.390625 -17.125 L 35.921875 -13.65625 C 35.296875 -13.007812 34.421875 -12.1875 33.296875 -11.1875 L 43.609375 -5.203125 C 39.734375 1.328125 36.796875 6.195312 34.796875 9.40625 C 32.796875 12.613281 31.082031 15.007812 29.65625 16.59375 C 28.238281 18.175781 27.238281 19.003906 26.65625 19.078125 C 26.070312 19.148438 25.285156 18.894531 24.296875 18.3125 C 22.304688 17.15625 20.394531 15.972656 18.5625 14.765625 L 20.5625 10.765625 C 17.84375 11.617188 15.351562 12.101562 13.09375 12.21875 L 11.984375 6.53125 C 16.078125 6.289062 20.132812 5.289062 24.15625 3.53125 C 28.175781 1.769531 31.847656 -0.601562 35.171875 -3.59375 L 34.34375 -4.0625 C 31.46875 -1.675781 28.421875 0.285156 25.203125 1.828125 C 21.992188 3.378906 18.984375 4.359375 16.171875 4.765625 L 15.3125 0.34375 L 14.453125 0.109375 L 9.03125 9.46875 L 3.6875 6.359375 L 8.359375 -1.703125 C 6.347656 -2.398438 4.722656 -2.984375 3.484375 -3.453125 L 5.75 -8.4375 C 7.8125 -7.65625 9.609375 -7.003906 11.140625 -6.484375 L 15.015625 -13.15625 L 14.15625 -13.65625 C 13 -12 11.835938 -10.429688 10.671875 -8.953125 Z M 20.828125 -3.265625 L 20.125 -8.9375 C 20.707031 -9.175781 21.117188 -9.351562 21.359375 -9.46875 L 20.359375 -10.046875 L 17.25 -4.703125 C 17.976562 -4.515625 18.835938 -4.304688 19.828125 -4.078125 L 18.484375 -1.34375 C 22.273438 -2.351562 25.941406 -4.203125 29.484375 -6.890625 L 28.5625 -7.421875 C 25.695312 -5.453125 23.117188 -4.066406 20.828125 -3.265625 Z M 20.828125 -3.265625 "/></g></g></g><g clip-path="url(#dc7b6f5552)"><path fill="#a2d188" d="M 148.570312 98.746094 C 151.507812 98.820312 153.542969 100.253906 154.75 102.816406 C 155.203125 103.792969 155.503906 104.925781 155.503906 106.054688 C 155.578125 109.75 153.089844 113.367188 148.945312 113.820312 C 145.402344 114.273438 141.636719 111.933594 140.882812 107.789062 C 140.503906 105.527344 141.183594 103.570312 142.613281 101.835938 C 143.21875 101.15625 143.820312 100.554688 144.574219 100.027344 C 145.78125 99.195312 147.136719 98.746094 148.570312 98.746094 Z M 223.191406 99.574219 C 221.910156 100.253906 220.851562 101.230469 220.023438 102.363281 C 218.816406 104.019531 218.367188 105.90625 218.742188 107.941406 C 219.421875 111.558594 222.4375 113.820312 225.828125 113.894531 C 228.238281 113.96875 230.199219 112.992188 231.707031 111.105469 C 232.761719 109.75 233.363281 108.089844 233.363281 106.359375 C 233.363281 105.078125 233.140625 103.871094 232.535156 102.738281 C 231.253906 100.253906 229.296875 98.820312 226.429688 98.746094 C 225.300781 98.746094 224.167969 99.046875 223.191406 99.574219 Z M 223.191406 99.574219 " fill-opacity="1" fill-rule="nonzero"/></g><g clip-path="url(#ead325d52e)"><path fill="#f4c4c6" d="M 174.273438 98.746094 C 177.136719 98.667969 179.546875 100.402344 180.601562 102.964844 C 181.734375 105.679688 181.507812 108.316406 179.773438 110.804688 C 178.566406 112.539062 176.835938 113.519531 174.722656 113.820312 C 172.238281 114.121094 170.125 113.292969 168.394531 111.484375 C 166.660156 109.523438 166.054688 107.1875 166.808594 104.625 C 167.488281 102.289062 169.070312 100.703125 171.105469 99.5 C 172.085938 98.972656 173.214844 98.667969 174.273438 98.746094 Z M 259.292969 100.929688 C 257.183594 98.59375 253.867188 98.21875 251.378906 99.421875 C 250.097656 100.027344 249.117188 100.929688 248.214844 101.984375 C 246.78125 103.792969 246.179688 105.828125 246.707031 108.089844 C 247.382812 111.03125 249.195312 112.839844 252.132812 113.667969 C 253.941406 114.195312 255.75 113.894531 257.335938 112.992188 C 259.972656 111.558594 261.101562 109.222656 261.253906 106.808594 C 261.328125 104.246094 260.652344 102.4375 259.292969 100.929688 Z M 259.292969 100.929688 " fill-opacity="1" fill-rule="nonzero"/></g><g clip-path="url(#32599b6cc3)"><path fill="#fae099" d="M 192.585938 106.582031 C 192.585938 104.699219 193.339844 103.042969 194.621094 101.609375 C 195.300781 100.855469 196.054688 100.175781 196.882812 99.726562 C 197.789062 99.195312 198.769531 98.894531 199.898438 98.820312 C 201.179688 98.746094 202.386719 98.972656 203.515625 99.574219 C 204.648438 100.175781 205.550781 101.082031 206.15625 102.210938 C 207.8125 105.152344 207.738281 108.089844 205.777344 110.878906 C 204.570312 112.6875 202.761719 113.667969 200.578125 113.894531 C 198.164062 114.121094 196.128906 113.367188 194.472656 111.632812 C 193.265625 110.203125 192.585938 108.542969 192.585938 106.582031 Z M 119.097656 99.421875 C 117.589844 100.175781 116.308594 101.308594 115.480469 102.816406 C 113.671875 105.828125 114.125 109.222656 116.535156 111.710938 C 118.117188 113.367188 120.152344 114.046875 122.414062 113.820312 C 125.503906 113.519531 127.917969 111.484375 128.820312 108.46875 C 129.347656 106.582031 129.273438 104.699219 128.445312 102.964844 C 127.3125 100.328125 124.976562 98.746094 122.113281 98.746094 C 121.058594 98.746094 120.078125 98.972656 119.097656 99.421875 Z M 119.097656 99.421875 " fill-opacity="1" fill-rule="nonzero"/></g></svg>