<svg xmlns="http://www.w3.org/2000/svg" xmlns:xlink="http://www.w3.org/1999/xlink" width="500" zoomAndPan="magnify" viewBox="0 0 375 374.999991" height="500" preserveAspectRatio="xMidYMid meet" version="1.0"><defs><filter x="0%" y="0%" width="100%" height="100%" id="b413f8cf0a"><feColorMatrix values="0 0 0 0 1 0 0 0 0 1 0 0 0 0 1 0 0 0 1 0" color-interpolation-filters="sRGB"/></filter><g/><mask id="15deb75385"><g filter="url(#b413f8cf0a)"><rect x="-37.5" width="450" fill="#000000" y="-37.499999" height="449.999989" fill-opacity="0.6"/></g></mask><clipPath id="7f7453778b"><path d="M 3.765625 3.769531 L 339.015625 3.769531 L 339.015625 337.519531 L 3.765625 337.519531 Z M 3.765625 3.769531 " clip-rule="nonzero"/></clipPath><clipPath id="d4e50b1666"><rect x="0" width="343" y="0" height="341"/></clipPath><clipPath id="ce5c7f9e44"><path d="M 140 107.0625 L 234 107.0625 L 234 122.8125 L 140 122.8125 Z M 140 107.0625 " clip-rule="nonzero"/></clipPath><clipPath id="f15e73f460"><path d="M 166 107.0625 L 262 107.0625 L 262 122.8125 L 166 122.8125 Z M 166 107.0625 " clip-rule="nonzero"/></clipPath><clipPath id="eb55142f41"><path d="M 114 107.0625 L 208 107.0625 L 208 122.8125 L 114 122.8125 Z M 114 107.0625 " clip-rule="nonzero"/></clipPath></defs><g mask="url(#15deb75385)"><g transform="matrix(1, 0, 0, 1, 16, 17)"><g clip-path="url(#d4e50b1666)"><path fill="#fae099" d="M 338.722656 173.003906 C 338.738281 172.167969 338.742188 171.328125 338.742188 170.351562 L 338.742188 170.058594 C 338.742188 160.851562 331.5 153.332031 322.40625 152.894531 C 331.144531 150.386719 336.480469 141.441406 334.402344 132.484375 C 334.210938 131.652344 334.011719 130.828125 333.808594 130.011719 C 331.582031 121.082031 322.742188 115.542969 313.824219 117.300781 C 321.714844 112.769531 324.75 102.792969 320.566406 94.59375 C 320.1875 93.84375 319.796875 93.09375 319.402344 92.351562 C 315.109375 84.234375 305.21875 80.976562 296.976562 84.808594 C 303.535156 78.515625 304.085938 68.121094 298.074219 61.167969 C 297.523438 60.535156 296.96875 59.902344 296.414062 59.277344 C 290.292969 52.40625 279.898438 51.601562 272.8125 57.304688 C 277.703125 49.648438 275.773438 39.417969 268.289062 34.085938 C 267.597656 33.585938 266.898438 33.097656 266.191406 32.613281 C 258.609375 27.398438 248.316406 29.105469 242.792969 36.347656 C 245.726562 27.714844 241.382812 18.21875 232.808594 14.835938 C 232.027344 14.53125 231.242188 14.230469 230.453125 13.933594 C 221.835938 10.683594 212.234375 14.816406 208.621094 23.183594 C 209.390625 14.105469 202.894531 5.921875 193.761719 4.710938 C 192.929688 4.601562 192.089844 4.492188 191.253906 4.394531 C 182.144531 3.339844 173.832031 9.601562 172.304688 18.558594 C 170.871094 9.589844 162.644531 3.214844 153.5 4.191406 C 152.660156 4.285156 151.824219 4.378906 150.988281 4.480469 C 141.859375 5.597656 135.28125 13.6875 135.933594 22.757812 C 132.402344 14.375 122.871094 10.160156 114.226562 13.296875 C 113.429688 13.589844 112.632812 13.886719 111.839844 14.191406 C 103.261719 17.472656 98.828125 26.878906 101.621094 35.515625 C 96.171875 28.261719 85.929688 26.464844 78.308594 31.582031 C 77.605469 32.050781 76.910156 32.523438 76.214844 33.007812 C 68.664062 38.25 66.613281 48.460938 71.414062 56.183594 C 64.390625 50.414062 54.003906 51.101562 47.8125 57.890625 C 47.242188 58.515625 46.679688 59.144531 46.117188 59.78125 C 40.027344 66.675781 40.472656 77.097656 46.984375 83.449219 C 38.777344 79.5 28.839844 82.652344 24.449219 90.734375 C 24.042969 91.476562 23.640625 92.230469 23.25 92.976562 C 18.980469 101.144531 21.910156 111.15625 29.769531 115.765625 C 20.851562 113.898438 11.945312 119.34375 9.621094 128.265625 C 9.410156 129.078125 9.199219 129.898438 9 130.71875 C 6.824219 139.648438 12.058594 148.660156 20.773438 151.253906 C 11.691406 151.601562 4.375 159.015625 4.253906 168.207031 C 4.242188 168.964844 4.238281 169.726562 4.238281 170.484375 L 4.238281 170.699219 C 4.238281 180.011719 11.648438 187.492188 20.894531 187.773438 C 11.945312 190.128906 6.429688 199.1875 8.527344 208.261719 C 8.71875 209.085938 8.914062 209.90625 9.117188 210.722656 C 11.328125 219.65625 20.140625 225.214844 29.082031 223.46875 C 21.179688 227.988281 18.136719 237.964844 22.308594 246.171875 C 22.6875 246.917969 23.078125 247.667969 23.46875 248.410156 C 27.761719 256.539062 37.640625 259.808594 45.886719 255.988281 C 39.308594 262.273438 38.75 272.675781 44.757812 279.632812 C 45.308594 280.265625 45.859375 280.902344 46.417969 281.527344 C 52.523438 288.398438 62.910156 289.214844 70.003906 283.523438 C 65.101562 291.191406 67.03125 301.441406 74.527344 306.773438 C 75.210938 307.261719 75.894531 307.742188 76.582031 308.214844 C 84.164062 313.453125 94.460938 311.761719 99.996094 304.527344 C 97.054688 313.148438 101.378906 322.652344 109.941406 326.046875 C 110.726562 326.355469 111.515625 326.660156 112.300781 326.953125 C 120.921875 330.21875 130.527344 326.097656 134.152344 317.730469 C 133.367188 326.808594 139.851562 335.003906 148.984375 336.234375 C 149.816406 336.34375 150.65625 336.449219 151.492188 336.550781 C 160.621094 337.640625 168.921875 331.367188 170.464844 322.40625 C 171.789062 330.777344 179.03125 336.898438 187.414062 336.898438 C 188.019531 336.898438 188.628906 336.867188 189.242188 336.800781 C 190.082031 336.710938 190.921875 336.617188 191.757812 336.519531 C 200.886719 335.410156 207.476562 327.332031 206.835938 318.257812 C 210.359375 326.648438 219.886719 330.886719 228.539062 327.746094 C 229.332031 327.457031 230.125 327.164062 230.910156 326.867188 C 239.496094 323.601562 243.949219 314.199219 241.167969 305.550781 C 246.617188 312.828125 256.867188 314.632812 264.5 309.507812 C 265.191406 309.046875 265.878906 308.574219 266.5625 308.101562 C 274.128906 302.867188 276.195312 292.660156 271.410156 284.925781 C 278.433594 290.710938 288.828125 290.03125 295.023438 283.230469 C 295.585938 282.617188 296.148438 281.996094 296.699219 281.375 C 302.804688 274.484375 302.382812 264.0625 295.875 257.691406 C 304.066406 261.648438 314.015625 258.515625 318.425781 250.441406 C 318.832031 249.699219 319.230469 248.953125 319.621094 248.210938 C 323.910156 240.054688 320.996094 230.027344 313.136719 225.402344 C 322.058594 227.285156 330.972656 221.851562 333.304688 212.9375 C 333.519531 212.117188 333.726562 211.304688 333.929688 210.480469 C 336.121094 201.554688 330.898438 192.535156 322.183594 189.925781 C 331.261719 189.597656 338.585938 182.195312 338.722656 173.003906 Z M 338.722656 173.003906 " fill-opacity="1" fill-rule="nonzero"/><g clip-path="url(#7f7453778b)"><path stroke-linecap="butt" transform="matrix(0.670302, 0, 0, 0.670302, 3.918619, 3.769344)" fill="none" stroke-linejoin="miter" d="M 499.482554 252.475185 C 499.505865 251.228079 499.511692 249.975145 499.511692 248.518245 L 499.511692 248.081175 C 499.511692 234.345524 488.707324 223.127396 475.140673 222.474705 C 488.177012 218.733386 496.137513 205.388184 493.03723 192.025499 C 492.751677 190.78422 492.45447 189.554597 492.151435 188.336629 C 488.829703 175.014737 475.641846 166.751201 462.337437 169.373621 C 474.109188 162.613606 478.637232 147.729918 472.395874 135.497787 C 471.830596 134.378888 471.247837 133.259989 470.659249 132.152745 C 464.254718 120.042994 449.499236 115.182776 437.203002 120.899651 C 446.987541 111.511389 447.809233 96.004147 438.840558 85.631021 C 438.018866 84.68695 437.191347 83.742879 436.363828 82.810463 C 427.23198 72.559716 411.724739 71.359231 401.153474 79.867525 C 408.449628 68.445431 405.570794 53.182949 394.405114 45.228276 C 393.373629 44.482343 392.330489 43.753893 391.275693 43.031271 C 379.964323 35.251426 364.608599 37.798087 356.368374 48.602456 C 360.744901 35.723462 354.264611 21.556568 341.473031 16.509867 C 340.307511 16.055315 339.136163 15.606589 337.958988 15.163692 C 325.103305 10.315129 310.779066 16.480729 305.388537 28.963447 C 306.536574 15.420106 296.845276 3.211286 283.220349 1.40473 C 281.979071 1.241557 280.726137 1.078385 279.479031 0.932695 C 265.88907 -0.640757 253.487939 8.700884 251.209347 22.063569 C 249.070618 8.683402 236.797694 -0.82724 223.155285 0.62966 C 221.902351 0.769522 220.655245 0.909384 219.408139 1.060902 C 205.789039 2.727595 195.975362 14.796553 196.948571 28.328238 C 191.680422 15.822211 177.46108 9.534231 164.564603 14.213793 C 163.375773 14.650863 162.186942 15.093761 161.00394 15.548313 C 148.206532 20.443497 141.592207 34.476356 145.75894 47.361177 C 137.62944 36.539326 122.349475 33.85863 110.979829 41.492785 C 109.930861 42.192097 108.893548 42.897236 107.856235 43.619859 C 96.591486 51.440497 93.531997 66.673841 100.694116 78.195004 C 90.216093 69.58764 74.720507 70.613298 65.483762 80.741665 C 64.632932 81.674081 63.793758 82.612325 62.954584 83.562223 C 53.869357 93.847936 54.533703 109.39597 64.248311 118.871647 C 52.004525 112.979944 37.179113 117.682816 30.628891 129.740119 C 30.022821 130.847363 29.422578 131.97209 28.839818 133.085161 C 22.470252 145.270671 26.840952 160.206807 38.566081 167.083375 C 25.261672 164.297782 11.974746 172.421455 8.507325 185.731692 C 8.192634 186.943832 7.877944 188.167628 7.580737 189.391424 C 4.334764 202.713316 12.143747 216.157587 25.14512 220.027113 C 11.595952 220.545769 0.680859 231.606552 0.500204 245.318893 C 0.482721 246.449448 0.476893 247.585829 0.476893 248.716384 L 0.476893 249.036902 C 0.476893 262.929898 11.531849 274.08975 25.325776 274.509338 C 11.974746 278.02338 3.746176 291.537582 6.875597 305.075095 C 7.161149 306.304719 7.452529 307.528514 7.755565 308.746483 C 11.053986 322.074202 24.201049 330.366876 37.540424 327.761939 C 25.751191 334.504471 21.211491 349.388159 27.435367 361.631945 C 28.000644 362.745016 28.583404 363.863916 29.166164 364.971159 C 35.570695 377.098393 50.308694 381.976094 62.610755 376.276702 C 52.797078 385.653309 51.963732 401.172205 60.926579 411.551159 C 61.748271 412.495231 62.569962 413.445129 63.403309 414.377545 C 72.511846 424.628292 88.007433 425.84626 98.590353 417.355448 C 91.276716 428.795025 94.15555 444.086646 105.338713 452.041318 C 106.358542 452.769768 107.378372 453.486563 108.40403 454.191703 C 119.7154 462.006513 135.076951 459.483163 143.334659 448.690449 C 138.946477 461.55196 145.397629 475.730509 158.171727 480.794693 C 159.343074 481.255073 160.520249 481.709626 161.691596 482.146696 C 174.553108 487.018569 188.883174 480.870452 194.291186 468.387734 C 193.119839 481.931075 202.793653 494.157378 216.41858 495.993071 C 217.659859 496.156244 218.912793 496.313589 220.159899 496.465107 C 233.778998 498.091007 246.162646 488.731883 248.464548 475.36337 C 250.440104 487.851915 261.244473 496.983763 273.750501 496.983763 C 274.653779 496.983763 275.562884 496.937142 276.477817 496.838073 C 277.730751 496.704038 278.983685 496.564176 280.230791 496.418486 C 293.84989 494.763448 303.68105 482.711973 302.725324 469.17446 C 307.981818 481.692143 322.195333 488.015088 335.103465 483.329698 C 336.286467 482.898456 337.46947 482.461386 338.640818 482.018489 C 351.44988 477.146616 358.093344 463.119584 353.944093 450.21728 C 362.073594 461.074097 377.365214 463.766448 388.752343 456.120638 C 389.783828 455.432981 390.809485 454.727842 391.829315 454.022702 C 403.117375 446.213719 406.200175 430.986203 399.061366 419.447556 C 409.539389 428.078231 425.04663 427.064228 434.289203 416.918378 C 435.128377 416.003445 435.967551 415.076857 436.789243 414.150269 C 445.89778 403.870384 445.268399 388.322349 435.559619 378.817535 C 447.780095 384.720893 462.62299 380.047158 469.202349 368.001511 C 469.80842 366.894267 470.402835 365.781196 470.985595 364.673952 C 477.384298 352.505925 473.036909 337.546478 461.31178 330.6466 C 474.622016 333.455503 487.920598 325.349313 491.399674 312.050731 C 491.720192 310.826936 492.029055 309.614795 492.33209 308.385171 C 495.601373 295.069107 487.809873 281.613181 474.8085 277.720345 C 488.35184 277.230826 499.278588 266.187526 499.482554 252.475185 Z M 499.482554 252.475185 " stroke="#ffffff" stroke-width="0.9673" stroke-opacity="1" stroke-miterlimit="10"/><path fill="#ffbd59" d="M 187.414062 337.226562 C 179.285156 337.226562 172.378906 331.746094 170.453125 323.984375 C 168.441406 331.613281 161.5625 337 153.550781 337 C 152.855469 337 152.148438 336.957031 151.453125 336.875 C 150.613281 336.773438 149.777344 336.667969 148.941406 336.558594 C 140.183594 335.375 133.78125 327.933594 133.765625 319.269531 C 130.722656 324.863281 124.84375 328.398438 118.386719 328.398438 C 116.269531 328.398438 114.183594 328.015625 112.1875 327.257812 C 111.398438 326.960938 110.609375 326.652344 109.824219 326.347656 C 101.613281 323.09375 97.1875 314.335938 99.25 305.925781 C 95.945312 309.542969 91.320312 311.585938 86.34375 311.585938 C 82.78125 311.585938 79.34375 310.511719 76.398438 308.476562 C 75.710938 308.007812 75.027344 307.523438 74.34375 307.039062 C 67.152344 301.921875 64.945312 292.363281 68.957031 284.691406 C 66.101562 286.585938 62.714844 287.617188 59.269531 287.617188 C 54.269531 287.617188 49.496094 285.472656 46.175781 281.738281 C 45.652344 281.152344 45.132812 280.550781 44.617188 279.957031 L 44.515625 279.835938 C 38.761719 273.171875 38.886719 263.367188 44.589844 256.867188 C 42.695312 257.550781 40.714844 257.898438 38.6875 257.898438 C 32.164062 257.898438 26.226562 254.316406 23.183594 248.554688 C 22.789062 247.8125 22.402344 247.0625 22.019531 246.3125 C 18.023438 238.445312 20.5 228.953125 27.609375 224.011719 C 27.003906 224.078125 26.394531 224.109375 25.785156 224.109375 C 17.726562 224.109375 10.742188 218.636719 8.804688 210.796875 C 8.601562 209.976562 8.40625 209.15625 8.214844 208.328125 C 6.199219 199.601562 10.96875 190.976562 19.199219 187.964844 C 10.503906 186.886719 3.917969 179.597656 3.917969 170.703125 L 3.917969 170.488281 C 3.917969 169.722656 3.921875 168.964844 3.933594 168.203125 C 4.050781 159.394531 10.644531 152.144531 19.214844 151.0625 C 11.179688 147.875 6.597656 139.203125 8.6875 130.644531 C 8.886719 129.824219 9.097656 129 9.308594 128.1875 C 11.320312 120.46875 18.289062 115.078125 26.25 115.078125 C 26.933594 115.078125 27.613281 115.117188 28.296875 115.199219 C 21.238281 110.179688 18.871094 100.65625 22.964844 92.832031 C 23.355469 92.078125 23.757812 91.328125 24.164062 90.582031 C 27.230469 84.9375 33.132812 81.433594 39.5625 81.433594 C 41.675781 81.433594 43.730469 81.804688 45.691406 82.546875 C 40.054688 75.984375 40.039062 66.179688 45.878906 59.566406 C 46.441406 58.933594 47.003906 58.300781 47.574219 57.675781 C 50.886719 54.042969 55.605469 51.960938 60.519531 51.960938 C 64.042969 51.960938 67.488281 53.035156 70.382812 55.003906 C 66.480469 47.292969 68.800781 37.765625 76.035156 32.742188 C 76.730469 32.261719 77.429688 31.785156 78.128906 31.3125 C 81.027344 29.367188 84.398438 28.339844 87.875 28.339844 C 92.847656 28.339844 97.613281 30.480469 100.910156 34.136719 C 98.976562 25.71875 103.511719 17.03125 111.730469 13.886719 C 112.527344 13.585938 113.320312 13.285156 114.117188 12.992188 C 116.050781 12.289062 118.066406 11.9375 120.101562 11.9375 C 126.644531 11.9375 132.558594 15.539062 135.574219 21.230469 C 135.707031 12.578125 142.207031 5.226562 150.953125 4.15625 C 151.789062 4.058594 152.628906 3.964844 153.46875 3.871094 C 154.09375 3.804688 154.726562 3.769531 155.351562 3.769531 C 163.472656 3.769531 170.378906 9.242188 172.3125 16.980469 C 174.316406 9.34375 181.210938 3.953125 189.257812 3.953125 C 189.933594 3.953125 190.617188 3.992188 191.292969 4.070312 C 192.132812 4.171875 192.972656 4.277344 193.808594 4.390625 C 202.566406 5.550781 208.980469 12.980469 209.011719 21.644531 C 212.050781 16.042969 217.933594 12.5 224.398438 12.5 C 226.503906 12.5 228.582031 12.878906 230.574219 13.628906 C 231.363281 13.925781 232.148438 14.230469 232.929688 14.535156 C 241.152344 17.777344 245.597656 26.53125 243.542969 34.949219 C 246.851562 31.316406 251.484375 29.261719 256.476562 29.261719 C 260.019531 29.261719 263.445312 30.328125 266.378906 32.34375 C 267.082031 32.835938 267.785156 33.320312 268.480469 33.824219 C 275.648438 38.929688 277.859375 48.472656 273.867188 56.132812 C 276.726562 54.230469 280.117188 53.195312 283.570312 53.195312 C 288.566406 53.195312 293.335938 55.332031 296.65625 59.058594 C 297.214844 59.6875 297.769531 60.320312 298.316406 60.957031 C 304.078125 67.617188 303.960938 77.421875 298.273438 83.921875 C 300.175781 83.234375 302.160156 82.882812 304.203125 82.882812 C 310.714844 82.882812 316.652344 86.453125 319.691406 92.199219 C 320.085938 92.941406 320.476562 93.695312 320.855469 94.445312 C 324.863281 102.304688 322.402344 111.800781 315.300781 116.75 C 315.914062 116.683594 316.53125 116.652344 317.148438 116.652344 C 325.195312 116.652344 332.175781 122.109375 334.125 129.929688 C 334.332031 130.753906 334.53125 131.578125 334.722656 132.410156 C 336.714844 140.992188 332.039062 149.609375 323.972656 152.710938 C 332.554688 153.882812 339.066406 161.226562 339.066406 170.058594 L 339.070312 170.351562 C 339.070312 171.328125 339.0625 172.171875 339.050781 173.011719 C 338.921875 181.816406 332.320312 189.054688 323.746094 190.125 C 331.78125 193.324219 336.347656 202.003906 334.246094 210.558594 C 334.039062 211.382812 333.835938 212.199219 333.617188 213.023438 C 331.605469 220.71875 324.644531 226.101562 316.691406 226.101562 C 316 226.101562 315.304688 226.058594 314.613281 225.976562 C 321.664062 231.011719 324.019531 240.542969 319.90625 248.359375 C 319.515625 249.105469 319.113281 249.855469 318.710938 250.597656 C 315.636719 256.226562 309.738281 259.726562 303.316406 259.726562 C 301.199219 259.726562 299.136719 259.347656 297.167969 258.601562 C 302.796875 265.179688 302.796875 274.988281 296.941406 281.589844 C 296.386719 282.214844 295.828125 282.835938 295.261719 283.449219 C 291.953125 287.082031 287.238281 289.164062 282.320312 289.164062 C 278.789062 289.164062 275.335938 288.089844 272.441406 286.109375 C 276.335938 293.832031 273.992188 303.355469 266.746094 308.363281 C 266.0625 308.839844 265.375 309.308594 264.679688 309.777344 C 261.78125 311.722656 258.410156 312.75 254.933594 312.75 C 249.953125 312.75 245.183594 310.601562 241.886719 306.929688 C 243.808594 315.351562 239.253906 324.035156 231.027344 327.164062 C 230.238281 327.460938 229.449219 327.753906 228.652344 328.042969 C 226.722656 328.742188 224.714844 329.097656 222.679688 329.097656 C 216.128906 329.097656 210.214844 325.488281 207.203125 319.78125 C 207.054688 328.429688 200.550781 335.769531 191.800781 336.835938 L 191.503906 336.871094 C 190.765625 336.953125 190.023438 337.039062 189.28125 337.117188 C 188.679688 337.191406 188.050781 337.226562 187.414062 337.226562 Z M 170.476562 320.421875 L 170.785156 322.359375 C 172.066406 330.464844 179.21875 336.578125 187.414062 336.578125 C 188.027344 336.578125 188.632812 336.546875 189.207031 336.480469 C 189.949219 336.402344 190.6875 336.320312 191.425781 336.234375 L 191.71875 336.199219 C 200.644531 335.113281 207.148438 327.246094 206.511719 318.28125 L 206.375 316.324219 L 207.132812 318.132812 C 209.769531 324.40625 215.871094 328.460938 222.675781 328.460938 C 224.636719 328.460938 226.574219 328.117188 228.429688 327.441406 C 229.222656 327.15625 230.011719 326.863281 230.796875 326.566406 C 239.183594 323.375 243.601562 314.1875 240.863281 305.652344 L 240.269531 303.808594 L 241.429688 305.359375 C 244.589844 309.585938 249.636719 312.109375 254.929688 312.109375 C 258.277344 312.109375 261.523438 311.117188 264.316406 309.242188 C 265.007812 308.78125 265.695312 308.308594 266.375 307.839844 C 273.769531 302.726562 275.859375 292.738281 271.128906 285.101562 L 270.097656 283.433594 L 271.613281 284.679688 C 274.617188 287.15625 278.421875 288.519531 282.320312 288.519531 C 287.054688 288.519531 291.597656 286.515625 294.785156 283.015625 C 295.347656 282.40625 295.90625 281.785156 296.457031 281.164062 C 302.429688 274.425781 302.074219 264.21875 295.644531 257.925781 L 294.230469 256.542969 L 296.011719 257.402344 C 298.3125 258.515625 300.773438 259.078125 303.316406 259.078125 C 309.503906 259.078125 315.179688 255.710938 318.140625 250.289062 C 318.542969 249.550781 318.941406 248.804688 319.332031 248.0625 C 323.523438 240.085938 320.730469 230.253906 312.96875 225.683594 L 311.261719 224.675781 L 313.199219 225.085938 C 314.347656 225.328125 315.523438 225.449219 316.6875 225.449219 C 324.34375 225.449219 331.046875 220.273438 332.988281 212.855469 C 333.199219 212.039062 333.40625 211.222656 333.609375 210.40625 C 335.753906 201.675781 330.691406 192.816406 322.085938 190.238281 L 320.210938 189.671875 L 322.167969 189.605469 C 331.136719 189.277344 338.265625 181.984375 338.398438 173 C 338.410156 172.164062 338.417969 171.324219 338.417969 170.351562 L 338.417969 170.058594 C 338.417969 161.046875 331.375 153.652344 322.386719 153.21875 L 320.429688 153.121094 L 322.3125 152.582031 C 330.945312 150.105469 336.117188 141.3125 334.082031 132.554688 C 333.894531 131.726562 333.695312 130.902344 333.492188 130.085938 C 331.613281 122.554688 324.890625 117.296875 317.140625 117.296875 C 316.054688 117.296875 314.957031 117.402344 313.886719 117.617188 L 311.957031 117.996094 L 313.664062 117.015625 C 321.460938 112.539062 324.363281 102.753906 320.277344 94.734375 C 319.898438 93.988281 319.507812 93.242188 319.117188 92.5 C 316.1875 86.964844 310.472656 83.527344 304.199219 83.527344 C 301.738281 83.527344 299.351562 84.054688 297.113281 85.097656 L 295.34375 85.917969 L 296.75 84.570312 C 303.226562 78.359375 303.703125 68.171875 297.828125 61.375 C 297.277344 60.746094 296.722656 60.113281 296.167969 59.484375 C 292.96875 55.898438 288.375 53.835938 283.566406 53.835938 C 279.738281 53.835938 275.988281 55.15625 273.015625 57.554688 L 271.472656 58.792969 L 272.539062 57.128906 C 277.367188 49.566406 275.414062 39.558594 268.097656 34.347656 C 267.40625 33.84375 266.707031 33.359375 266.007812 32.875 C 263.183594 30.933594 259.886719 29.910156 256.46875 29.910156 C 251.152344 29.910156 246.261719 32.328125 243.050781 36.542969 L 241.847656 38.117188 L 242.484375 36.242188 C 245.378906 27.714844 241.074219 18.445312 232.6875 15.136719 C 231.910156 14.832031 231.125 14.53125 230.335938 14.234375 C 228.421875 13.511719 226.421875 13.144531 224.394531 13.144531 C 217.660156 13.144531 211.582031 17.136719 208.914062 23.3125 L 208.125 25.136719 L 208.292969 23.15625 C 209.058594 14.179688 202.65625 6.214844 193.71875 5.03125 C 192.882812 4.917969 192.050781 4.8125 191.214844 4.710938 C 190.566406 4.636719 189.90625 4.601562 189.253906 4.601562 C 181.003906 4.601562 174.003906 10.492188 172.621094 18.613281 L 172.292969 20.546875 L 171.980469 18.609375 C 170.667969 10.382812 163.671875 4.414062 155.347656 4.414062 C 154.75 4.414062 154.136719 4.449219 153.535156 4.511719 C 152.699219 4.605469 151.859375 4.699219 151.027344 4.800781 C 142.101562 5.890625 135.613281 13.769531 136.257812 22.734375 L 136.398438 24.695312 L 135.636719 22.882812 C 133 16.625 126.898438 12.582031 120.097656 12.582031 C 118.136719 12.582031 116.199219 12.921875 114.335938 13.597656 C 113.539062 13.890625 112.746094 14.1875 111.957031 14.488281 C 103.578125 17.695312 99.171875 26.886719 101.929688 35.414062 L 102.527344 37.257812 L 101.363281 35.710938 C 98.199219 31.5 93.15625 28.984375 87.871094 28.984375 C 84.523438 28.984375 81.277344 29.976562 78.484375 31.847656 C 77.785156 32.316406 77.089844 32.789062 76.402344 33.269531 C 69.019531 38.394531 66.949219 48.382812 71.6875 56.007812 L 72.726562 57.675781 L 71.207031 56.429688 C 68.203125 53.964844 64.40625 52.605469 60.515625 52.605469 C 55.78125 52.605469 51.238281 54.613281 48.046875 58.105469 C 47.480469 58.730469 46.917969 59.359375 46.359375 59.992188 C 40.402344 66.738281 40.773438 76.941406 47.210938 83.21875 L 48.628906 84.597656 L 46.84375 83.742188 C 44.546875 82.636719 42.09375 82.074219 39.554688 82.074219 C 33.367188 82.074219 27.683594 85.453125 24.730469 90.886719 C 24.324219 91.628906 23.925781 92.378906 23.535156 93.128906 C 19.359375 101.113281 22.167969 110.933594 29.933594 115.484375 L 31.644531 116.488281 L 29.703125 116.082031 C 28.566406 115.84375 27.402344 115.722656 26.25 115.722656 C 18.582031 115.722656 11.871094 120.914062 9.933594 128.347656 C 9.726562 129.15625 9.515625 129.976562 9.316406 130.792969 C 7.1875 139.527344 12.261719 148.378906 20.867188 150.945312 L 22.746094 151.503906 L 20.785156 151.578125 C 11.816406 151.921875 4.699219 159.222656 4.578125 168.207031 C 4.570312 168.96875 4.566406 169.722656 4.566406 170.484375 L 4.566406 170.699219 C 4.566406 179.8125 11.742188 187.167969 20.902344 187.449219 L 23.140625 187.519531 L 20.976562 188.089844 C 12.109375 190.421875 6.777344 199.246094 8.84375 208.1875 C 9.03125 209.007812 9.226562 209.824219 9.429688 210.644531 C 11.296875 218.191406 18.019531 223.460938 25.785156 223.460938 C 26.863281 223.460938 27.953125 223.359375 29.019531 223.148438 L 30.953125 222.769531 L 29.246094 223.746094 C 21.4375 228.210938 18.519531 238 22.597656 246.023438 C 22.976562 246.769531 23.367188 247.515625 23.757812 248.253906 C 26.6875 253.804688 32.40625 257.25 38.683594 257.25 C 41.136719 257.25 43.515625 256.726562 45.75 255.691406 L 47.519531 254.867188 L 46.109375 256.21875 C 39.617188 262.425781 39.136719 272.613281 45.007812 279.414062 L 45.109375 279.535156 C 45.621094 280.125 46.136719 280.722656 46.660156 281.308594 C 49.855469 284.902344 54.453125 286.964844 59.269531 286.964844 C 63.089844 286.964844 66.828125 285.652344 69.804688 283.265625 L 71.34375 282.03125 L 70.28125 283.691406 C 65.433594 291.269531 67.382812 301.289062 74.71875 306.507812 C 75.398438 306.992188 76.082031 307.46875 76.765625 307.941406 C 79.601562 309.898438 82.914062 310.933594 86.34375 310.933594 C 91.644531 310.933594 96.527344 308.523438 99.738281 304.328125 L 100.941406 302.753906 L 100.300781 304.628906 C 97.398438 313.152344 101.683594 322.421875 110.0625 325.738281 C 110.84375 326.046875 111.628906 326.351562 112.417969 326.648438 C 114.34375 327.375 116.347656 327.746094 118.386719 327.746094 C 125.113281 327.746094 131.183594 323.761719 133.855469 317.597656 L 134.648438 315.769531 L 134.476562 317.753906 C 133.699219 326.730469 140.089844 334.703125 149.027344 335.910156 C 149.859375 336.019531 150.691406 336.125 151.53125 336.230469 C 152.199219 336.308594 152.878906 336.347656 153.550781 336.347656 C 161.769531 336.347656 168.746094 330.464844 170.140625 322.351562 Z M 170.476562 320.421875 " fill-opacity="1" fill-rule="nonzero"/></g></g></g></g><g fill="#545454" fill-opacity="1"><g transform="translate(72.877931, 183.229265)"><g><path d="M 4.421875 -14.953125 L 4.421875 -19.5 L 21.578125 -19.5 L 21.578125 -14.953125 C 20.453125 -12.609375 18.972656 -10.363281 17.140625 -8.21875 C 19.441406 -6.207031 21.703125 -4.160156 23.921875 -2.078125 L 20.546875 1.296875 C 18.410156 -0.765625 16.179688 -2.8125 13.859375 -4.84375 C 10.984375 -2.238281 7.796875 -0.191406 4.296875 1.296875 L 2.078125 -2.734375 C 8.234375 -5.640625 12.867188 -9.710938 15.984375 -14.953125 Z M 4.421875 -14.953125 "/></g></g></g><g fill="#545454" fill-opacity="1"><g transform="translate(101.912142, 183.229265)"><g><path d="M 5.453125 1.5625 L 2.34375 -1.8125 C 4.09375 -3.1875 5.410156 -4.675781 6.296875 -6.28125 C 7.191406 -7.882812 7.8125 -10.035156 8.15625 -12.734375 L 2.59375 -12.734375 L 2.59375 -17.15625 L 8.53125 -17.15625 C 8.5625 -17.90625 8.578125 -19.117188 8.578125 -20.796875 L 13.390625 -20.796875 C 13.390625 -19.515625 13.363281 -18.300781 13.3125 -17.15625 L 22.875 -17.15625 L 22.875 -13.265625 C 22.875 -10.660156 22.816406 -8.515625 22.703125 -6.828125 C 22.597656 -5.140625 22.4375 -3.753906 22.21875 -2.671875 C 22 -1.597656 21.664062 -0.796875 21.21875 -0.265625 C 20.78125 0.253906 20.3125 0.601562 19.8125 0.78125 C 19.3125 0.957031 18.644531 1.046875 17.8125 1.046875 C 16.382812 1.046875 14.476562 0.914062 12.09375 0.65625 L 12.484375 -3.765625 C 14.453125 -3.597656 15.707031 -3.515625 16.25 -3.515625 C 16.613281 -3.515625 16.882812 -3.65625 17.0625 -3.9375 C 17.25 -4.226562 17.398438 -4.90625 17.515625 -5.96875 C 17.628906 -7.03125 17.6875 -8.640625 17.6875 -10.796875 L 17.6875 -12.734375 L 12.96875 -12.734375 C 12.550781 -9.273438 11.757812 -6.46875 10.59375 -4.3125 C 9.425781 -2.164062 7.710938 -0.207031 5.453125 1.5625 Z M 5.453125 1.5625 "/></g></g></g><g fill="#545454" fill-opacity="1"><g transform="translate(130.946353, 183.229265)"><g><path d="M 21.3125 -19.890625 L 24.3125 -16.375 C 22.207031 -14.46875 19.78125 -12.769531 17.03125 -11.28125 L 17.03125 1.4375 L 11.703125 1.4375 L 11.703125 -8.84375 C 8.703125 -7.71875 5.710938 -6.9375 2.734375 -6.5 L 1.953125 -11.046875 C 5.585938 -11.546875 9.113281 -12.578125 12.53125 -14.140625 C 15.945312 -15.703125 18.875 -17.617188 21.3125 -19.890625 Z M 21.3125 -19.890625 "/></g></g></g><g fill="#545454" fill-opacity="1"><g transform="translate(159.980568, 183.229265)"><g><path d="M 10.015625 -2.859375 C 10.390625 -2.859375 10.613281 -2.898438 10.6875 -2.984375 C 10.757812 -3.078125 10.796875 -3.335938 10.796875 -3.765625 L 10.796875 -13.265625 L 2.078125 -13.265625 L 2.078125 -17.6875 L 10.796875 -17.6875 L 10.796875 -21.0625 L 15.859375 -21.0625 L 15.859375 -17.6875 L 23.921875 -17.6875 L 23.921875 -13.265625 L 15.859375 -13.265625 L 15.859375 -3.125 C 15.859375 -2.34375 15.84375 -1.722656 15.8125 -1.265625 C 15.789062 -0.816406 15.710938 -0.394531 15.578125 0 C 15.453125 0.394531 15.300781 0.679688 15.125 0.859375 C 14.957031 1.035156 14.671875 1.179688 14.265625 1.296875 C 13.867188 1.421875 13.445312 1.492188 13 1.515625 C 12.5625 1.546875 11.957031 1.5625 11.1875 1.5625 C 10.257812 1.5625 8.867188 1.472656 7.015625 1.296875 L 7.28125 -3.0625 C 8.800781 -2.925781 9.710938 -2.859375 10.015625 -2.859375 Z M 4.8125 -11.703125 L 9.234375 -10.40625 C 8.003906 -6.9375 6.703125 -3.6875 5.328125 -0.65625 L 1.046875 -2.34375 C 2.304688 -5.195312 3.5625 -8.316406 4.8125 -11.703125 Z M 16.765625 -10.40625 L 21.0625 -11.953125 C 22.414062 -8.867188 23.710938 -5.617188 24.953125 -2.203125 L 20.546875 -0.65625 C 19.191406 -4.34375 17.929688 -7.59375 16.765625 -10.40625 Z M 16.765625 -10.40625 "/></g></g></g><g fill="#545454" fill-opacity="1"><g transform="translate(189.014776, 183.229265)"><g><path d="M 2.078125 -6.890625 L 2.078125 -11.828125 L 23.921875 -11.828125 L 23.921875 -6.890625 Z M 2.078125 -6.890625 "/></g></g></g><g fill="#545454" fill-opacity="1"><g transform="translate(218.048984, 183.229265)"><g><path d="M 20.796875 -11.5625 L 25.484375 -10.921875 C 25.097656 -6.585938 23.925781 -3.488281 21.96875 -1.625 C 20.007812 0.238281 17.019531 1.171875 13 1.171875 L 12.21875 1.171875 L 12.21875 -20.015625 L 17.296875 -20.015625 L 17.296875 -4.078125 C 18.367188 -4.515625 19.160156 -5.296875 19.671875 -6.421875 C 20.179688 -7.546875 20.554688 -9.257812 20.796875 -11.5625 Z M 0.78125 -2.59375 C 1.644531 -3.050781 2.304688 -3.460938 2.765625 -3.828125 C 3.222656 -4.191406 3.640625 -4.625 4.015625 -5.125 C 4.390625 -5.625 4.644531 -6.300781 4.78125 -7.15625 C 4.914062 -8.019531 5.019531 -8.992188 5.09375 -10.078125 C 5.164062 -11.160156 5.203125 -12.65625 5.203125 -14.5625 L 5.203125 -20.015625 L 10.140625 -20.015625 L 10.140625 -14.5625 C 10.140625 -10.9375 9.9375 -8.117188 9.53125 -6.109375 C 9.132812 -4.097656 8.484375 -2.535156 7.578125 -1.421875 C 6.671875 -0.316406 5.316406 0.675781 3.515625 1.5625 Z M 0.78125 -2.59375 "/></g></g></g><g fill="#545454" fill-opacity="1"><g transform="translate(247.083192, 183.229265)"><g><path d="M 13.828125 -13.265625 L 13.828125 -14.171875 L 12.171875 -14.171875 L 12.171875 -13.265625 Z M 17.734375 -13.265625 L 19.234375 -13.265625 L 19.234375 -14.171875 L 17.734375 -14.171875 Z M 6.765625 -14.171875 L 6.765625 -13.265625 L 8.265625 -13.265625 L 8.265625 -14.171875 Z M 8.265625 -16.90625 L 6.765625 -16.90625 L 6.765625 -15.984375 L 8.265625 -15.984375 Z M 13.828125 -16.90625 L 12.171875 -16.90625 L 12.171875 -15.984375 L 13.828125 -15.984375 Z M 17.734375 -19.890625 L 23.65625 -19.890625 L 23.65625 -11.4375 L 2.34375 -11.4375 L 2.34375 -19.890625 L 8.265625 -19.890625 L 8.265625 -21.703125 L 12.171875 -21.703125 L 12.171875 -19.890625 L 13.828125 -19.890625 L 13.828125 -21.703125 L 17.734375 -21.703125 Z M 17.734375 -16.90625 L 17.734375 -15.984375 L 19.234375 -15.984375 L 19.234375 -16.90625 Z M 8.453125 -4.15625 L 17.546875 -4.15625 L 17.546875 -4.9375 L 8.453125 -4.9375 Z M 14.765625 -1.046875 C 14.972656 -1.492188 15.128906 -1.835938 15.234375 -2.078125 L 10.734375 -2.078125 C 10.773438 -1.972656 10.820312 -1.800781 10.875 -1.5625 C 10.9375 -1.332031 10.976562 -1.160156 11 -1.046875 Z M 1.296875 -7.796875 L 1.296875 -10.796875 L 24.703125 -10.796875 L 24.703125 -7.796875 Z M 1.046875 2.34375 L 1.046875 -1.046875 L 6.0625 -1.046875 C 5.988281 -1.335938 5.890625 -1.679688 5.765625 -2.078125 L 3.515625 -2.078125 L 3.515625 -7.15625 L 22.484375 -7.15625 L 22.484375 -2.078125 L 20.234375 -2.078125 C 20.023438 -1.523438 19.882812 -1.179688 19.8125 -1.046875 L 24.953125 -1.046875 L 24.953125 2.34375 Z M 1.046875 2.34375 "/></g></g></g><g fill="#545454" fill-opacity="1"><g transform="translate(276.117412, 183.229265)"><g><path d="M 15.34375 -2.859375 L 19.5 -2.859375 L 19.5 -7.9375 L 15.34375 -7.9375 Z M 6.5 -7.9375 L 6.5 -2.859375 L 10.65625 -2.859375 L 10.65625 -7.9375 Z M 10.65625 -16.515625 L 6.5 -16.515625 L 6.5 -11.703125 L 10.65625 -11.703125 Z M 15.34375 -16.515625 L 15.34375 -11.703125 L 19.5 -11.703125 L 19.5 -16.515625 Z M 1.6875 -20.40625 L 24.3125 -20.40625 L 24.3125 2.203125 L 19.5 2.203125 L 19.5 0.90625 L 6.5 0.90625 L 6.5 2.203125 L 1.6875 2.203125 Z M 1.6875 -20.40625 "/></g></g></g><g fill="#0097b2" fill-opacity="1"><g transform="translate(42.877933, 228.229262)"><g><path d="M 9.609375 -4.328125 C 12.472656 -4.597656 14.765625 -4.960938 16.484375 -5.421875 C 18.203125 -5.878906 19.597656 -6.570312 20.671875 -7.5 C 21.753906 -8.4375 22.484375 -9.570312 22.859375 -10.90625 C 23.242188 -12.25 23.4375 -14 23.4375 -16.15625 L 23.4375 -18.125 L 15.5625 -18.125 L 15.5625 -11.03125 L 8.265625 -11.03125 L 8.265625 -18.125 L 2.359375 -18.125 L 2.359375 -24.8125 L 8.265625 -24.8125 L 8.265625 -31.125 L 15.5625 -31.125 L 15.5625 -24.8125 L 23.4375 -24.8125 L 23.4375 -31.125 L 31.125 -31.125 L 31.125 -24.8125 L 37.03125 -24.8125 L 37.03125 -18.125 L 31.125 -18.125 L 31.125 -16.15625 C 31.125 -10.082031 29.578125 -5.617188 26.484375 -2.765625 C 23.398438 0.078125 18.25 1.785156 11.03125 2.359375 Z M 9.609375 -4.328125 "/></g></g></g><g fill="#0097b2" fill-opacity="1"><g transform="translate(86.874241, 228.229262)"><g><path d="M 29.9375 -32.890625 C 30.988281 -31.003906 32.039062 -28.957031 33.09375 -26.75 C 33.039062 -17.320312 30.835938 -10.296875 26.484375 -5.671875 C 22.140625 -1.046875 15.410156 1.628906 6.296875 2.359375 L 4.921875 -4.53125 C 11.378906 -5.050781 16.148438 -6.578125 19.234375 -9.109375 C 22.328125 -11.648438 24.210938 -15.703125 24.890625 -21.265625 L 2.75 -21.265625 L 2.75 -28.359375 L 27.65625 -28.359375 C 27.019531 -29.566406 26.546875 -30.460938 26.234375 -31.046875 Z M 39 -27.578125 L 35.21875 -25.765625 C 33.800781 -28.492188 32.773438 -30.4375 32.140625 -31.59375 L 35.921875 -33.484375 C 37.128906 -31.273438 38.15625 -29.304688 39 -27.578125 Z M 39 -27.578125 "/></g></g></g><g fill="#0097b2" fill-opacity="1"><g transform="translate(130.870548, 228.229262)"><g><path d="M 15.171875 -4.328125 C 15.742188 -4.328125 16.082031 -4.394531 16.1875 -4.53125 C 16.289062 -4.664062 16.34375 -5.0625 16.34375 -5.71875 L 16.34375 -20.09375 L 3.15625 -20.09375 L 3.15625 -26.78125 L 16.34375 -26.78125 L 16.34375 -31.90625 L 24.03125 -31.90625 L 24.03125 -26.78125 L 36.234375 -26.78125 L 36.234375 -20.09375 L 24.03125 -20.09375 L 24.03125 -4.734375 C 24.03125 -3.546875 24.007812 -2.609375 23.96875 -1.921875 C 23.925781 -1.242188 23.804688 -0.601562 23.609375 0 C 23.410156 0.601562 23.179688 1.035156 22.921875 1.296875 C 22.660156 1.554688 22.226562 1.78125 21.625 1.96875 C 21.019531 2.15625 20.378906 2.265625 19.703125 2.296875 C 19.035156 2.335938 18.113281 2.359375 16.9375 2.359375 C 15.539062 2.359375 13.441406 2.226562 10.640625 1.96875 L 11.03125 -4.640625 C 13.34375 -4.429688 14.722656 -4.328125 15.171875 -4.328125 Z M 7.28125 -17.71875 L 13.984375 -15.75 C 12.117188 -10.5 10.148438 -5.578125 8.078125 -0.984375 L 1.578125 -3.546875 C 3.492188 -7.878906 5.394531 -12.601562 7.28125 -17.71875 Z M 25.40625 -15.75 L 31.90625 -18.125 C 33.957031 -13.445312 35.925781 -8.519531 37.8125 -3.34375 L 31.125 -0.984375 C 29.070312 -6.578125 27.164062 -11.5 25.40625 -15.75 Z M 25.40625 -15.75 "/></g></g></g><g fill="#0097b2" fill-opacity="1"><g transform="translate(174.866858, 228.229262)"><g><path d="M 3.15625 -10.4375 L 3.15625 -17.921875 L 36.234375 -17.921875 L 36.234375 -10.4375 Z M 3.15625 -10.4375 "/></g></g></g><g fill="#0097b2" fill-opacity="1"><g transform="translate(218.863163, 228.229262)"><g><path d="M 31.515625 -17.53125 L 38.609375 -16.546875 C 38.023438 -9.984375 36.25 -5.289062 33.28125 -2.46875 C 30.3125 0.351562 25.78125 1.765625 19.6875 1.765625 L 18.515625 1.765625 L 18.515625 -30.328125 L 26.1875 -30.328125 L 26.1875 -6.1875 C 27.820312 -6.84375 29.023438 -8.023438 29.796875 -9.734375 C 30.578125 -11.441406 31.148438 -14.039062 31.515625 -17.53125 Z M 1.1875 -3.9375 C 2.5 -4.625 3.5 -5.242188 4.1875 -5.796875 C 4.882812 -6.347656 5.515625 -7.003906 6.078125 -7.765625 C 6.648438 -8.523438 7.039062 -9.550781 7.25 -10.84375 C 7.457031 -12.144531 7.613281 -13.613281 7.71875 -15.25 C 7.820312 -16.894531 7.875 -19.164062 7.875 -22.0625 L 7.875 -30.328125 L 15.359375 -30.328125 L 15.359375 -22.0625 C 15.359375 -16.570312 15.054688 -12.300781 14.453125 -9.25 C 13.847656 -6.207031 12.859375 -3.84375 11.484375 -2.15625 C 10.109375 -0.476562 8.050781 1.023438 5.3125 2.359375 Z M 1.1875 -3.9375 "/></g></g></g><g fill="#0097b2" fill-opacity="1"><g transform="translate(262.859478, 228.229262)"><g><path d="M 19.5 -6.375 L 19.5 -6.296875 L 30.53125 -6.296875 L 30.53125 0 L 9.25 0 L 9.25 -6.296875 C 13.007812 -8.953125 15.828125 -11.085938 17.703125 -12.703125 C 19.578125 -14.316406 20.800781 -15.609375 21.375 -16.578125 C 21.957031 -17.554688 22.25 -18.59375 22.25 -19.6875 C 22.25 -21.664062 21.003906 -22.65625 18.515625 -22.65625 C 16.441406 -22.65625 13.75 -21.664062 10.4375 -19.6875 L 8.46875 -26 C 9.832031 -26.894531 11.578125 -27.644531 13.703125 -28.25 C 15.835938 -28.851562 17.832031 -29.15625 19.6875 -29.15625 C 23.101562 -29.15625 25.726562 -28.382812 27.5625 -26.84375 C 29.40625 -25.3125 30.328125 -23.191406 30.328125 -20.484375 C 30.328125 -18.304688 29.59375 -16.242188 28.125 -14.296875 C 26.65625 -12.359375 23.78125 -9.71875 19.5 -6.375 Z M 19.5 -6.375 "/></g></g></g><g fill="#0097b2" fill-opacity="1"><g transform="translate(306.855783, 228.229262)"><g><path d="M 20.59375 -16.9375 L 20.59375 -11.03125 L 10.75 -11.03125 L 10.75 0 L 2.875 0 L 2.875 -28.75 L 21.390625 -28.75 L 21.390625 -22.453125 L 10.75 -22.453125 L 10.75 -16.9375 Z M 20.59375 -16.9375 "/></g></g></g><g fill="#ffbd59" fill-opacity="1"><g transform="translate(130.184207, 104.924044)"><g><path d="M -8.3125 -19.515625 L -7.140625 -18.359375 L -3.921875 -21.59375 L -5.09375 -22.75 Z M -10.890625 -22.09375 L -7.671875 -25.328125 L -8.828125 -26.46875 L -12.046875 -23.234375 Z M 6.046875 -33.984375 L 2.578125 -30.5 L 3.75 -29.34375 L 7.21875 -32.828125 Z M 3.46875 -36.5625 L 2.3125 -37.703125 L -1.15625 -34.21875 L 0 -33.078125 Z M 8.21875 -3.109375 L 3.734375 1.390625 L -19.75 -21.9375 L -8.734375 -33.03125 L 2.234375 -22.140625 L -4.296875 -15.546875 Z M 17.6875 -20.390625 C 18.1875 -20.890625 18.441406 -21.222656 18.453125 -21.390625 C 18.472656 -21.566406 18.257812 -21.878906 17.8125 -22.328125 L 10.0625 -30.015625 L 3.265625 -23.171875 L -7.703125 -34.0625 L 3.578125 -45.421875 L 21.90625 -27.21875 C 22.78125 -26.34375 23.453125 -25.644531 23.921875 -25.125 C 24.398438 -24.601562 24.785156 -24.0625 25.078125 -23.5 C 25.367188 -22.9375 25.523438 -22.472656 25.546875 -22.109375 C 25.566406 -21.742188 25.441406 -21.289062 25.171875 -20.75 C 24.910156 -20.21875 24.570312 -19.710938 24.15625 -19.234375 C 23.738281 -18.765625 23.125 -18.125 22.3125 -17.3125 C 21.71875 -16.71875 20.820312 -15.898438 19.625 -14.859375 L 19.09375 -15.34375 L 15.53125 -11.765625 L 11.40625 -15.875 L 9.609375 -14.0625 C 10.859375 -12.125 11.460938 -9.632812 11.421875 -6.59375 L 6.421875 -5.421875 C 6.472656 -7.484375 6.28125 -9.097656 5.84375 -10.265625 L 4.21875 -8.640625 L 1.5 -11.328125 L 3.5625 -13.40625 L 2.265625 -14.6875 L 0.46875 -12.875 L -2.234375 -15.578125 L 10.0625 -27.96875 L 12.765625 -25.265625 L 11.109375 -23.578125 L 12.40625 -22.296875 L 14.328125 -24.25 L 17.046875 -21.5625 L 15.125 -19.609375 L 15.921875 -18.8125 C 16.765625 -19.519531 17.351562 -20.046875 17.6875 -20.390625 Z M 5.859375 -18.296875 L 7.03125 -17.140625 L 7.15625 -17.015625 L 8.6875 -18.5625 L 7.390625 -19.84375 Z M 5.859375 -18.296875 "/></g></g></g><g fill="#ffbd59" fill-opacity="1"><g transform="translate(154.155777, 80.075033)"><g><path d="M 7.609375 -23.140625 L 5.9375 -22.703125 L 4.265625 -28.921875 C 4.410156 -26.722656 4.40625 -24.644531 4.25 -22.6875 L 6.984375 -12.5 C 7.410156 -15.894531 7.617188 -19.441406 7.609375 -23.140625 Z M 18.609375 -17.625 L 18.28125 -18.859375 L 14.59375 -17.875 L 14.921875 -16.640625 Z M 19.84375 -13.0625 L 19.515625 -14.296875 L 15.828125 -13.3125 L 16.15625 -12.078125 Z M 20.734375 -9.71875 L 17.046875 -8.734375 L 17.390625 -7.515625 L 21.078125 -8.5 Z M 17.578125 -23.5625 C 17.585938 -24.125 17.550781 -24.867188 17.46875 -25.796875 L 9.5625 -23.671875 L 14.453125 -24.046875 C 14.460938 -23.898438 14.46875 -23.679688 14.46875 -23.390625 C 14.46875 -23.109375 14.460938 -22.890625 14.453125 -22.734375 Z M 19.046875 -1.359375 L 12.5625 0.390625 L 10.015625 -9.03125 L 7.890625 -9.171875 L 10.609375 0.921875 L 4.65625 2.515625 L 0.859375 -11.546875 C 0.304688 -9.671875 -0.210938 -8.332031 -0.703125 -7.53125 L -3.921875 -15.328125 C -3.109375 -17.398438 -2.5625 -19.578125 -2.28125 -21.859375 C -2.007812 -24.148438 -1.972656 -27.03125 -2.171875 -30.5 L 4.09375 -31.0625 L 9.171875 -32.421875 L 10.109375 -28.90625 L 12.75 -29.625 L 11.578125 -34.015625 L 17.90625 -35.71875 L 19.078125 -31.328125 L 21.71875 -32.03125 L 20.78125 -35.546875 L 26.21875 -37.015625 L 28.4375 -28.75 L 19.34375 -26.296875 L 24.109375 -26.640625 C 24.128906 -26.484375 24.144531 -26.257812 24.15625 -25.96875 C 24.164062 -25.6875 24.175781 -25.476562 24.1875 -25.34375 L 29.34375 -26.734375 L 30.578125 -22.171875 L 24.4375 -20.515625 L 24.765625 -19.28125 L 30.03125 -20.703125 L 30.9375 -17.375 L 25.671875 -15.953125 L 26 -14.71875 L 31.265625 -16.140625 L 32.15625 -12.796875 L 26.890625 -11.375 L 27.234375 -10.15625 L 33.734375 -11.90625 L 35.046875 -6.984375 L 18.703125 -2.59375 Z M 19.046875 -1.359375 "/></g></g></g><g fill="#ffbd59" fill-opacity="1"><g transform="translate(187.362028, 70.617182)"><g><path d="M 23.796875 -14.890625 L 23.46875 -13.65625 L 31.015625 -11.625 L 31.34375 -12.859375 Z M 24.515625 -17.53125 L 32.0625 -15.5 L 32.390625 -16.71875 L 24.84375 -18.75 Z M 16.75 -6.796875 L 14.078125 -7.515625 L 15.109375 -11.375 L 13.53125 -11.8125 L 11.71875 -5.078125 C 13.375 -5.472656 15.050781 -6.046875 16.75 -6.796875 Z M 28.96875 2.546875 C 27.9375 3.503906 26.695312 4.457031 25.25 5.40625 C 26.132812 5.6875 26.671875 5.851562 26.859375 5.90625 C 27.398438 6.050781 27.765625 5.984375 27.953125 5.703125 C 28.140625 5.429688 28.453125 4.484375 28.890625 2.859375 Z M 17.265625 -25.703125 L 14.953125 -17.078125 L 17.59375 -16.359375 L 19.90625 -24.984375 L 40.109375 -19.546875 L 36.703125 -6.875 L 22.65625 -10.65625 L 17.203125 -12.125 L 16.921875 -11.09375 L 38 -5.421875 L 36.921875 -1.375 L 22.40625 -5.28125 C 21.851562 -4.925781 21.429688 -4.660156 21.140625 -4.484375 L 35.9375 -0.5 L 34.90625 3.359375 C 34.332031 5.472656 33.820312 7.097656 33.375 8.234375 C 32.9375 9.367188 32.414062 10.222656 31.8125 10.796875 C 31.21875 11.378906 30.597656 11.6875 29.953125 11.71875 C 29.304688 11.75 28.421875 11.613281 27.296875 11.3125 C 26.421875 11.082031 24.910156 10.613281 22.765625 9.90625 L 23.421875 6.53125 C 21.367188 7.71875 19.460938 8.578125 17.703125 9.109375 L 15.1875 5.21875 C 18.5625 4.25 21.65625 2.691406 24.46875 0.546875 L 23.375 0.265625 C 21.757812 1.390625 19.804688 2.414062 17.515625 3.34375 C 15.234375 4.269531 13.078125 4.898438 11.046875 5.234375 L 8.890625 1.25 C 12.378906 0.71875 15.304688 -0.125 17.671875 -1.28125 L 15.5 -1.859375 C 15.363281 -1.816406 14.816406 -1.644531 13.859375 -1.34375 L 13.640625 -0.296875 C 9.328125 0.609375 5.257812 1.023438 1.4375 0.953125 L 2.25 -4.859375 C 3.257812 -4.765625 4.1875 -4.703125 5.03125 -4.671875 L 7.390625 -13.453125 L 4.9375 -14.125 L 6.359375 -19.390625 L 8.8125 -18.71875 L 11.125 -27.34375 Z M 17.265625 -25.703125 "/></g></g></g><g fill="#ffbd59" fill-opacity="1"><g transform="translate(220.82908, 79.10635)"><g><path d="M 14.8125 -1.625 L 17.234375 0.828125 L 20.328125 -2.25 L 17.90625 -4.703125 L 15.71875 -2.53125 Z M 31.640625 5.015625 L 38.296875 11.71875 L 34.171875 15.8125 L 32.5 14.140625 L 20.875 25.6875 L 16.515625 21.296875 L 28.140625 9.75 L 27.171875 8.765625 C 24.054688 11.179688 21.25 12.875 18.75 13.84375 C 16.257812 14.8125 13.507812 15.351562 10.5 15.46875 L 10.265625 9.296875 C 12.710938 9.117188 14.890625 8.644531 16.796875 7.875 L 10.90625 1.9375 C 7.53125 4.800781 4.441406 6.6875 1.640625 7.59375 L 0 1.03125 C 1.988281 0.269531 3.859375 -0.769531 5.609375 -2.09375 C 7.367188 -3.425781 10.007812 -5.84375 13.53125 -9.34375 L 17.140625 -12.9375 L 27.78125 -2.21875 L 18.28125 7.21875 C 22.070312 5.34375 27.222656 1.175781 33.734375 -5.28125 C 37.816406 -1.75 41.582031 0.835938 45.03125 2.484375 L 42.03125 7.734375 C 39.65625 6.503906 37.039062 4.800781 34.1875 2.625 C 32.582031 4.125 31.734375 4.921875 31.640625 5.015625 Z M 17.8125 -15.140625 L 21.8125 -19.109375 L 33.484375 -7.359375 L 29.484375 -3.390625 Z M 17.8125 -15.140625 "/></g></g></g><g clip-path="url(#ce5c7f9e44)"><path fill="#a2d188" d="M 148.570312 107.589844 C 151.507812 107.664062 153.542969 109.097656 154.75 111.660156 C 155.203125 112.640625 155.503906 113.769531 155.503906 114.902344 C 155.578125 118.59375 153.089844 122.210938 148.945312 122.664062 C 145.402344 123.117188 141.636719 120.78125 140.882812 116.632812 C 140.503906 114.375 141.183594 112.414062 142.613281 110.679688 C 143.21875 110 143.820312 109.398438 144.574219 108.871094 C 145.78125 108.042969 147.136719 107.589844 148.570312 107.589844 Z M 223.191406 108.417969 C 221.910156 109.097656 220.851562 110.078125 220.023438 111.207031 C 218.816406 112.867188 218.367188 114.75 218.742188 116.785156 C 219.421875 120.402344 222.4375 122.664062 225.828125 122.738281 C 228.238281 122.816406 230.199219 121.835938 231.707031 119.953125 C 232.761719 118.59375 233.363281 116.9375 233.363281 115.203125 C 233.363281 113.921875 233.140625 112.714844 232.535156 111.585938 C 231.253906 109.097656 229.296875 107.664062 226.429688 107.589844 C 225.300781 107.589844 224.167969 107.890625 223.191406 108.417969 Z M 223.191406 108.417969 " fill-opacity="1" fill-rule="nonzero"/></g><g clip-path="url(#f15e73f460)"><path fill="#a0daea" d="M 174.273438 107.589844 C 177.136719 107.515625 179.546875 109.25 180.601562 111.8125 C 181.734375 114.523438 181.507812 117.164062 179.773438 119.648438 C 178.566406 121.382812 176.835938 122.363281 174.722656 122.664062 C 172.238281 122.964844 170.125 122.136719 168.394531 120.328125 C 166.660156 118.367188 166.054688 116.03125 166.808594 113.46875 C 167.488281 111.132812 169.070312 109.550781 171.105469 108.34375 C 172.085938 107.816406 173.214844 107.515625 174.273438 107.589844 Z M 259.292969 109.777344 C 257.183594 107.4375 253.867188 107.0625 251.378906 108.269531 C 250.097656 108.871094 249.117188 109.777344 248.214844 110.832031 C 246.78125 112.640625 246.179688 114.675781 246.707031 116.9375 C 247.382812 119.875 249.195312 121.683594 252.132812 122.515625 C 253.941406 123.042969 255.75 122.738281 257.335938 121.835938 C 259.972656 120.402344 261.101562 118.066406 261.253906 115.65625 C 261.328125 113.09375 260.652344 111.28125 259.292969 109.777344 Z M 259.292969 109.777344 " fill-opacity="1" fill-rule="nonzero"/></g><g clip-path="url(#eb55142f41)"><path fill="#fae099" d="M 192.585938 115.429688 C 192.585938 113.542969 193.339844 111.886719 194.621094 110.453125 C 195.300781 109.699219 196.054688 109.023438 196.882812 108.570312 C 197.789062 108.042969 198.769531 107.742188 199.898438 107.664062 C 201.179688 107.589844 202.386719 107.816406 203.515625 108.417969 C 204.648438 109.023438 205.550781 109.925781 206.15625 111.058594 C 207.8125 113.996094 207.738281 116.9375 205.777344 119.726562 C 204.570312 121.535156 202.761719 122.515625 200.578125 122.738281 C 198.164062 122.964844 196.128906 122.210938 194.472656 120.480469 C 193.265625 119.046875 192.585938 117.386719 192.585938 115.429688 Z M 119.097656 108.269531 C 117.589844 109.023438 116.308594 110.152344 115.480469 111.660156 C 113.671875 114.675781 114.125 118.066406 116.535156 120.554688 C 118.117188 122.210938 120.152344 122.890625 122.414062 122.664062 C 125.503906 122.363281 127.917969 120.328125 128.820312 117.3125 C 129.347656 115.429688 129.273438 113.542969 128.445312 111.8125 C 127.3125 109.171875 124.976562 107.589844 122.113281 107.589844 C 121.058594 107.589844 120.078125 107.816406 119.097656 108.269531 Z M 119.097656 108.269531 " fill-opacity="1" fill-rule="nonzero"/></g></svg>