<svg xmlns="http://www.w3.org/2000/svg" xmlns:xlink="http://www.w3.org/1999/xlink" width="500" zoomAndPan="magnify" viewBox="0 0 375 374.999991" height="500" preserveAspectRatio="xMidYMid meet" version="1.0"><defs><filter x="0%" y="0%" width="100%" height="100%" id="0221d76dcc"><feColorMatrix values="0 0 0 0 1 0 0 0 0 1 0 0 0 0 1 0 0 0 1 0" color-interpolation-filters="sRGB"/></filter><g/><mask id="acdf7e70c5"><g filter="url(#0221d76dcc)"><rect x="-37.5" width="450" fill="#000000" y="-37.499999" height="449.999989" fill-opacity="0.34"/></g></mask><clipPath id="780368cfe1"><path d="M 3.765625 3.769531 L 339.015625 3.769531 L 339.015625 337.519531 L 3.765625 337.519531 Z M 3.765625 3.769531 " clip-rule="nonzero"/></clipPath><clipPath id="06e102d862"><rect x="0" width="343" y="0" height="341"/></clipPath><clipPath id="6991fbefbf"><path d="M 140 107.0625 L 234 107.0625 L 234 122.8125 L 140 122.8125 Z M 140 107.0625 " clip-rule="nonzero"/></clipPath><clipPath id="6410b79b60"><path d="M 166 107.0625 L 262 107.0625 L 262 122.8125 L 166 122.8125 Z M 166 107.0625 " clip-rule="nonzero"/></clipPath><clipPath id="0d9f0294ed"><path d="M 114 107.0625 L 208 107.0625 L 208 122.8125 L 114 122.8125 Z M 114 107.0625 " clip-rule="nonzero"/></clipPath></defs><g mask="url(#acdf7e70c5)"><g transform="matrix(1, 0, 0, 1, 16, 17)"><g clip-path="url(#06e102d862)"><path fill="#a2d188" d="M 338.722656 173.003906 C 338.738281 172.167969 338.742188 171.328125 338.742188 170.351562 L 338.742188 170.058594 C 338.742188 160.851562 331.5 153.332031 322.40625 152.894531 C 331.144531 150.386719 336.480469 141.441406 334.402344 132.484375 C 334.210938 131.652344 334.011719 130.828125 333.808594 130.011719 C 331.582031 121.082031 322.742188 115.542969 313.824219 117.300781 C 321.714844 112.769531 324.75 102.789062 320.566406 94.59375 C 320.1875 93.84375 319.796875 93.09375 319.402344 92.351562 C 315.109375 84.234375 305.21875 80.976562 296.976562 84.808594 C 303.535156 78.515625 304.085938 68.121094 298.074219 61.167969 C 297.523438 60.535156 296.96875 59.902344 296.414062 59.277344 C 290.292969 52.40625 279.898438 51.601562 272.8125 57.304688 C 277.703125 49.648438 275.773438 39.417969 268.289062 34.085938 C 267.597656 33.585938 266.898438 33.097656 266.191406 32.613281 C 258.609375 27.398438 248.316406 29.105469 242.792969 36.347656 C 245.726562 27.714844 241.382812 18.21875 232.808594 14.835938 C 232.027344 14.53125 231.242188 14.230469 230.453125 13.933594 C 221.835938 10.683594 212.234375 14.816406 208.621094 23.183594 C 209.390625 14.105469 202.894531 5.921875 193.761719 4.710938 C 192.929688 4.601562 192.089844 4.492188 191.253906 4.394531 C 182.144531 3.339844 173.832031 9.601562 172.304688 18.558594 C 170.871094 9.589844 162.644531 3.214844 153.5 4.191406 C 152.660156 4.285156 151.824219 4.378906 150.988281 4.480469 C 141.859375 5.597656 135.28125 13.6875 135.933594 22.757812 C 132.402344 14.375 122.871094 10.160156 114.226562 13.296875 C 113.429688 13.589844 112.632812 13.886719 111.839844 14.191406 C 103.261719 17.472656 98.828125 26.878906 101.621094 35.515625 C 96.171875 28.261719 85.929688 26.464844 78.308594 31.582031 C 77.605469 32.050781 76.910156 32.523438 76.214844 33.007812 C 68.664062 38.25 66.613281 48.460938 71.414062 56.183594 C 64.390625 50.414062 54.003906 51.101562 47.8125 57.890625 C 47.242188 58.515625 46.679688 59.144531 46.117188 59.78125 C 40.027344 66.675781 40.472656 77.097656 46.984375 83.449219 C 38.777344 79.5 28.839844 82.652344 24.449219 90.734375 C 24.042969 91.476562 23.640625 92.230469 23.25 92.976562 C 18.980469 101.144531 21.910156 111.15625 29.769531 115.765625 C 20.851562 113.898438 11.945312 119.34375 9.621094 128.265625 C 9.410156 129.078125 9.199219 129.898438 9 130.71875 C 6.824219 139.648438 12.058594 148.660156 20.773438 151.253906 C 11.691406 151.601562 4.375 159.015625 4.253906 168.207031 C 4.242188 168.964844 4.238281 169.726562 4.238281 170.484375 L 4.238281 170.699219 C 4.238281 180.011719 11.648438 187.492188 20.894531 187.773438 C 11.945312 190.128906 6.429688 199.1875 8.527344 208.261719 C 8.71875 209.085938 8.914062 209.90625 9.117188 210.722656 C 11.328125 219.65625 20.140625 225.214844 29.082031 223.46875 C 21.179688 227.988281 18.136719 237.964844 22.308594 246.171875 C 22.6875 246.917969 23.078125 247.667969 23.46875 248.410156 C 27.761719 256.539062 37.640625 259.808594 45.886719 255.988281 C 39.308594 262.273438 38.75 272.675781 44.757812 279.632812 C 45.308594 280.265625 45.859375 280.902344 46.417969 281.527344 C 52.523438 288.398438 62.910156 289.214844 70.003906 283.523438 C 65.101562 291.191406 67.03125 301.441406 74.527344 306.773438 C 75.210938 307.261719 75.894531 307.742188 76.582031 308.214844 C 84.164062 313.453125 94.460938 311.761719 99.996094 304.527344 C 97.054688 313.148438 101.378906 322.652344 109.941406 326.046875 C 110.726562 326.355469 111.515625 326.660156 112.300781 326.953125 C 120.921875 330.21875 130.527344 326.097656 134.152344 317.730469 C 133.367188 326.808594 139.851562 335.003906 148.984375 336.234375 C 149.816406 336.34375 150.65625 336.449219 151.492188 336.550781 C 160.621094 337.640625 168.921875 331.367188 170.464844 322.40625 C 171.789062 330.777344 179.03125 336.898438 187.414062 336.898438 C 188.019531 336.898438 188.628906 336.867188 189.242188 336.800781 C 190.082031 336.710938 190.921875 336.617188 191.757812 336.519531 C 200.886719 335.410156 207.476562 327.332031 206.835938 318.257812 C 210.359375 326.648438 219.886719 330.886719 228.539062 327.746094 C 229.332031 327.457031 230.125 327.164062 230.910156 326.867188 C 239.496094 323.601562 243.949219 314.199219 241.167969 305.550781 C 246.617188 312.828125 256.867188 314.632812 264.5 309.507812 C 265.191406 309.046875 265.878906 308.574219 266.5625 308.101562 C 274.128906 302.867188 276.195312 292.660156 271.410156 284.925781 C 278.433594 290.710938 288.828125 290.03125 295.023438 283.230469 C 295.585938 282.617188 296.148438 281.996094 296.699219 281.375 C 302.804688 274.484375 302.382812 264.0625 295.875 257.691406 C 304.066406 261.648438 314.015625 258.515625 318.425781 250.441406 C 318.832031 249.699219 319.230469 248.953125 319.621094 248.210938 C 323.910156 240.054688 320.996094 230.027344 313.136719 225.402344 C 322.058594 227.285156 330.972656 221.851562 333.304688 212.9375 C 333.519531 212.117188 333.726562 211.304688 333.929688 210.480469 C 336.121094 201.554688 330.898438 192.535156 322.183594 189.925781 C 331.261719 189.597656 338.585938 182.195312 338.722656 173.003906 Z M 338.722656 173.003906 " fill-opacity="1" fill-rule="nonzero"/><g clip-path="url(#780368cfe1)"><path stroke-linecap="butt" transform="matrix(0.670302, 0, 0, 0.670302, 3.918619, 3.769333)" fill="none" stroke-linejoin="miter" d="M 499.482554 252.475201 C 499.505865 251.228095 499.511692 249.975161 499.511692 248.518262 L 499.511692 248.081192 C 499.511692 234.34554 488.707324 223.127412 475.140673 222.474721 C 488.177012 218.733402 496.137513 205.3882 493.03723 192.025515 C 492.751677 190.784237 492.45447 189.554613 492.151435 188.336645 C 488.829703 175.014753 475.641846 166.751218 462.337437 169.373637 C 474.109188 162.613622 478.637232 147.724106 472.395874 135.497803 C 471.830596 134.378904 471.247837 133.260005 470.659249 132.152761 C 464.254718 120.04301 449.499236 115.182793 437.203002 120.899667 C 446.987541 111.511405 447.809233 96.004164 438.840558 85.631037 C 438.018866 84.686966 437.191347 83.742895 436.363828 82.810479 C 427.23198 72.559732 411.724739 71.359247 401.153474 79.867542 C 408.449628 68.445447 405.570794 53.182965 394.405114 45.228292 C 393.373629 44.48236 392.330489 43.75391 391.275693 43.031287 C 379.964323 35.251443 364.608599 37.798103 356.368374 48.602472 C 360.744901 35.723478 354.264611 21.556585 341.473031 16.509884 C 340.307511 16.055331 339.136163 15.606606 337.958988 15.163708 C 325.103305 10.315146 310.779066 16.480746 305.388537 28.963463 C 306.536574 15.420123 296.845276 3.211302 283.220349 1.404747 C 281.979071 1.241574 280.726137 1.078401 279.479031 0.932711 C 265.88907 -0.640741 253.487939 8.700901 251.209347 22.063586 C 249.070618 8.683418 236.797694 -0.827224 223.155285 0.629676 C 221.902351 0.769538 220.655245 0.909401 219.408139 1.060918 C 205.789039 2.727612 195.975362 14.796569 196.948571 28.328255 C 191.680422 15.822227 177.46108 9.534247 164.564603 14.21381 C 163.375773 14.65088 162.186942 15.093777 161.00394 15.54833 C 148.206532 20.443513 141.592207 34.476372 145.75894 47.361194 C 137.62944 36.539342 122.349475 33.858646 110.979829 41.492801 C 109.930861 42.192113 108.893548 42.897253 107.856235 43.619875 C 96.591486 51.440513 93.531997 66.673857 100.694116 78.195021 C 90.216093 69.587657 74.720507 70.613314 65.483762 80.741682 C 64.632932 81.674098 63.793758 82.612341 62.954584 83.56224 C 53.869357 93.847952 54.533703 109.395987 64.248311 118.871663 C 52.004525 112.97996 37.179113 117.682833 30.628891 129.740135 C 30.022821 130.847379 29.422578 131.972106 28.839818 133.085177 C 22.470252 145.270687 26.840952 160.206824 38.566081 167.083391 C 25.261672 164.297798 11.974746 172.421472 8.507325 185.731708 C 8.192634 186.943849 7.877944 188.167645 7.580737 189.39144 C 4.334764 202.713332 12.143747 216.157603 25.14512 220.027129 C 11.595952 220.545786 0.680859 231.606569 0.500204 245.31891 C 0.482721 246.449464 0.476893 247.585846 0.476893 248.7164 L 0.476893 249.036918 C 0.476893 262.929914 11.531849 274.089767 25.325776 274.509354 C 11.974746 278.023396 3.746176 291.537599 6.875597 305.075111 C 7.161149 306.304735 7.452529 307.528531 7.755565 308.746499 C 11.053986 322.074218 24.201049 330.366892 37.540424 327.761955 C 25.751191 334.504487 21.211491 349.388176 27.435367 361.631961 C 28.000644 362.745033 28.583404 363.863932 29.166164 364.971176 C 35.570695 377.09841 50.308694 381.97611 62.610755 376.276718 C 52.797078 385.653325 51.963732 401.172222 60.926579 411.551176 C 61.748271 412.495247 62.569962 413.445146 63.403309 414.377561 C 72.511846 424.628308 88.007433 425.846277 98.590353 417.355465 C 91.276716 428.795042 94.15555 444.086662 105.338713 452.041335 C 106.358542 452.769785 107.378372 453.486579 108.40403 454.191719 C 119.7154 462.006529 135.076951 459.483179 143.334659 448.690465 C 138.946477 461.551977 145.397629 475.730525 158.171727 480.794709 C 159.343074 481.255089 160.520249 481.709642 161.691596 482.146712 C 174.553108 487.018585 188.883174 480.870468 194.291186 468.38775 C 193.119839 481.931091 202.793653 494.157394 216.41858 495.993088 C 217.659859 496.156261 218.912793 496.313606 220.159899 496.465123 C 233.778998 498.091023 246.162646 488.731899 248.464548 475.363387 C 250.440104 487.851932 261.244473 496.98378 273.750501 496.98378 C 274.653779 496.98378 275.562884 496.937159 276.477817 496.83809 C 277.730751 496.704055 278.983685 496.564192 280.230791 496.418502 C 293.84989 494.763464 303.68105 482.711989 302.725324 469.174476 C 307.981818 481.692159 322.195333 488.015104 335.103465 483.329715 C 336.286467 482.898472 337.46947 482.461402 338.640818 482.018505 C 351.44988 477.146632 358.093344 463.119601 353.944093 450.217296 C 362.073594 461.074114 377.365214 463.766464 388.752343 456.120654 C 389.783828 455.432998 390.809485 454.727858 391.829315 454.022719 C 403.117375 446.213736 406.200175 430.986219 399.061366 419.447573 C 409.539389 428.078247 425.04663 427.064245 434.289203 416.918395 C 435.128377 416.003462 435.967551 415.076873 436.789243 414.150285 C 445.89778 403.8704 445.268399 388.322366 435.559619 378.817551 C 447.780095 384.720909 462.62299 380.047175 469.202349 368.001527 C 469.80842 366.894283 470.402835 365.781212 470.985595 364.673968 C 477.384298 352.505941 473.036909 337.546494 461.31178 330.646617 C 474.622016 333.455519 487.920598 325.349329 491.399674 312.050748 C 491.720192 310.826952 492.029055 309.614811 492.33209 308.385188 C 495.601373 295.069124 487.809873 281.613197 474.8085 277.720361 C 488.35184 277.230843 499.278588 266.187542 499.482554 252.475201 Z M 499.482554 252.475201 " stroke="#ffffff" stroke-width="0.9673" stroke-opacity="1" stroke-miterlimit="10"/><path fill="#00bf63" d="M 187.414062 337.226562 C 179.285156 337.226562 172.378906 331.746094 170.453125 323.984375 C 168.441406 331.613281 161.5625 337 153.550781 337 C 152.855469 337 152.148438 336.957031 151.453125 336.875 C 150.613281 336.773438 149.777344 336.667969 148.941406 336.558594 C 140.183594 335.375 133.78125 327.933594 133.765625 319.269531 C 130.722656 324.863281 124.84375 328.398438 118.386719 328.398438 C 116.269531 328.398438 114.183594 328.015625 112.1875 327.257812 C 111.398438 326.960938 110.609375 326.652344 109.824219 326.347656 C 101.613281 323.09375 97.1875 314.335938 99.25 305.925781 C 95.945312 309.542969 91.320312 311.585938 86.34375 311.585938 C 82.78125 311.585938 79.34375 310.511719 76.398438 308.476562 C 75.710938 308.007812 75.027344 307.523438 74.34375 307.039062 C 67.152344 301.921875 64.945312 292.363281 68.957031 284.691406 C 66.101562 286.585938 62.714844 287.617188 59.269531 287.617188 C 54.269531 287.617188 49.496094 285.472656 46.175781 281.738281 C 45.652344 281.152344 45.132812 280.550781 44.617188 279.957031 L 44.515625 279.835938 C 38.761719 273.171875 38.886719 263.367188 44.589844 256.867188 C 42.695312 257.550781 40.714844 257.898438 38.6875 257.898438 C 32.164062 257.898438 26.226562 254.316406 23.183594 248.554688 C 22.789062 247.8125 22.402344 247.0625 22.019531 246.3125 C 18.023438 238.445312 20.5 228.953125 27.609375 224.011719 C 27.003906 224.078125 26.394531 224.109375 25.785156 224.109375 C 17.726562 224.109375 10.742188 218.636719 8.804688 210.796875 C 8.601562 209.976562 8.40625 209.15625 8.214844 208.328125 C 6.199219 199.601562 10.96875 190.976562 19.199219 187.964844 C 10.503906 186.886719 3.917969 179.597656 3.917969 170.703125 L 3.917969 170.488281 C 3.917969 169.722656 3.921875 168.964844 3.933594 168.203125 C 4.050781 159.394531 10.644531 152.144531 19.214844 151.0625 C 11.179688 147.875 6.597656 139.203125 8.6875 130.644531 C 8.886719 129.824219 9.097656 129 9.308594 128.1875 C 11.320312 120.46875 18.289062 115.078125 26.25 115.078125 C 26.933594 115.078125 27.613281 115.117188 28.296875 115.199219 C 21.238281 110.179688 18.871094 100.65625 22.964844 92.832031 C 23.355469 92.078125 23.757812 91.328125 24.164062 90.582031 C 27.230469 84.9375 33.132812 81.433594 39.5625 81.433594 C 41.675781 81.433594 43.730469 81.804688 45.691406 82.546875 C 40.054688 75.984375 40.039062 66.179688 45.878906 59.566406 C 46.441406 58.933594 47.003906 58.300781 47.574219 57.675781 C 50.886719 54.042969 55.605469 51.960938 60.519531 51.960938 C 64.042969 51.960938 67.488281 53.035156 70.382812 55.003906 C 66.480469 47.292969 68.800781 37.765625 76.035156 32.742188 C 76.730469 32.261719 77.429688 31.785156 78.128906 31.3125 C 81.027344 29.367188 84.398438 28.339844 87.875 28.339844 C 92.847656 28.339844 97.613281 30.480469 100.910156 34.136719 C 98.976562 25.71875 103.511719 17.03125 111.730469 13.886719 C 112.527344 13.585938 113.320312 13.285156 114.117188 12.992188 C 116.050781 12.289062 118.066406 11.9375 120.101562 11.9375 C 126.644531 11.9375 132.558594 15.539062 135.574219 21.230469 C 135.707031 12.578125 142.207031 5.226562 150.953125 4.15625 C 151.789062 4.058594 152.628906 3.964844 153.46875 3.871094 C 154.09375 3.804688 154.726562 3.769531 155.351562 3.769531 C 163.472656 3.769531 170.378906 9.242188 172.3125 16.980469 C 174.316406 9.34375 181.210938 3.953125 189.257812 3.953125 C 189.933594 3.953125 190.617188 3.992188 191.292969 4.070312 C 192.132812 4.171875 192.972656 4.277344 193.808594 4.390625 C 202.566406 5.550781 208.980469 12.980469 209.011719 21.644531 C 212.050781 16.042969 217.933594 12.5 224.398438 12.5 C 226.503906 12.5 228.582031 12.878906 230.574219 13.628906 C 231.363281 13.925781 232.148438 14.230469 232.929688 14.535156 C 241.152344 17.777344 245.597656 26.53125 243.542969 34.949219 C 246.851562 31.316406 251.484375 29.261719 256.476562 29.261719 C 260.019531 29.261719 263.445312 30.328125 266.378906 32.34375 C 267.082031 32.835938 267.785156 33.320312 268.480469 33.824219 C 275.648438 38.929688 277.859375 48.472656 273.867188 56.132812 C 276.726562 54.230469 280.117188 53.195312 283.570312 53.195312 C 288.566406 53.195312 293.335938 55.332031 296.65625 59.058594 C 297.214844 59.6875 297.769531 60.320312 298.316406 60.957031 C 304.078125 67.617188 303.960938 77.421875 298.273438 83.921875 C 300.175781 83.234375 302.160156 82.882812 304.203125 82.882812 C 310.714844 82.882812 316.652344 86.453125 319.691406 92.199219 C 320.085938 92.941406 320.476562 93.695312 320.855469 94.445312 C 324.863281 102.304688 322.402344 111.800781 315.300781 116.75 C 315.914062 116.683594 316.53125 116.652344 317.148438 116.652344 C 325.195312 116.652344 332.175781 122.109375 334.125 129.929688 C 334.332031 130.753906 334.53125 131.578125 334.722656 132.410156 C 336.714844 140.992188 332.039062 149.609375 323.972656 152.710938 C 332.554688 153.882812 339.066406 161.226562 339.066406 170.058594 L 339.070312 170.351562 C 339.070312 171.328125 339.0625 172.171875 339.050781 173.011719 C 338.921875 181.816406 332.320312 189.054688 323.746094 190.125 C 331.78125 193.324219 336.347656 202.003906 334.246094 210.558594 C 334.039062 211.382812 333.835938 212.199219 333.617188 213.023438 C 331.605469 220.71875 324.644531 226.101562 316.691406 226.101562 C 316 226.101562 315.304688 226.058594 314.613281 225.976562 C 321.664062 231.011719 324.019531 240.542969 319.90625 248.359375 C 319.515625 249.105469 319.113281 249.855469 318.710938 250.597656 C 315.636719 256.226562 309.738281 259.726562 303.316406 259.726562 C 301.199219 259.726562 299.136719 259.347656 297.167969 258.601562 C 302.796875 265.179688 302.796875 274.988281 296.941406 281.589844 C 296.386719 282.214844 295.828125 282.835938 295.261719 283.449219 C 291.953125 287.082031 287.238281 289.164062 282.320312 289.164062 C 278.789062 289.164062 275.335938 288.089844 272.441406 286.109375 C 276.335938 293.832031 273.992188 303.355469 266.746094 308.363281 C 266.0625 308.839844 265.375 309.308594 264.679688 309.777344 C 261.78125 311.722656 258.410156 312.75 254.933594 312.75 C 249.953125 312.75 245.183594 310.601562 241.886719 306.929688 C 243.808594 315.351562 239.253906 324.035156 231.027344 327.164062 C 230.238281 327.460938 229.449219 327.753906 228.652344 328.042969 C 226.722656 328.742188 224.714844 329.097656 222.679688 329.097656 C 216.128906 329.097656 210.214844 325.488281 207.203125 319.78125 C 207.054688 328.429688 200.550781 335.769531 191.800781 336.835938 L 191.503906 336.871094 C 190.765625 336.953125 190.023438 337.039062 189.28125 337.117188 C 188.679688 337.191406 188.050781 337.226562 187.414062 337.226562 Z M 170.476562 320.421875 L 170.785156 322.359375 C 172.066406 330.464844 179.21875 336.578125 187.414062 336.578125 C 188.027344 336.578125 188.632812 336.546875 189.207031 336.480469 C 189.949219 336.402344 190.6875 336.320312 191.425781 336.234375 L 191.71875 336.199219 C 200.644531 335.113281 207.148438 327.246094 206.511719 318.28125 L 206.375 316.324219 L 207.132812 318.132812 C 209.769531 324.40625 215.871094 328.460938 222.675781 328.460938 C 224.636719 328.460938 226.574219 328.117188 228.429688 327.441406 C 229.222656 327.15625 230.011719 326.863281 230.796875 326.566406 C 239.183594 323.375 243.601562 314.1875 240.863281 305.652344 L 240.269531 303.808594 L 241.429688 305.359375 C 244.589844 309.585938 249.636719 312.109375 254.929688 312.109375 C 258.277344 312.109375 261.523438 311.117188 264.316406 309.242188 C 265.007812 308.78125 265.695312 308.308594 266.375 307.839844 C 273.769531 302.726562 275.859375 292.738281 271.128906 285.101562 L 270.097656 283.433594 L 271.613281 284.679688 C 274.617188 287.15625 278.421875 288.519531 282.320312 288.519531 C 287.054688 288.519531 291.597656 286.515625 294.785156 283.015625 C 295.347656 282.40625 295.90625 281.785156 296.457031 281.164062 C 302.429688 274.425781 302.074219 264.21875 295.644531 257.925781 L 294.230469 256.542969 L 296.011719 257.402344 C 298.3125 258.515625 300.773438 259.078125 303.316406 259.078125 C 309.503906 259.078125 315.179688 255.710938 318.140625 250.289062 C 318.542969 249.550781 318.941406 248.804688 319.332031 248.0625 C 323.523438 240.085938 320.730469 230.253906 312.96875 225.683594 L 311.261719 224.675781 L 313.199219 225.085938 C 314.347656 225.328125 315.523438 225.449219 316.6875 225.449219 C 324.34375 225.449219 331.046875 220.273438 332.988281 212.855469 C 333.199219 212.039062 333.40625 211.222656 333.609375 210.40625 C 335.753906 201.675781 330.691406 192.816406 322.085938 190.238281 L 320.210938 189.671875 L 322.167969 189.605469 C 331.136719 189.277344 338.265625 181.984375 338.398438 173 C 338.410156 172.164062 338.417969 171.324219 338.417969 170.351562 L 338.417969 170.058594 C 338.417969 161.046875 331.375 153.652344 322.386719 153.21875 L 320.429688 153.121094 L 322.3125 152.582031 C 330.945312 150.105469 336.117188 141.3125 334.082031 132.554688 C 333.894531 131.726562 333.695312 130.902344 333.492188 130.085938 C 331.613281 122.554688 324.890625 117.296875 317.140625 117.296875 C 316.054688 117.296875 314.957031 117.402344 313.886719 117.617188 L 311.957031 117.996094 L 313.664062 117.015625 C 321.460938 112.539062 324.363281 102.753906 320.277344 94.734375 C 319.898438 93.988281 319.507812 93.242188 319.117188 92.5 C 316.1875 86.964844 310.472656 83.527344 304.199219 83.527344 C 301.738281 83.527344 299.351562 84.054688 297.113281 85.097656 L 295.34375 85.917969 L 296.75 84.570312 C 303.226562 78.359375 303.703125 68.171875 297.828125 61.375 C 297.277344 60.746094 296.722656 60.113281 296.167969 59.484375 C 292.96875 55.898438 288.375 53.835938 283.566406 53.835938 C 279.738281 53.835938 275.988281 55.15625 273.015625 57.554688 L 271.472656 58.792969 L 272.539062 57.128906 C 277.367188 49.566406 275.414062 39.558594 268.097656 34.347656 C 267.40625 33.84375 266.707031 33.359375 266.007812 32.875 C 263.183594 30.933594 259.886719 29.910156 256.46875 29.910156 C 251.152344 29.910156 246.261719 32.328125 243.050781 36.542969 L 241.847656 38.117188 L 242.484375 36.242188 C 245.378906 27.714844 241.074219 18.445312 232.6875 15.136719 C 231.910156 14.832031 231.125 14.53125 230.335938 14.234375 C 228.421875 13.511719 226.421875 13.144531 224.394531 13.144531 C 217.660156 13.144531 211.582031 17.136719 208.914062 23.3125 L 208.125 25.136719 L 208.292969 23.15625 C 209.058594 14.179688 202.65625 6.214844 193.71875 5.03125 C 192.882812 4.917969 192.050781 4.8125 191.214844 4.710938 C 190.566406 4.636719 189.90625 4.601562 189.253906 4.601562 C 181.003906 4.601562 174.003906 10.492188 172.621094 18.613281 L 172.292969 20.546875 L 171.980469 18.609375 C 170.667969 10.382812 163.671875 4.414062 155.347656 4.414062 C 154.75 4.414062 154.136719 4.449219 153.535156 4.511719 C 152.699219 4.605469 151.859375 4.699219 151.027344 4.800781 C 142.101562 5.890625 135.613281 13.769531 136.257812 22.734375 L 136.398438 24.695312 L 135.636719 22.882812 C 133 16.625 126.898438 12.582031 120.097656 12.582031 C 118.136719 12.582031 116.199219 12.921875 114.335938 13.597656 C 113.539062 13.890625 112.746094 14.1875 111.957031 14.488281 C 103.578125 17.695312 99.171875 26.886719 101.929688 35.414062 L 102.527344 37.257812 L 101.363281 35.710938 C 98.199219 31.5 93.15625 28.984375 87.871094 28.984375 C 84.523438 28.984375 81.277344 29.976562 78.484375 31.847656 C 77.785156 32.316406 77.089844 32.789062 76.402344 33.269531 C 69.019531 38.394531 66.949219 48.382812 71.6875 56.007812 L 72.726562 57.675781 L 71.207031 56.429688 C 68.203125 53.964844 64.40625 52.605469 60.515625 52.605469 C 55.78125 52.605469 51.238281 54.613281 48.046875 58.105469 C 47.480469 58.730469 46.917969 59.359375 46.359375 59.992188 C 40.402344 66.738281 40.773438 76.941406 47.210938 83.21875 L 48.628906 84.597656 L 46.84375 83.742188 C 44.546875 82.636719 42.09375 82.074219 39.554688 82.074219 C 33.367188 82.074219 27.683594 85.453125 24.730469 90.886719 C 24.324219 91.628906 23.925781 92.378906 23.535156 93.128906 C 19.359375 101.113281 22.167969 110.933594 29.933594 115.484375 L 31.644531 116.488281 L 29.703125 116.082031 C 28.566406 115.84375 27.402344 115.722656 26.25 115.722656 C 18.582031 115.722656 11.871094 120.914062 9.933594 128.347656 C 9.726562 129.15625 9.515625 129.976562 9.316406 130.792969 C 7.1875 139.527344 12.261719 148.378906 20.867188 150.945312 L 22.746094 151.503906 L 20.785156 151.578125 C 11.816406 151.921875 4.699219 159.222656 4.578125 168.207031 C 4.570312 168.96875 4.566406 169.722656 4.566406 170.484375 L 4.566406 170.699219 C 4.566406 179.8125 11.742188 187.167969 20.902344 187.449219 L 23.140625 187.519531 L 20.976562 188.089844 C 12.109375 190.421875 6.777344 199.246094 8.84375 208.1875 C 9.03125 209.007812 9.226562 209.824219 9.429688 210.644531 C 11.296875 218.191406 18.019531 223.460938 25.785156 223.460938 C 26.863281 223.460938 27.953125 223.359375 29.019531 223.148438 L 30.953125 222.769531 L 29.246094 223.746094 C 21.4375 228.210938 18.519531 238 22.597656 246.023438 C 22.976562 246.769531 23.367188 247.515625 23.757812 248.253906 C 26.6875 253.804688 32.40625 257.25 38.683594 257.25 C 41.136719 257.25 43.515625 256.726562 45.75 255.691406 L 47.519531 254.867188 L 46.109375 256.21875 C 39.617188 262.425781 39.136719 272.613281 45.007812 279.414062 L 45.109375 279.535156 C 45.621094 280.125 46.136719 280.722656 46.660156 281.308594 C 49.855469 284.902344 54.453125 286.964844 59.269531 286.964844 C 63.089844 286.964844 66.828125 285.652344 69.804688 283.265625 L 71.34375 282.03125 L 70.28125 283.691406 C 65.433594 291.269531 67.382812 301.289062 74.71875 306.507812 C 75.398438 306.992188 76.082031 307.46875 76.765625 307.941406 C 79.601562 309.898438 82.914062 310.933594 86.34375 310.933594 C 91.644531 310.933594 96.527344 308.523438 99.738281 304.328125 L 100.941406 302.753906 L 100.300781 304.628906 C 97.398438 313.152344 101.683594 322.421875 110.0625 325.738281 C 110.84375 326.046875 111.628906 326.351562 112.417969 326.648438 C 114.34375 327.375 116.347656 327.746094 118.386719 327.746094 C 125.113281 327.746094 131.183594 323.761719 133.855469 317.597656 L 134.648438 315.769531 L 134.476562 317.753906 C 133.699219 326.730469 140.089844 334.703125 149.027344 335.910156 C 149.859375 336.019531 150.691406 336.125 151.53125 336.230469 C 152.199219 336.308594 152.878906 336.347656 153.550781 336.347656 C 161.769531 336.347656 168.746094 330.464844 170.140625 322.351562 Z M 170.476562 320.421875 " fill-opacity="1" fill-rule="nonzero"/></g></g></g></g><g fill="#a2d188" fill-opacity="1"><g transform="translate(130.184207, 104.924036)"><g><path d="M -4.71875 -27 L -5.5 -27.765625 L -9.484375 -23.765625 L -8.703125 -23 Z M -1.75 -24.046875 L -2.53125 -24.828125 L -6.515625 -20.828125 L -5.734375 -20.046875 Z M 0.4375 -21.875 L -3.546875 -17.875 L -2.765625 -17.109375 L 1.21875 -21.109375 Z M 23.3125 -27.09375 L 25.78125 -21.828125 C 21.707031 -19.273438 18.003906 -17.316406 14.671875 -15.953125 L 17.84375 -12.796875 L 12.96875 -7.890625 L 9.796875 -11.046875 C 8.453125 -7.691406 6.515625 -3.972656 3.984375 0.109375 L -1.296875 -2.3125 C 1.640625 -6.300781 3.828125 -9.613281 5.265625 -12.25 L -2.328125 -4.625 L -5.421875 -7.71875 L 3.8125 -17 L 3.03125 -17.765625 L -4.796875 -9.890625 L -10.09375 -15.140625 L -13.171875 -13.578125 C -14.398438 -17.398438 -16.003906 -21.128906 -17.984375 -24.765625 L -12.96875 -28.515625 C -12.570312 -27.878906 -12.3125 -27.453125 -12.1875 -27.234375 L -8.15625 -31.296875 C -8.664062 -32.210938 -9.070312 -32.921875 -9.375 -33.421875 L -4.375 -37.671875 C -3.9375 -36.960938 -3.613281 -36.429688 -3.40625 -36.078125 L 3.71875 -43.25 L 6.8125 -40.15625 L -0.625 -32.671875 L 0.15625 -31.90625 L 6.8125 -38.609375 L 9 -36.4375 L 2.34375 -29.734375 L 3.125 -28.953125 L 9.78125 -35.65625 L 11.96875 -33.484375 L 5.3125 -26.78125 L 6.09375 -26.015625 L 13.53125 -33.5 L 16.109375 -30.9375 L 7.90625 -22.671875 L 8.6875 -21.90625 L 17.65625 -30.953125 L 20.75 -27.859375 L 13.421875 -20.46875 C 16.054688 -21.925781 19.351562 -24.132812 23.3125 -27.09375 Z M 23.3125 -27.09375 "/></g></g></g><g fill="#a2d188" fill-opacity="1"><g transform="translate(154.155777, 80.075062)"><g><path d="M 9.921875 -5.875 L 23.625 -9.5625 L 22.484375 -13.78125 L 8.78125 -10.09375 Z M 22.96875 -23.890625 L 23.546875 -21.78125 L 3.84375 -16.484375 L 3.265625 -18.59375 C 2.035156 -17.25 0.695312 -15.941406 -0.75 -14.671875 L -4.453125 -19.328125 C -2.210938 -21.453125 -0.328125 -23.5 1.203125 -25.46875 C 2.734375 -27.4375 4.21875 -29.691406 5.65625 -32.234375 L 14.078125 -34.5 C 16.597656 -33.019531 19.007812 -31.8125 21.3125 -30.875 C 23.625 -29.945312 26.28125 -29.125 29.28125 -28.40625 L 28.421875 -22.53125 C 26.535156 -22.90625 24.71875 -23.359375 22.96875 -23.890625 Z M 17.90625 -25.75 C 15.46875 -26.769531 13.144531 -27.960938 10.9375 -29.328125 C 9.71875 -27.035156 8.316406 -24.835938 6.734375 -22.734375 Z M 0.890625 -13.4375 L 27.625 -20.625 L 31.828125 -5 L 25.3125 -3.25 L 24.9375 -4.640625 L 11.234375 -0.953125 L 11.609375 0.4375 L 5.09375 2.1875 Z M 0.890625 -13.4375 "/></g></g></g><g fill="#a2d188" fill-opacity="1"><g transform="translate(187.362028, 70.617171)"><g><path d="M 20.625 -2.5625 C 21.738281 -0.375 22.664062 1.570312 23.40625 3.28125 L 21.671875 4.078125 C 22.734375 4.410156 23.320312 4.585938 23.4375 4.609375 C 24.394531 4.867188 24.972656 4.96875 25.171875 4.90625 C 25.367188 4.84375 25.546875 4.507812 25.703125 3.90625 L 26.984375 -0.84375 Z M 16.265625 -3.734375 L 15.65625 -1.484375 L 19.078125 -2.96875 Z M 18.109375 -10.578125 L 17.640625 -8.8125 L 28.359375 -5.921875 L 28.828125 -7.6875 Z M 10.3125 -8.90625 L 8.609375 -2.59375 L 10.203125 -2.171875 L 11.90625 -8.484375 Z M 11.71875 -14.171875 L 13.3125 -13.75 L 14.96875 -19.90625 L 13.375 -20.328125 Z M 23.296875 10.046875 C 22.640625 9.867188 21.253906 9.425781 19.140625 8.71875 L 19.890625 4.8125 L 18.078125 5.625 C 17.296875 3.851562 16.367188 1.929688 15.296875 -0.140625 L 14.046875 4.53125 L 7.1875 2.6875 L 6.71875 4.4375 L 1.09375 2.921875 L 9.21875 -27.296875 L 21.703125 -23.9375 L 19.484375 -15.6875 L 25.796875 -13.984375 L 26.3125 -15.90625 L 20.875 -17.375 L 22.203125 -22.296875 L 27.640625 -20.828125 L 28.484375 -23.984375 L 34.828125 -22.28125 L 33.984375 -19.125 L 40.125 -17.46875 L 38.796875 -12.546875 L 32.65625 -14.203125 L 32.140625 -12.28125 L 39.328125 -10.34375 L 37.953125 -5.234375 L 35.15625 -5.984375 L 34.6875 -4.21875 L 37.484375 -3.46875 L 36.109375 1.609375 L 33.3125 0.859375 L 32.234375 4.90625 C 31.910156 6.101562 31.640625 7.035156 31.421875 7.703125 C 31.203125 8.367188 30.910156 8.96875 30.546875 9.5 C 30.179688 10.03125 29.84375 10.394531 29.53125 10.59375 C 29.21875 10.789062 28.726562 10.894531 28.0625 10.90625 C 27.40625 10.925781 26.742188 10.867188 26.078125 10.734375 C 25.421875 10.597656 24.492188 10.367188 23.296875 10.046875 Z M 23.296875 10.046875 "/></g></g></g><g fill="#a2d188" fill-opacity="1"><g transform="translate(220.82908, 79.106341)"><g><path d="M 13.484375 8.140625 L 12.4375 9.1875 L 16.546875 13.328125 L 17.59375 12.28125 Z M 15.9375 5.71875 L 20.046875 9.859375 L 21.078125 8.828125 L 16.96875 4.6875 Z M 19.59375 -8.171875 L 18.421875 -7.015625 L 21.640625 -3.78125 L 22.8125 -4.9375 Z M 22.171875 -10.75 L 25.390625 -7.515625 L 26.546875 -8.65625 L 23.328125 -11.890625 Z M 33.953125 6.296875 L 30.484375 2.8125 L 29.3125 3.96875 L 32.78125 7.453125 Z M 36.53125 3.71875 L 37.6875 2.578125 L 34.21875 -0.90625 L 33.0625 0.234375 Z M 3.0625 8.234375 L -1.421875 3.734375 L 22.0625 -19.59375 L 33.078125 -8.5 L 22.109375 2.390625 L 15.578125 -4.203125 Z M 17.15625 22.4375 C 16.320312 21.59375 15.171875 20.347656 13.703125 18.703125 L 15.140625 17.078125 L 9.859375 11.75 L 8.828125 12.765625 L 5.109375 9.015625 L 15.953125 -1.765625 L 27.5 9.859375 L 19.875 17.4375 L 20.25 17.828125 C 20.75 18.328125 21.082031 18.582031 21.25 18.59375 C 21.425781 18.613281 21.738281 18.398438 22.1875 17.953125 L 29.9375 10.265625 L 23.140625 3.421875 L 34.109375 -7.46875 L 45.390625 3.890625 L 27.0625 22.09375 C 26.1875 22.96875 25.484375 23.640625 24.953125 24.109375 C 24.429688 24.578125 23.890625 24.957031 23.328125 25.25 C 22.765625 25.539062 22.300781 25.691406 21.9375 25.703125 C 21.570312 25.710938 21.117188 25.582031 20.578125 25.3125 C 20.046875 25.050781 19.546875 24.707031 19.078125 24.28125 C 18.609375 23.863281 17.96875 23.25 17.15625 22.4375 Z M 17.15625 22.4375 "/></g></g></g><g clip-path="url(#6991fbefbf)"><path fill="#fae099" d="M 148.570312 107.589844 C 151.507812 107.664062 153.542969 109.097656 154.75 111.660156 C 155.203125 112.640625 155.503906 113.769531 155.503906 114.902344 C 155.578125 118.59375 153.089844 122.210938 148.945312 122.664062 C 145.402344 123.117188 141.636719 120.78125 140.882812 116.632812 C 140.503906 114.375 141.183594 112.414062 142.613281 110.679688 C 143.21875 110 143.820312 109.398438 144.574219 108.871094 C 145.78125 108.042969 147.136719 107.589844 148.570312 107.589844 Z M 223.191406 108.417969 C 221.910156 109.097656 220.851562 110.078125 220.023438 111.207031 C 218.816406 112.867188 218.367188 114.75 218.742188 116.785156 C 219.421875 120.402344 222.4375 122.664062 225.828125 122.738281 C 228.238281 122.816406 230.199219 121.835938 231.707031 119.953125 C 232.761719 118.59375 233.363281 116.9375 233.363281 115.203125 C 233.363281 113.921875 233.140625 112.714844 232.535156 111.585938 C 231.253906 109.097656 229.296875 107.664062 226.429688 107.589844 C 225.300781 107.589844 224.167969 107.890625 223.191406 108.417969 Z M 223.191406 108.417969 " fill-opacity="1" fill-rule="nonzero"/></g><g clip-path="url(#6410b79b60)"><path fill="#a0daea" d="M 174.273438 107.589844 C 177.136719 107.515625 179.546875 109.25 180.601562 111.8125 C 181.734375 114.523438 181.507812 117.164062 179.773438 119.648438 C 178.566406 121.382812 176.835938 122.363281 174.722656 122.664062 C 172.238281 122.964844 170.125 122.136719 168.394531 120.328125 C 166.660156 118.367188 166.054688 116.03125 166.808594 113.46875 C 167.488281 111.132812 169.070312 109.550781 171.105469 108.34375 C 172.085938 107.816406 173.214844 107.515625 174.273438 107.589844 Z M 259.292969 109.777344 C 257.183594 107.4375 253.867188 107.0625 251.378906 108.269531 C 250.097656 108.871094 249.117188 109.777344 248.214844 110.832031 C 246.78125 112.640625 246.179688 114.675781 246.707031 116.9375 C 247.382812 119.875 249.195312 121.683594 252.132812 122.515625 C 253.941406 123.042969 255.75 122.738281 257.335938 121.835938 C 259.972656 120.402344 261.101562 118.066406 261.253906 115.65625 C 261.328125 113.09375 260.652344 111.28125 259.292969 109.777344 Z M 259.292969 109.777344 " fill-opacity="1" fill-rule="nonzero"/></g><g clip-path="url(#0d9f0294ed)"><path fill="#f4c4c6" d="M 192.585938 115.429688 C 192.585938 113.542969 193.339844 111.886719 194.621094 110.453125 C 195.300781 109.699219 196.054688 109.023438 196.882812 108.570312 C 197.789062 108.042969 198.769531 107.742188 199.898438 107.664062 C 201.179688 107.589844 202.386719 107.816406 203.515625 108.417969 C 204.648438 109.023438 205.550781 109.925781 206.15625 111.058594 C 207.8125 113.996094 207.738281 116.9375 205.777344 119.726562 C 204.570312 121.535156 202.761719 122.515625 200.578125 122.738281 C 198.164062 122.964844 196.128906 122.210938 194.472656 120.480469 C 193.265625 119.046875 192.585938 117.386719 192.585938 115.429688 Z M 119.097656 108.269531 C 117.589844 109.023438 116.308594 110.152344 115.480469 111.660156 C 113.671875 114.675781 114.125 118.066406 116.535156 120.554688 C 118.117188 122.210938 120.152344 122.890625 122.414062 122.664062 C 125.503906 122.363281 127.917969 120.328125 128.820312 117.3125 C 129.347656 115.429688 129.273438 113.542969 128.445312 111.8125 C 127.3125 109.171875 124.976562 107.589844 122.113281 107.589844 C 121.058594 107.589844 120.078125 107.816406 119.097656 108.269531 Z M 119.097656 108.269531 " fill-opacity="1" fill-rule="nonzero"/></g><g fill="#0097b2" fill-opacity="1"><g transform="translate(111.751814, 188.75675)"><g><path d="M 11.453125 -21.1875 L 11.40625 -21.1875 L 5.09375 -15.265625 L 2.546875 -22.46875 L 11.453125 -30.9375 L 20.34375 -30.9375 L 20.34375 0 L 11.453125 0 Z M 11.453125 -21.1875 "/></g></g></g><g fill="#0097b2" fill-opacity="1"><g transform="translate(144.687751, 188.75675)"><g><path d="M 23.5625 -3.296875 C 21.476562 -0.816406 18.285156 0.421875 13.984375 0.421875 C 9.691406 0.421875 6.5 -0.816406 4.40625 -3.296875 C 2.3125 -5.785156 1.265625 -9.84375 1.265625 -15.46875 C 1.265625 -21.09375 2.3125 -25.148438 4.40625 -27.640625 C 6.5 -30.128906 9.691406 -31.375 13.984375 -31.375 C 18.285156 -31.375 21.476562 -30.128906 23.5625 -27.640625 C 25.65625 -25.148438 26.703125 -21.09375 26.703125 -15.46875 C 26.703125 -9.84375 25.65625 -5.785156 23.5625 -3.296875 Z M 10.921875 -7.984375 C 11.554688 -6.617188 12.578125 -5.9375 13.984375 -5.9375 C 15.398438 -5.9375 16.425781 -6.617188 17.0625 -7.984375 C 17.695312 -9.359375 18.015625 -11.851562 18.015625 -15.46875 C 18.015625 -19.09375 17.695312 -21.585938 17.0625 -22.953125 C 16.425781 -24.328125 15.398438 -25.015625 13.984375 -25.015625 C 12.578125 -25.015625 11.554688 -24.328125 10.921875 -22.953125 C 10.285156 -21.585938 9.96875 -19.09375 9.96875 -15.46875 C 9.96875 -11.851562 10.285156 -9.359375 10.921875 -7.984375 Z M 10.921875 -7.984375 "/></g></g></g><g fill="#0097b2" fill-opacity="1"><g transform="translate(177.623687, 188.75675)"><g><path d="M 5.21875 -15.6875 L 5.21875 -24.59375 L 14.546875 -24.59375 L 14.546875 -15.6875 Z M 5.21875 0 L 5.21875 -8.90625 L 14.546875 -8.90625 L 14.546875 0 Z M 5.21875 0 "/></g></g></g><g fill="#0097b2" fill-opacity="1"><g transform="translate(202.336601, 188.75675)"><g><path d="M 16.53125 -18.234375 L 16.953125 -18.234375 C 19.273438 -18.234375 21.160156 -17.460938 22.609375 -15.921875 C 24.066406 -14.378906 24.796875 -12.320312 24.796875 -9.75 C 24.796875 -6.445312 23.773438 -3.925781 21.734375 -2.1875 C 19.703125 -0.445312 16.765625 0.421875 12.921875 0.421875 C 9.140625 0.421875 5.609375 -0.425781 2.328125 -2.125 L 4.40625 -8.484375 C 7.375 -7.015625 9.929688 -6.28125 12.078125 -6.28125 C 13.523438 -6.28125 14.628906 -6.566406 15.390625 -7.140625 C 16.148438 -7.722656 16.53125 -8.519531 16.53125 -9.53125 C 16.53125 -10.382812 16.332031 -11.019531 15.9375 -11.4375 C 15.539062 -11.863281 14.796875 -12.179688 13.703125 -12.390625 C 12.617188 -12.609375 11.019531 -12.71875 8.90625 -12.71875 L 7.203125 -12.71875 L 7.203125 -18.234375 L 14.40625 -24.078125 L 14.40625 -24.15625 L 2.96875 -24.15625 L 2.96875 -30.9375 L 24.375 -30.9375 L 24.375 -24.15625 L 16.53125 -18.3125 Z M 16.53125 -18.234375 "/></g></g></g><g fill="#0097b2" fill-opacity="1"><g transform="translate(235.272535, 188.75675)"><g><path d="M 23.5625 -3.296875 C 21.476562 -0.816406 18.285156 0.421875 13.984375 0.421875 C 9.691406 0.421875 6.5 -0.816406 4.40625 -3.296875 C 2.3125 -5.785156 1.265625 -9.84375 1.265625 -15.46875 C 1.265625 -21.09375 2.3125 -25.148438 4.40625 -27.640625 C 6.5 -30.128906 9.691406 -31.375 13.984375 -31.375 C 18.285156 -31.375 21.476562 -30.128906 23.5625 -27.640625 C 25.65625 -25.148438 26.703125 -21.09375 26.703125 -15.46875 C 26.703125 -9.84375 25.65625 -5.785156 23.5625 -3.296875 Z M 10.921875 -7.984375 C 11.554688 -6.617188 12.578125 -5.9375 13.984375 -5.9375 C 15.398438 -5.9375 16.425781 -6.617188 17.0625 -7.984375 C 17.695312 -9.359375 18.015625 -11.851562 18.015625 -15.46875 C 18.015625 -19.09375 17.695312 -21.585938 17.0625 -22.953125 C 16.425781 -24.328125 15.398438 -25.015625 13.984375 -25.015625 C 12.578125 -25.015625 11.554688 -24.328125 10.921875 -22.953125 C 10.285156 -21.585938 9.96875 -19.09375 9.96875 -15.46875 C 9.96875 -11.851562 10.285156 -9.359375 10.921875 -7.984375 Z M 10.921875 -7.984375 "/></g></g></g><g fill="#545454" fill-opacity="1"><g transform="translate(73.84166, 224.006748)"><g><path d="M 10.65625 -4.421875 C 9.269531 -4.421875 8.578125 -4.070312 8.578125 -3.375 C 8.578125 -2.6875 9.097656 -2.34375 10.140625 -2.34375 C 11.054688 -2.34375 11.671875 -2.453125 11.984375 -2.671875 C 12.296875 -2.898438 12.460938 -3.367188 12.484375 -4.078125 C 11.816406 -4.304688 11.207031 -4.421875 10.65625 -4.421875 Z M 16.765625 -1.53125 C 16.367188 -0.351562 15.632812 0.492188 14.5625 1.015625 C 13.5 1.546875 12.023438 1.8125 10.140625 1.8125 C 8.179688 1.8125 6.648438 1.359375 5.546875 0.453125 C 4.453125 -0.453125 3.90625 -1.726562 3.90625 -3.375 C 3.90625 -4.96875 4.441406 -6.210938 5.515625 -7.109375 C 6.585938 -8.003906 8.128906 -8.453125 10.140625 -8.453125 C 10.921875 -8.453125 11.703125 -8.375 12.484375 -8.21875 L 12.484375 -9.484375 L 3.640625 -9.484375 L 3.640625 -13.515625 L 12.484375 -13.515625 L 12.484375 -14.5625 L 2.59375 -14.5625 L 2.59375 -18.71875 L 12.484375 -18.71875 L 12.484375 -20.796875 L 17.15625 -20.796875 L 17.15625 -18.71875 L 23.40625 -18.71875 L 23.40625 -14.5625 L 17.15625 -14.5625 L 17.15625 -13.515625 L 22.359375 -13.515625 L 22.359375 -9.484375 L 17.15625 -9.484375 L 17.15625 -6.3125 C 18.925781 -5.257812 20.832031 -3.757812 22.875 -1.8125 L 20.015625 1.296875 C 18.804688 0.140625 17.722656 -0.800781 16.765625 -1.53125 Z M 16.765625 -1.53125 "/></g></g></g><g fill="#545454" fill-opacity="1"><g transform="translate(102.875871, 224.006748)"><g><path d="M 21.53125 -8.140625 L 18.84375 -6.859375 C 18.175781 -8.234375 17.441406 -9.613281 16.640625 -11 L 19.3125 -12.34375 C 20.113281 -10.875 20.851562 -9.472656 21.53125 -8.140625 Z M 25.734375 -8.96875 L 23.015625 -7.671875 C 22.234375 -9.179688 21.476562 -10.582031 20.75 -11.875 L 23.484375 -13.265625 C 24.097656 -12.128906 24.847656 -10.695312 25.734375 -8.96875 Z M 10.53125 -14.53125 L 10.53125 -14.59375 C 7.507812 -14.488281 4.546875 -14.4375 1.640625 -14.4375 L 1.640625 -18.84375 C 8.722656 -18.84375 15.957031 -19.019531 23.34375 -19.375 L 23.484375 -14.953125 C 19.671875 -14.742188 16.796875 -14 14.859375 -12.71875 C 12.921875 -11.445312 11.953125 -9.804688 11.953125 -7.796875 C 11.953125 -6.222656 12.453125 -4.984375 13.453125 -4.078125 C 14.460938 -3.179688 15.785156 -2.734375 17.421875 -2.734375 C 18.210938 -2.734375 19.242188 -2.84375 20.515625 -3.0625 L 21.0625 1.4375 C 19.757812 1.6875 18.457031 1.8125 17.15625 1.8125 C 13.96875 1.8125 11.414062 0.992188 9.5 -0.640625 C 7.582031 -2.273438 6.625 -4.488281 6.625 -7.28125 C 6.625 -8.582031 6.972656 -9.882812 7.671875 -11.1875 C 8.378906 -12.5 9.332031 -13.613281 10.53125 -14.53125 Z M 10.53125 -14.53125 "/></g></g></g><g fill="#545454" fill-opacity="1"><g transform="translate(131.910083, 224.006748)"><g><path d="M 11.703125 -14.296875 L 11.703125 -18.59375 L 23.015625 -18.59375 L 23.015625 -14.296875 Z M 8.765625 -19.765625 C 7.953125 -16.535156 7.546875 -13.066406 7.546875 -9.359375 C 7.546875 -5.648438 7.953125 -2.179688 8.765625 1.046875 L 3.90625 1.5625 C 3.03125 -1.882812 2.59375 -5.523438 2.59375 -9.359375 C 2.59375 -13.191406 3.03125 -16.832031 3.90625 -20.28125 Z M 15.984375 -8.1875 C 14.773438 -6.875 14.171875 -5.921875 14.171875 -5.328125 C 14.171875 -4.804688 14.414062 -4.414062 14.90625 -4.15625 C 15.40625 -3.894531 16.242188 -3.765625 17.421875 -3.765625 C 19.148438 -3.765625 21.054688 -3.984375 23.140625 -4.421875 L 23.796875 -0.125 C 21.765625 0.394531 19.640625 0.65625 17.421875 0.65625 C 14.890625 0.65625 12.910156 0.15625 11.484375 -0.84375 C 10.066406 -1.851562 9.359375 -3.21875 9.359375 -4.9375 C 9.359375 -5.71875 9.65625 -6.65625 10.25 -7.75 C 10.851562 -8.851562 11.640625 -9.867188 12.609375 -10.796875 Z M 15.984375 -8.1875 "/></g></g></g><g fill="#545454" fill-opacity="1"><g transform="translate(160.944297, 224.006748)"><g><path d="M 11.71875 -13.90625 C 11.5 -14.457031 11.140625 -15.28125 10.640625 -16.375 C 10.429688 -16.363281 10.128906 -16.351562 9.734375 -16.34375 C 9.347656 -16.332031 9.050781 -16.328125 8.84375 -16.328125 C 9 -15.984375 9.335938 -15.175781 9.859375 -13.90625 Z M 16.84375 -13.90625 C 17.332031 -15.070312 17.710938 -16.046875 17.984375 -16.828125 C 16.898438 -16.734375 15.84375 -16.65625 14.8125 -16.59375 C 15.070312 -16.019531 15.445312 -15.125 15.9375 -13.90625 Z M 12.5625 -4.15625 C 13.769531 -4.726562 14.765625 -5.289062 15.546875 -5.84375 L 9.078125 -5.84375 C 10.066406 -5.238281 11.226562 -4.675781 12.5625 -4.15625 Z M 2.46875 -20.15625 C 6.875 -20.15625 11.007812 -20.289062 14.875 -20.5625 C 18.738281 -20.84375 21.453125 -21.179688 23.015625 -21.578125 L 24.046875 -17.6875 C 23.203125 -17.476562 21.828125 -17.257812 19.921875 -17.03125 L 22.09375 -16.515625 C 21.726562 -15.453125 21.410156 -14.582031 21.140625 -13.90625 L 24.953125 -13.90625 L 24.953125 -7.015625 L 21.3125 -7.015625 L 21.3125 -5.84375 C 20.226562 -4.582031 18.992188 -3.492188 17.609375 -2.578125 C 19.804688 -2.015625 22.253906 -1.546875 24.953125 -1.171875 L 23.40625 2.59375 C 19.488281 2.125 15.847656 1.269531 12.484375 0.03125 C 9.898438 1.03125 6.601562 1.882812 2.59375 2.59375 L 1.046875 -1.171875 C 3.347656 -1.460938 5.441406 -1.851562 7.328125 -2.34375 C 6.429688 -2.863281 5.632812 -3.382812 4.9375 -3.90625 L 7.078125 -5.84375 L 4.15625 -5.84375 L 4.15625 -7.015625 L 1.046875 -7.015625 L 1.046875 -13.90625 L 5.640625 -13.90625 C 5.242188 -14.84375 4.898438 -15.625 4.609375 -16.25 L 2.859375 -16.25 Z M 20.28125 -10.53125 L 5.71875 -10.53125 L 5.71875 -9.484375 L 20.28125 -9.484375 Z M 20.28125 -10.53125 "/></g></g></g><g fill="#545454" fill-opacity="1"><g transform="translate(189.978505, 224.006748)"><g><path d="M 7.40625 -15.625 L 7.40625 2.59375 L 2.859375 2.59375 L 2.859375 -7.59375 C 2.253906 -6.601562 1.691406 -5.847656 1.171875 -5.328125 L 0.125 -11.046875 C 1.21875 -12.554688 2.082031 -14.113281 2.71875 -15.71875 C 3.351562 -17.332031 3.832031 -19.242188 4.15625 -21.453125 L 8.578125 -20.671875 C 8.335938 -18.972656 7.945312 -17.289062 7.40625 -15.625 Z M 23.40625 -21.3125 L 23.40625 -17.6875 L 25.21875 -17.6875 L 25.21875 -13.65625 L 23.40625 -13.65625 L 23.40625 -2.59375 C 23.40625 -1.71875 23.390625 -1.023438 23.359375 -0.515625 C 23.335938 -0.015625 23.25 0.453125 23.09375 0.890625 C 22.945312 1.335938 22.78125 1.648438 22.59375 1.828125 C 22.40625 2.015625 22.082031 2.175781 21.625 2.3125 C 21.164062 2.445312 20.679688 2.523438 20.171875 2.546875 C 19.671875 2.578125 18.96875 2.59375 18.0625 2.59375 C 17.34375 2.59375 15.785156 2.550781 13.390625 2.46875 L 13.125 -1.5625 C 15.175781 -1.476562 16.519531 -1.4375 17.15625 -1.4375 C 17.851562 -1.4375 18.265625 -1.472656 18.390625 -1.546875 C 18.523438 -1.617188 18.59375 -1.882812 18.59375 -2.34375 L 18.59375 -13.65625 L 8.453125 -13.65625 L 8.453125 -17.6875 L 18.59375 -17.6875 L 18.59375 -21.3125 Z M 8.96875 -10.40625 L 12.609375 -12.734375 C 14.078125 -10.554688 15.507812 -8.21875 16.90625 -5.71875 L 13.125 -3.640625 C 11.84375 -5.984375 10.457031 -8.238281 8.96875 -10.40625 Z M 8.96875 -10.40625 "/></g></g></g><g fill="#545454" fill-opacity="1"><g transform="translate(219.012713, 224.006748)"><g><path d="M 4.546875 -20.28125 L 9.625 -20.15625 C 9.363281 -16.394531 9.234375 -12.625 9.234375 -8.84375 C 9.234375 -7.257812 9.335938 -6.054688 9.546875 -5.234375 C 9.765625 -4.410156 10.097656 -3.851562 10.546875 -3.5625 C 11.003906 -3.269531 11.648438 -3.125 12.484375 -3.125 C 13.890625 -3.125 15.15625 -3.644531 16.28125 -4.6875 C 17.40625 -5.738281 18.476562 -7.515625 19.5 -10.015625 L 23.921875 -8.3125 C 22.617188 -4.851562 21.023438 -2.34375 19.140625 -0.78125 C 17.265625 0.78125 15.046875 1.5625 12.484375 1.5625 C 10.347656 1.5625 8.695312 1.253906 7.53125 0.640625 C 6.375 0.0351562 5.519531 -1.007812 4.96875 -2.5 C 4.425781 -3.988281 4.15625 -6.101562 4.15625 -8.84375 C 4.15625 -12.863281 4.285156 -16.675781 4.546875 -20.28125 Z M 4.546875 -20.28125 "/></g></g></g><g fill="#545454" fill-opacity="1"><g transform="translate(248.046921, 224.006748)"><g><path d="M 11.046875 -14.53125 L 11.046875 -14.59375 C 8.035156 -14.488281 5.070312 -14.4375 2.15625 -14.4375 L 2.15625 -18.84375 C 9.25 -18.84375 16.488281 -19.019531 23.875 -19.375 L 24 -14.953125 C 20.195312 -14.742188 17.328125 -14.015625 15.390625 -12.765625 C 13.453125 -11.515625 12.484375 -9.945312 12.484375 -8.0625 C 12.484375 -6.601562 12.988281 -5.4375 14 -4.5625 C 15.007812 -3.6875 16.320312 -3.25 17.9375 -3.25 C 18.738281 -3.25 19.769531 -3.363281 21.03125 -3.59375 L 21.578125 0.90625 C 20.273438 1.164062 18.976562 1.296875 17.6875 1.296875 C 14.488281 1.296875 11.929688 0.492188 10.015625 -1.109375 C 8.109375 -2.722656 7.15625 -4.867188 7.15625 -7.546875 C 7.15625 -8.734375 7.503906 -9.96875 8.203125 -11.25 C 8.898438 -12.539062 9.847656 -13.632812 11.046875 -14.53125 Z M 11.046875 -14.53125 "/></g></g></g><g fill="#545454" fill-opacity="1"><g transform="translate(277.081141, 224.006748)"><g><path d="M 16.90625 -18.453125 C 19.445312 -18.453125 21.296875 -17.707031 22.453125 -16.21875 C 23.609375 -14.726562 24.1875 -12.179688 24.1875 -8.578125 C 24.1875 -7.222656 24.054688 -6.019531 23.796875 -4.96875 C 24.191406 -4.476562 24.835938 -3.601562 25.734375 -2.34375 L 22.75 0.390625 C 22.625 0.210938 22.453125 -0.03125 22.234375 -0.34375 C 22.023438 -0.65625 21.875 -0.867188 21.78125 -0.984375 C 20.539062 0.367188 18.914062 1.046875 16.90625 1.046875 C 15.1875 1.046875 13.800781 0.570312 12.75 -0.375 C 11.707031 -1.332031 11.1875 -2.59375 11.1875 -4.15625 C 11.1875 -5.71875 11.703125 -6.972656 12.734375 -7.921875 C 13.773438 -8.878906 15.164062 -9.359375 16.90625 -9.359375 C 17.71875 -9.359375 18.539062 -9.175781 19.375 -8.8125 C 19.351562 -10.269531 19.253906 -11.359375 19.078125 -12.078125 C 18.910156 -12.796875 18.644531 -13.28125 18.28125 -13.53125 C 17.914062 -13.78125 17.367188 -13.90625 16.640625 -13.90625 C 15.941406 -13.90625 15.113281 -13.613281 14.15625 -13.03125 C 13.207031 -12.457031 11.957031 -11.425781 10.40625 -9.9375 L 10.40625 1.8125 L 5.984375 1.8125 L 5.984375 -5.375 C 4.972656 -4.289062 4.28125 -3.539062 3.90625 -3.125 L 0.65625 -6.109375 C 2.75 -8.503906 4.523438 -10.425781 5.984375 -11.875 L 5.984375 -13.515625 L 1.5625 -13.515625 L 1.5625 -17.421875 L 5.984375 -17.421875 L 5.984375 -20.796875 L 10.40625 -20.796875 L 10.40625 -15.828125 C 12.6875 -17.578125 14.851562 -18.453125 16.90625 -18.453125 Z M 19.0625 -4.578125 C 18.394531 -5.253906 17.757812 -5.59375 17.15625 -5.59375 C 16.570312 -5.59375 16.125 -5.46875 15.8125 -5.21875 C 15.5 -4.976562 15.34375 -4.671875 15.34375 -4.296875 C 15.34375 -3.835938 15.476562 -3.484375 15.75 -3.234375 C 16.03125 -2.984375 16.414062 -2.859375 16.90625 -2.859375 C 17.488281 -2.859375 17.945312 -2.976562 18.28125 -3.21875 C 18.625 -3.46875 18.882812 -3.921875 19.0625 -4.578125 Z M 19.0625 -4.578125 "/></g></g></g></svg>